<?xml version="1.0" encoding="UTF-8"?>
<svg xmlns="http://www.w3.org/2000/svg" xmlns:xlink="http://www.w3.org/1999/xlink" version="1.2" >
<font id="elementa">
<font-face  font-family="Elementa-Regular" units-per-em="1000" ascent="648.926" descent="-188.232" font-style="normal" font-weight="400" font-stretch="normal" cap-height="750" x-height="500" underline-position="-156" underline-thickness="20" />
<missing-glyph  horiz-adv-x="610" d="" />
<glyph glyph-name="NULL" d="" />
<glyph glyph-name="CR" unicode="&#xd;" horiz-adv-x="610" d="" />
<glyph glyph-name="space" unicode="&#x20;" horiz-adv-x="610" d="" />
<glyph glyph-name="exclam" unicode="&#x21;" horiz-adv-x="610" d="M354 584 C364 666 249 672 259 584 L286 354 L286 190 C286 163 327 163 327 190 L327 354 L354 584 Z M358 45 C358 74 335 97 307 97 C278 97 256 74 256 45 C256 17 278 -5 307 -5 C335 -5 358 17 358 45 L358 45 Z " />
<glyph glyph-name="quotedbl" unicode="&#x22;" horiz-adv-x="610" d="M465 619 C472 701 363 707 371 619 L397 498 L397 396 C397 369 439 369 439 396 L439 499 L465 619 Z M230 619 C237 701 128 707 136 619 L163 498 L163 396 C163 369 204 369 204 396 L204 499 L230 619 Z " />
<glyph glyph-name="numbersign" unicode="&#x23;" horiz-adv-x="610" d="M571 393 C599 393 599 435 571 435 L449 435 L477 604 C481 631 440 638 436 611 L407 435 L256 435 L284 604 C288 631 247 638 243 611 L214 435 L85 435 C58 435 58 393 85 393 L208 393 L173 182 L45 182 C17 182 17 140 45 140 L167 140 L139 -28 C134 -56 176 -62 180 -35 L208 140 L359 140 L332 -28 C327 -56 369 -62 373 -35 L401 140 L530 140 C558 140 558 182 530 182 L408 182 L442 393 L571 393 Z M400 393 L366 182 L215 182 L250 393 L400 393 Z " />
<glyph glyph-name="dollar" unicode="&#x24;" horiz-adv-x="610" d="M534 181 C534 308 456 347 367 367 L367 600 C411 590 444 575 460 542 C442 538 429 521 429 502 C429 480 447 462 469 462 C493 462 511 482 511 504 C511 580 448 622 367 642 L367 699 C367 727 330 727 330 699 L330 649 C315 650 299 652 285 652 C274 652 265 651 255 650 L255 699 C255 727 218 727 218 699 L218 645 C139 629 71 583 71 503 C71 400 138 368 218 352 L218 50 C171 63 130 88 115 126 C134 130 147 146 147 166 C147 188 129 206 107 206 C85 206 66 187 66 166 C66 81 138 28 218 7 L218 -95 C218 -123 255 -123 255 -95 L255 0 C269 -1 282 -3 295 -3 C307 -3 318 -2 330 -1 L330 -95 C330 -123 367 -123 367 -95 L367 5 C455 25 534 83 534 181 L534 181 Z M492 181 C492 111 434 66 367 48 L367 324 C437 306 492 272 492 181 L492 181 Z M330 41 C319 40 308 39 297 39 C284 39 270 40 255 42 L255 344 C280 340 306 337 330 332 L330 41 Z M330 374 L255 386 L255 609 C262 610 270 610 277 610 C294 610 313 609 330 607 L330 374 Z M218 394 C158 409 113 436 113 503 C113 563 157 593 218 605 L218 394 Z " />
<glyph glyph-name="percent" unicode="&#x25;" horiz-adv-x="610" d="M563 713 C577 737 553 757 533 740 C467 685 338 640 249 629 C236 638 220 643 204 643 C110 643 24 523 24 417 C24 345 58 306 113 306 C196 306 289 415 289 530 C289 554 285 577 277 597 C343 606 431 637 490 669 L61 -71 C47 -95 82 -116 96 -92 L563 713 Z M596 212 C596 277 563 322 508 322 C419 322 331 204 331 94 C331 30 359 -15 419 -15 C505 -15 596 98 596 212 L596 212 Z M556 212 C556 128 481 23 420 23 C389 23 370 55 370 94 C370 176 445 283 505 283 C539 283 556 251 556 212 L556 212 Z M250 534 C250 451 176 345 115 345 C83 345 63 375 63 415 C63 495 138 604 199 604 C231 604 250 573 250 534 L250 534 Z " />
<glyph glyph-name="ampersand" unicode="&#x26;" horiz-adv-x="610" d="M584 87 C590 114 551 124 544 97 C535 63 524 36 493 36 C463 36 420 83 377 139 C403 191 424 249 446 292 C459 317 471 336 488 343 C485 337 484 331 484 325 C484 300 499 283 523 283 C548 283 564 306 564 325 C564 373 529 387 501 387 C464 387 434 358 409 311 C389 272 373 221 353 172 C313 229 272 297 240 356 C305 403 359 449 359 506 C359 604 310 647 248 647 C194 647 138 598 138 506 C138 483 157 432 187 370 C106 311 36 250 36 159 C36 59 130 -5 211 -5 C277 -5 321 40 355 98 C405 33 457 -5 493 -5 C544 -5 571 31 584 87 L584 87 Z M332 129 C305 77 269 36 211 36 C150 36 78 83 78 159 C78 236 142 286 207 332 C242 265 289 191 332 129 L332 129 Z M317 506 C317 461 272 429 221 393 C196 445 179 486 179 506 C179 568 212 605 248 605 C290 605 317 572 317 506 L317 506 Z " />
<glyph glyph-name="quotesingle" unicode="&#x27;" horiz-adv-x="610" d="M356 619 C363 701 254 707 262 619 L289 498 L289 396 C289 369 330 369 330 396 L330 499 L356 619 Z " />
<glyph glyph-name="parenleft" unicode="&#x28;" horiz-adv-x="610" d="M432 -66 C277 37 199 194 199 349 C199 499 268 648 409 740 C432 755 410 789 387 774 C233 674 156 519 156 349 C156 181 241 10 409 -101 C432 -116 455 -81 432 -66 L432 -66 Z " />
<glyph glyph-name="parenright" unicode="&#x29;" horiz-adv-x="610" d="M457 349 C457 519 380 674 226 774 C203 789 181 755 204 740 C345 648 415 499 415 349 C415 194 335 36 181 -66 C158 -82 181 -116 204 -101 C372 10 457 181 457 349 L457 349 Z " />
<glyph glyph-name="asterisk" unicode="&#x2a;" horiz-adv-x="610" d="M506 472 L346 568 L506 665 C529 679 509 714 485 700 L326 604 L326 764 C326 792 285 792 285 764 L285 604 L125 700 C102 714 81 679 104 665 L265 568 L104 472 C81 458 102 422 125 436 L285 531 L285 343 C285 315 326 315 326 343 L326 531 L485 436 C509 422 530 458 506 472 L506 472 Z " />
<glyph glyph-name="plus" unicode="&#x2b;" horiz-adv-x="610" d="M532 234 C560 234 560 276 532 276 L320 276 L320 488 C320 516 278 516 278 488 L278 276 L66 276 C38 276 38 234 66 234 L278 234 L278 22 C278 -5 320 -5 320 22 L320 234 L532 234 Z " />
<glyph glyph-name="comma" unicode="&#x2c;" horiz-adv-x="610" d="M359 58 C359 98 328 128 288 128 C248 128 220 92 220 58 C220 17 254 -11 288 -11 C293 -11 299 -11 304 -10 C286 -63 250 -105 217 -132 C196 -149 221 -181 243 -164 C298 -121 359 -32 359 58 L359 58 Z " />
<glyph glyph-name="hyphen" unicode="&#x2d;" horiz-adv-x="610" d="M501 222 C529 222 529 264 501 264 L113 264 C85 264 85 222 113 222 L501 222 Z " />
<glyph glyph-name="period" unicode="&#x2e;" horiz-adv-x="610" d="M375 58 C375 97 343 128 305 128 C266 128 235 97 235 58 C235 20 266 -12 305 -12 C343 -12 375 20 375 58 L375 58 Z " />
<glyph glyph-name="slash" unicode="&#x2f;" horiz-adv-x="610" d="M546 745 C559 770 522 788 510 764 L72 -93 C59 -118 96 -136 108 -112 L546 745 Z " />
<glyph glyph-name="zero" unicode="0" horiz-adv-x="610" d="M536 326 C536 508 428 654 305 654 C183 654 68 502 68 326 C68 145 183 -5 305 -5 C427 -5 536 147 536 326 L536 326 Z M495 326 C495 171 411 36 305 36 C199 36 109 169 109 326 C109 478 200 613 305 613 C411 613 495 482 495 326 L495 326 Z " />
<glyph glyph-name="one" unicode="1" horiz-adv-x="610" d="M439 15 L439 627 C439 657 415 661 397 646 L98 400 C77 382 103 350 125 368 L397 592 L397 15 C397 -13 439 -13 439 15 L439 15 Z " />
<glyph glyph-name="two" unicode="2" horiz-adv-x="610" d="M507 466 C507 564 433 654 313 654 C167 654 94 547 94 459 C94 432 135 432 135 459 C135 529 196 613 313 613 C406 613 466 543 466 466 C466 337 340 339 238 279 C170 238 111 178 89 42 C84 10 95 0 127 0 L485 0 C513 0 513 42 485 42 L131 42 C149 154 200 209 260 244 C375 311 507 320 507 466 L507 466 Z " />
<glyph glyph-name="three" unicode="3" horiz-adv-x="610" d="M523 235 C523 347 438 398 334 398 C298 398 277 390 259 375 L256 376 L470 613 C497 642 490 654 452 654 L126 654 C98 654 98 613 126 613 L417 613 L159 328 C140 308 159 277 183 297 C222 330 271 356 334 356 C414 356 482 321 482 235 C482 54 232 -60 106 -84 C79 -89 86 -131 114 -125 C253 -98 523 36 523 235 L523 235 Z " />
<glyph glyph-name="four" unicode="4" horiz-adv-x="610" d="M561 191 C588 191 588 233 561 233 L417 233 L417 536 C417 564 375 564 375 536 L375 233 L115 233 C173 319 248 497 248 633 C248 661 206 661 206 633 C206 484 113 286 58 226 C42 209 50 191 73 191 L375 191 L375 15 C375 -13 417 -13 417 15 L417 191 L561 191 Z " />
<glyph glyph-name="five" unicode="5" horiz-adv-x="610" d="M531 262 C531 363 458 411 323 411 C262 411 213 403 171 392 L189 613 L469 613 C497 613 497 654 469 654 L192 654 C168 654 150 637 148 613 L129 378 C127 354 137 346 154 346 C171 346 221 370 323 370 C428 370 489 340 489 262 C489 78 219 -42 72 -85 C45 -93 57 -133 84 -125 C243 -79 531 62 531 262 L531 262 Z " />
<glyph glyph-name="six" unicode="6" horiz-adv-x="610" d="M545 202 C545 323 435 402 310 402 C232 402 138 368 115 301 L110 301 C110 518 240 623 403 623 C423 623 442 621 462 619 C490 615 495 656 468 660 C445 663 422 665 400 665 C217 665 68 558 68 265 C68 91 166 -5 310 -5 C440 -5 545 89 545 202 L545 202 Z M503 202 C503 110 416 36 310 36 C200 36 118 114 118 202 C118 300 208 360 310 360 C412 360 503 301 503 202 L503 202 Z " />
<glyph glyph-name="seven" unicode="7" horiz-adv-x="610" d="M530 527 L530 613 C530 645 521 654 488 654 L136 654 C113 654 95 645 92 613 L76 409 C74 382 115 379 117 406 L133 613 L488 613 L488 527 C488 426 416 355 346 264 C271 167 199 50 199 -133 C199 -161 240 -161 240 -133 C240 40 310 148 379 238 C455 337 530 417 530 527 L530 527 Z " />
<glyph glyph-name="eight" unicode="8" horiz-adv-x="610" d="M552 189 C552 262 501 329 423 363 C479 392 514 443 514 496 C514 583 424 654 309 654 C192 654 100 584 100 499 C100 444 136 392 192 363 C114 328 63 264 63 193 C63 89 167 -5 305 -5 C447 -5 552 87 552 189 L552 189 Z M510 189 C510 106 420 36 305 36 C192 36 105 108 105 193 C105 276 195 343 309 343 C421 343 510 274 510 189 L510 189 Z M473 496 C473 430 396 379 305 379 C215 379 142 432 142 499 C142 565 218 613 309 613 C398 613 473 563 473 496 L473 496 Z " />
<glyph glyph-name="nine" unicode="9" horiz-adv-x="610" d="M542 289 C542 526 473 654 298 654 C182 654 74 575 74 441 C74 312 183 217 298 217 C384 217 458 268 497 343 L500 343 L500 289 C500 96 354 -72 221 -104 C195 -110 205 -150 231 -144 C378 -109 542 77 542 289 L542 289 Z M481 441 C481 343 397 259 298 259 C204 259 115 336 115 441 C115 550 204 613 298 613 C392 613 481 548 481 441 L481 441 Z " />
<glyph glyph-name="colon" unicode="&#x3a;" horiz-adv-x="610" d="M375 402 C375 441 343 472 305 472 C266 472 235 441 235 402 C235 363 266 332 305 332 C343 332 375 363 375 402 L375 402 Z M375 58 C375 97 343 128 305 128 C266 128 235 97 235 58 C235 20 266 -12 305 -12 C343 -12 375 20 375 58 L375 58 Z " />
<glyph glyph-name="semicolon" unicode="&#x3b;" horiz-adv-x="610" d="M359 58 C359 98 328 128 288 128 C248 128 220 92 220 58 C220 17 254 -11 288 -11 C293 -11 299 -11 304 -10 C286 -63 250 -105 217 -132 C196 -149 221 -181 243 -164 C298 -121 359 -32 359 58 L359 58 Z M359 402 C359 441 328 472 290 472 C250 472 220 441 220 402 C220 363 250 332 290 332 C328 332 359 363 359 402 L359 402 Z " />
<glyph glyph-name="less" unicode="&#x3c;" horiz-adv-x="610" d="M450 81 L160 283 L450 486 C472 501 449 536 427 521 L113 301 C97 290 97 277 113 266 L427 46 C449 31 472 65 450 81 L450 81 Z " />
<glyph glyph-name="equal" unicode="&#x3d;" horiz-adv-x="610" d="M501 322 C529 322 529 363 501 363 L113 363 C85 363 85 322 113 322 L501 322 Z M501 117 C529 117 529 158 501 158 L113 158 C85 158 85 117 113 117 L501 117 Z " />
<glyph glyph-name="greater" unicode="&#x3e;" horiz-adv-x="610" d="M498 266 C513 277 513 290 498 301 L184 521 C162 536 138 501 160 486 L450 283 L160 81 C138 65 162 31 184 46 L498 266 Z " />
<glyph glyph-name="question" unicode="&#x3f;" horiz-adv-x="610" d="M469 508 C469 613 375 657 280 657 C177 657 89 622 89 498 C89 458 122 418 156 418 C180 418 198 437 198 460 C198 482 180 501 156 501 C147 501 138 498 131 493 C131 596 203 615 280 615 C352 615 427 588 427 508 C427 409 259 401 259 270 L259 190 C259 163 301 163 301 190 L301 270 C301 374 469 383 469 508 L469 508 Z M326 42 C326 69 305 91 278 91 C251 91 229 69 229 42 C229 16 251 -5 278 -5 C305 -5 326 16 326 42 L326 42 Z " />
<glyph glyph-name="at" unicode="&#x40;" horiz-adv-x="610" d="M608 350 C608 529 494 642 318 642 C152 642 9 502 9 322 C9 142 146 3 330 3 C417 3 506 31 563 92 C581 111 550 140 531 119 C482 66 407 44 332 44 C176 44 50 155 50 317 C50 478 176 601 321 601 C445 601 572 510 572 343 C572 287 533 174 452 174 C431 174 411 192 416 217 L472 479 C478 506 436 515 431 488 L429 478 C402 508 362 529 318 529 C231 529 146 424 146 320 C146 199 204 130 277 130 C313 130 351 150 381 175 C395 149 423 132 452 132 C563 132 608 269 608 350 L608 350 Z M417 421 L375 227 C351 199 313 171 277 171 C222 171 188 229 188 320 C188 402 250 487 318 487 C363 487 402 457 417 421 L417 421 Z " />
<glyph glyph-name="A" unicode="A" horiz-adv-x="610" d="M580 0 C607 0 607 42 580 42 L506 42 L326 609 C309 664 299 664 282 609 L102 42 L28 42 C0 42 0 0 28 0 L221 0 C249 0 249 42 221 42 L146 42 L189 180 L419 180 L462 42 L387 42 C359 42 359 0 387 0 L580 0 Z M405 221 L203 221 L304 541 L405 221 Z " />
<glyph glyph-name="B" unicode="B" horiz-adv-x="610" d="M576 186 C576 274 521 330 425 350 C486 374 536 417 536 490 C536 631 425 649 283 649 L56 649 C28 649 28 607 56 607 L176 607 L176 42 L56 42 C28 42 28 0 56 0 L289 0 C456 0 576 31 576 186 L576 186 Z M534 186 C534 69 453 42 289 42 L217 42 L217 321 L325 321 C417 321 534 299 534 186 L534 186 Z M494 490 C494 391 373 362 325 362 L217 362 L217 607 L283 607 C435 607 494 581 494 490 L494 490 Z " />
<glyph glyph-name="C" unicode="C" horiz-adv-x="610" d="M520 632 C523 659 482 664 479 636 L471 562 C436 617 378 654 308 654 C165 654 60 495 60 325 C60 173 154 -5 308 -5 C422 -5 510 110 510 188 C510 216 469 216 469 188 C469 127 397 36 308 36 C175 36 101 194 101 325 C101 471 185 613 308 613 C388 613 444 552 462 476 L457 425 C454 397 495 393 498 420 L520 632 Z " />
<glyph glyph-name="D" unicode="D" horiz-adv-x="610" d="M559 324 C559 546 438 649 276 649 L60 649 C32 649 32 607 60 607 L168 607 L168 42 L60 42 C32 42 32 0 60 0 L281 0 C456 0 559 130 559 324 L559 324 Z M518 324 C518 150 431 42 281 42 L210 42 L210 607 L276 607 C417 607 518 518 518 324 L518 324 Z " />
<glyph glyph-name="E" unicode="E" horiz-adv-x="610" d="M552 445 L520 607 C513 640 502 649 469 649 L65 649 C37 649 37 607 65 607 L147 607 L147 42 L65 42 C37 42 37 0 65 0 L462 0 C496 0 507 9 513 42 L548 228 C553 254 512 262 507 235 L470 42 L189 42 L189 327 L344 327 L344 239 C344 211 386 211 386 239 L386 456 C386 484 344 484 344 456 L344 368 L189 368 L189 607 L477 607 L511 437 C516 410 558 417 552 445 L552 445 Z " />
<glyph glyph-name="F" unicode="F" horiz-adv-x="610" d="M572 445 L540 607 C533 640 522 649 489 649 L74 649 C46 649 46 607 74 607 L168 607 L168 42 L74 42 C46 42 46 0 74 0 L326 0 C354 0 354 42 326 42 L209 42 L209 327 L382 327 L382 228 C382 200 423 200 423 228 L423 467 C423 495 382 495 382 467 L382 368 L209 368 L209 607 L498 607 L531 437 C536 410 578 417 572 445 L572 445 Z " />
<glyph glyph-name="G" unicode="G" horiz-adv-x="610" d="M562 254 C589 254 589 295 562 295 L376 295 C349 295 349 254 376 254 L451 254 L451 111 C423 70 372 36 317 36 C185 36 110 194 110 325 C110 471 194 613 317 613 C384 613 434 571 459 513 L457 453 C456 426 497 425 498 452 L503 629 C504 657 464 657 463 629 L461 587 C427 628 376 654 317 654 C174 654 69 495 69 325 C69 173 164 -5 317 -5 C384 -5 420 27 454 61 L489 0 C499 -18 538 0 525 21 L504 56 C495 70 493 81 493 119 L493 254 L562 254 Z " />
<glyph glyph-name="H" unicode="H" horiz-adv-x="610" d="M549 0 C577 0 577 42 549 42 L489 42 L489 607 L549 607 C577 607 577 649 549 649 L388 649 C360 649 360 607 388 607 L448 607 L448 368 L160 368 L160 607 L220 607 C248 607 248 649 220 649 L59 649 C31 649 31 607 59 607 L119 607 L119 42 L59 42 C31 42 31 0 59 0 L220 0 C248 0 248 42 220 42 L160 42 L160 327 L448 327 L448 42 L388 42 C360 42 360 0 388 0 L549 0 Z " />
<glyph glyph-name="I" unicode="I" horiz-adv-x="610" d="M494 0 C522 0 522 42 494 42 L323 42 L323 607 L494 607 C522 607 522 649 494 649 L111 649 C83 649 83 607 111 607 L282 607 L282 42 L111 42 C83 42 83 0 111 0 L494 0 Z " />
<glyph glyph-name="J" unicode="J" horiz-adv-x="610" d="M546 607 C574 607 574 649 546 649 L219 649 C191 649 191 607 219 607 L362 607 L362 245 C362 106 313 36 228 36 C151 36 105 77 105 160 C105 165 106 169 106 174 C114 168 124 166 133 166 C163 166 183 189 183 215 C183 241 161 264 133 264 C89 264 64 206 64 160 C64 50 126 -5 228 -5 C333 -5 403 74 403 245 L403 607 L546 607 Z " />
<glyph glyph-name="K" unicode="K" horiz-adv-x="610" d="M556 0 C583 0 583 42 556 42 L485 42 L292 382 L472 607 L545 607 C572 607 572 649 545 649 L361 649 C333 649 333 607 361 607 L419 607 L150 270 L150 607 L210 607 C238 607 238 649 210 649 L49 649 C21 649 21 607 49 607 L109 607 L109 42 L49 42 C21 42 21 0 49 0 L210 0 C238 0 238 42 210 42 L150 42 L150 204 L264 346 L437 42 L383 42 C355 42 355 0 383 0 L556 0 Z " />
<glyph glyph-name="L" unicode="L" horiz-adv-x="610" d="M591 228 C596 254 555 262 550 235 L513 42 L231 42 L231 607 L358 607 C386 607 386 649 358 649 L63 649 C35 649 35 607 63 607 L189 607 L189 42 L63 42 C35 42 35 0 63 0 L505 0 C538 0 549 9 555 42 L591 228 Z " />
<glyph glyph-name="M" unicode="M" horiz-adv-x="610" d="M578 0 C605 0 605 42 578 42 L518 42 L518 607 L578 607 C605 607 605 649 578 649 L464 649 C431 649 423 642 412 607 L306 285 L200 607 C188 642 181 649 148 649 L34 649 C6 649 6 607 34 607 L94 607 L94 42 L34 42 C6 42 6 0 34 0 L195 0 C223 0 223 42 195 42 L135 42 L135 607 L157 607 L284 218 C290 200 322 199 328 218 L455 607 L477 607 L477 42 L417 42 C389 42 389 0 417 0 L578 0 Z " />
<glyph glyph-name="N" unicode="N" horiz-adv-x="610" d="M551 607 C579 607 579 649 551 649 L390 649 C362 649 362 607 390 607 L450 607 L450 90 L443 90 L436 120 L221 607 C209 634 193 649 157 649 L61 649 C33 649 33 607 61 607 L121 607 L121 42 L61 42 C33 42 33 0 61 0 L223 0 C250 0 250 42 223 42 L163 42 L163 607 L169 607 L180 598 L439 17 C457 -23 491 -27 491 24 L491 607 L551 607 Z " />
<glyph glyph-name="O" unicode="O" horiz-adv-x="610" d="M545 326 C545 508 431 654 308 654 C186 654 65 502 65 326 C65 145 185 -5 308 -5 C430 -5 545 147 545 326 L545 326 Z M503 326 C503 171 413 36 308 36 C202 36 106 169 106 326 C106 478 203 613 308 613 C414 613 503 482 503 326 L503 326 Z " />
<glyph glyph-name="P" unicode="P" horiz-adv-x="610" d="M558 461 C558 585 441 649 333 649 L65 649 C37 649 37 607 65 607 L197 607 L197 42 L65 42 C37 42 37 0 65 0 L371 0 C398 0 398 42 371 42 L238 42 L238 286 C259 276 288 271 333 271 C458 271 558 335 558 461 L558 461 Z M516 461 C516 360 433 313 333 313 C282 313 253 323 238 335 L238 607 L333 607 C419 607 516 561 516 461 L516 461 Z " />
<glyph glyph-name="Q" unicode="Q" horiz-adv-x="610" d="M612 -13 C612 15 570 15 570 -13 C570 -85 541 -126 498 -126 C456 -126 428 -96 428 15 C428 25 428 34 427 43 C495 102 545 208 545 326 C545 508 431 654 308 654 C186 654 65 502 65 326 C65 145 185 -5 308 -5 C334 -5 361 1 386 15 C386 -133 441 -168 498 -168 C558 -168 612 -114 612 -13 L612 -13 Z M503 326 C503 233 470 146 421 92 C402 193 344 225 287 225 C233 225 182 188 149 150 C123 199 106 261 106 326 C106 478 203 613 308 613 C414 613 503 482 503 326 L503 326 Z M384 60 C360 45 334 36 308 36 C256 36 207 68 170 119 C196 150 244 184 287 184 C333 184 374 151 384 60 L384 60 Z " />
<glyph glyph-name="R" unicode="R" horiz-adv-x="610" d="M574 -5 C602 -5 602 36 574 36 L523 36 C500 36 462 46 457 83 L436 237 C432 264 420 292 389 313 C471 332 528 382 528 478 C528 602 412 649 303 649 L30 649 C2 649 2 607 30 607 L134 607 L134 42 L30 42 C2 42 2 0 30 0 L280 0 C308 0 308 42 280 42 L176 42 L176 305 L289 305 C355 305 390 265 395 231 L416 77 C426 5 484 -5 523 -5 L574 -5 Z M486 478 C486 377 403 346 303 346 L176 346 L176 607 L303 607 C389 607 486 578 486 478 L486 478 Z " />
<glyph glyph-name="S" unicode="S" horiz-adv-x="610" d="M551 171 C551 326 425 339 310 354 C213 366 125 378 125 473 C125 581 213 613 292 613 C396 613 463 538 463 457 C463 429 505 429 505 457 L505 641 C505 669 463 669 463 641 L463 572 L461 572 C430 624 357 654 292 654 C191 654 84 607 84 473 C84 340 193 326 302 313 C407 300 510 289 510 171 C510 81 411 36 326 36 C227 36 117 97 117 230 C117 266 73 269 72 238 L62 16 C61 -12 102 -14 103 13 L107 121 L111 121 C143 26 254 -5 326 -5 C431 -5 551 57 551 171 L551 171 Z " />
<glyph glyph-name="T" unicode="T" horiz-adv-x="610" d="M542 383 L518 607 C514 640 504 649 472 649 L133 649 C101 649 91 640 87 607 L63 383 C60 356 101 352 104 379 L129 607 L282 607 L282 42 L133 42 C105 42 105 0 133 0 L472 0 C500 0 500 42 472 42 L323 42 L323 607 L477 607 L501 379 C504 352 545 356 542 383 L542 383 Z " />
<glyph glyph-name="U" unicode="U" horiz-adv-x="610" d="M573 607 C601 607 601 649 573 649 L360 649 C333 649 333 607 360 607 L450 607 L450 222 C450 110 390 36 302 36 C204 36 157 130 157 222 L157 607 L247 607 C274 607 274 649 247 649 L34 649 C7 649 7 607 34 607 L115 607 L115 222 C115 82 198 -5 302 -5 C412 -5 492 82 492 222 L492 607 L573 607 Z " />
<glyph glyph-name="V" unicode="V" horiz-adv-x="610" d="M583 607 C610 607 610 649 583 649 L390 649 C362 649 362 607 390 607 L465 607 L307 108 L148 607 L224 607 C251 607 251 649 224 649 L31 649 C3 649 3 607 31 607 L104 607 L285 40 C303 -15 311 -15 329 40 L509 607 L583 607 Z " />
<glyph glyph-name="W" unicode="W" horiz-adv-x="610" d="M586 607 C613 607 613 649 586 649 L468 649 C440 649 440 607 468 607 L509 607 L429 95 L330 436 C317 479 298 478 286 436 L187 95 L107 607 L148 607 C176 607 176 649 148 649 L30 649 C2 649 2 607 30 607 L65 607 L159 2 C163 -23 195 -24 202 0 L308 362 L414 0 C421 -24 453 -23 457 2 L551 607 L586 607 Z " />
<glyph glyph-name="X" unicode="X" horiz-adv-x="610" d="M555 0 C583 0 583 42 555 42 L498 42 L322 350 L469 607 L548 607 C576 607 576 649 548 649 L359 649 C332 649 332 607 359 607 L420 607 L298 392 L176 607 L237 607 C265 607 265 649 237 649 L48 649 C20 649 20 607 48 607 L127 607 L274 350 L99 42 L42 42 C14 42 14 0 42 0 L225 0 C253 0 253 42 225 42 L147 42 L298 307 L449 42 L371 42 C343 42 343 0 371 0 L555 0 Z " />
<glyph glyph-name="Y" unicode="Y" horiz-adv-x="610" d="M591 607 C619 607 619 649 591 649 L392 649 C364 649 364 607 392 607 L465 607 L305 293 L146 607 L219 607 C247 607 247 649 219 649 L20 649 C-8 649 -8 607 20 607 L99 607 L285 244 L285 42 L136 42 C108 42 108 0 136 0 L475 0 C502 0 502 42 475 42 L326 42 L326 244 L511 607 L591 607 Z " />
<glyph glyph-name="Z" unicode="Z" horiz-adv-x="610" d="M531 228 C534 254 493 259 490 232 L472 42 L123 42 L508 607 C519 623 504 649 486 649 L175 649 C143 649 133 640 129 607 L111 449 C108 422 149 417 152 445 L170 607 L458 607 L73 42 C63 27 76 0 94 0 L467 0 C499 0 510 9 513 42 L531 228 Z " />
<glyph glyph-name="bracketleft" unicode="&#x5b;" horiz-adv-x="610" d="M465 -188 C493 -188 493 -146 465 -146 L222 -146 L222 661 L465 661 C493 661 493 703 465 703 L201 703 C187 703 180 696 180 682 L180 -167 C180 -181 187 -188 201 -188 L465 -188 Z " />
<glyph glyph-name="backslash" unicode="&#x5c;" horiz-adv-x="610" d="M542 -93 L103 764 C91 788 53 770 66 745 L505 -112 C517 -136 555 -118 542 -93 L542 -93 Z " />
<glyph glyph-name="bracketright" unicode="&#x5d;" horiz-adv-x="610" d="M460 -167 L460 682 C460 696 453 703 439 703 L175 703 C147 703 147 661 175 661 L418 661 L418 -146 L175 -146 C147 -146 147 -188 175 -188 L439 -188 C453 -188 460 -181 460 -167 L460 -167 Z " />
<glyph glyph-name="asciicircum" unicode="&#x5e;" horiz-adv-x="610" d="M460 513 L334 641 C311 665 299 664 276 641 L151 513 C131 493 162 464 181 484 L305 611 L431 484 C450 464 480 493 460 513 L460 513 Z " />
<glyph glyph-name="underscore" unicode="&#x5f;" horiz-adv-x="610" d="M610 -196 C638 -196 638 -155 610 -155 L0 -155 C-28 -155 -28 -196 0 -196 L610 -196 Z " />
<glyph glyph-name="grave" unicode="&#x60;" horiz-adv-x="610" d="M388 545 L289 735 C276 759 199 757 220 727 L356 530 C372 507 401 520 388 545 L388 545 Z " />
<glyph glyph-name="a" unicode="a" horiz-adv-x="610" d="M539 -5 C567 -5 567 36 539 36 C508 36 468 53 468 90 L468 337 C468 436 381 466 299 466 C199 466 123 439 123 337 C123 312 140 294 162 294 C180 294 199 309 199 332 C199 350 186 364 168 369 C185 416 238 425 299 425 C359 425 427 409 427 337 L427 301 C383 245 319 254 243 244 C162 233 89 203 89 107 C89 26 152 -5 223 -5 C305 -5 382 24 428 72 C435 20 475 -5 539 -5 L539 -5 Z M427 134 C376 61 298 36 223 36 C175 36 131 52 131 107 C131 183 184 197 250 207 C313 216 381 213 427 248 L427 134 Z " />
<glyph glyph-name="b" unicode="b" horiz-adv-x="610" d="M522 225 C522 347 454 466 324 466 C261 466 211 436 173 392 L173 607 C173 640 164 649 131 649 L67 649 C40 649 40 607 67 607 L131 607 L131 9 C131 -18 173 -18 173 9 L173 60 C208 24 261 -5 337 -5 C462 -5 522 112 522 225 L522 225 Z M481 225 C481 132 435 36 337 36 C246 36 197 89 173 130 L173 318 C204 376 253 425 324 425 C429 425 481 327 481 225 L481 225 Z " />
<glyph glyph-name="c" unicode="c" horiz-adv-x="610" d="M505 118 C514 144 474 158 465 131 C449 81 384 37 318 37 C220 37 135 113 135 236 C135 372 233 424 319 424 C375 424 415 403 435 376 C419 371 407 355 407 338 C407 313 424 296 449 296 C470 296 490 313 490 338 C490 405 402 466 319 466 C199 466 93 385 93 236 C93 99 189 -5 319 -5 C396 -5 485 55 505 118 L505 118 Z " />
<glyph glyph-name="d" unicode="d" horiz-adv-x="610" d="M543 0 C571 0 571 42 543 42 L448 42 L448 607 C448 640 439 649 407 649 L281 649 C253 649 253 607 281 607 L407 607 L407 392 C369 436 319 466 256 466 C125 466 57 347 57 225 C57 112 117 -5 242 -5 C319 -5 372 24 407 60 L407 21 C407 7 414 0 428 0 L543 0 Z M407 130 C383 89 334 36 242 36 C145 36 99 132 99 225 C99 327 150 425 256 425 C327 425 375 376 407 318 L407 130 Z " />
<glyph glyph-name="e" unicode="e" horiz-adv-x="610" d="M510 286 C492 393 397 466 301 466 C191 466 88 378 88 236 C88 107 183 -5 301 -5 C392 -5 466 53 505 118 C519 142 483 163 469 139 C437 85 377 37 301 37 C210 37 130 123 130 244 L472 244 C505 244 515 254 510 286 L510 286 Z M466 286 L136 286 C155 374 226 424 301 424 C376 424 447 373 466 286 L466 286 Z " />
<glyph glyph-name="f" unicode="f" horiz-adv-x="610" d="M541 539 C541 600 480 654 391 654 C257 654 220 593 219 461 L85 461 C58 461 58 419 85 419 L219 419 L219 42 L69 42 C41 42 41 0 69 0 L434 0 C461 0 461 42 434 42 L260 42 L260 419 L395 419 C423 419 423 461 395 461 L260 461 C261 563 287 613 391 613 C434 613 465 598 483 578 C469 571 458 558 458 539 C458 514 478 498 499 498 C518 498 541 508 541 539 L541 539 Z " />
<glyph glyph-name="g" unicode="g" horiz-adv-x="610" d="M560 390 C560 425 531 466 457 466 C415 466 385 447 364 426 C333 452 292 466 250 466 C152 466 83 393 83 315 C83 285 94 253 114 228 C89 207 67 175 67 144 C67 107 91 82 114 64 C83 39 62 2 62 -42 C62 -130 156 -188 248 -188 L354 -188 C446 -188 542 -134 542 -42 C542 52 448 110 354 110 L248 110 C214 110 181 103 152 89 C133 98 109 115 109 144 C109 165 125 185 143 199 C171 176 208 162 250 162 C354 162 419 238 419 315 C419 346 409 373 393 396 C407 411 427 425 457 425 C471 425 483 420 493 413 C487 407 480 397 480 382 C480 357 500 342 523 342 C546 342 560 364 560 390 L560 390 Z M500 -42 C500 -112 424 -146 354 -146 L248 -146 C178 -146 104 -108 104 -42 C104 28 177 68 248 68 L354 68 C425 68 500 29 500 -42 L500 -42 Z M377 315 C377 258 327 204 250 204 C178 204 125 257 125 315 C125 373 178 425 250 425 C314 425 377 380 377 315 L377 315 Z " />
<glyph glyph-name="h" unicode="h" horiz-adv-x="610" d="M574 0 C602 0 602 42 574 42 L491 42 L491 298 C491 404 439 466 344 466 C281 466 216 407 176 340 L176 607 C176 642 167 649 134 649 L54 649 C26 649 26 607 54 607 L134 607 L134 42 L54 42 C26 42 26 0 54 0 L259 0 C287 0 287 42 259 42 L176 42 L176 274 C220 346 278 425 344 425 C415 425 449 376 449 298 L449 42 L369 42 C341 42 341 0 369 0 L574 0 Z " />
<glyph glyph-name="i" unicode="i" horiz-adv-x="610" d="M530 0 C558 0 558 42 530 42 L347 42 L347 440 C347 454 340 461 326 461 L130 461 C102 461 102 419 130 419 L306 419 L306 42 L129 42 C101 42 101 0 129 0 L530 0 Z M361 607 C361 634 339 656 312 656 C285 656 263 634 263 607 C263 580 285 558 312 558 C339 558 361 580 361 607 L361 607 Z " />
<glyph glyph-name="j" unicode="j" horiz-adv-x="610" d="M438 37 L438 440 C438 454 431 461 417 461 L209 461 C181 461 181 419 209 419 L396 419 L396 37 C396 -63 353 -146 268 -146 C183 -146 148 -101 148 -41 C148 -27 150 -14 154 0 C187 -11 212 8 212 37 C212 59 199 74 168 74 C133 74 105 21 105 -38 C105 -111 144 -188 268 -188 C378 -188 438 -85 438 37 L438 37 Z M452 607 C452 634 429 656 402 656 C375 656 354 634 354 607 C354 580 375 558 402 558 C429 558 452 580 452 607 L452 607 Z " />
<glyph glyph-name="k" unicode="k" horiz-adv-x="610" d="M547 0 C575 0 575 42 547 42 L462 42 L308 289 L460 419 L543 419 C571 419 571 461 543 461 L353 461 C325 461 325 419 353 419 L401 419 L172 222 L172 628 C172 642 166 649 151 649 L38 649 C11 649 11 607 38 607 L131 607 L131 42 L37 42 C9 42 9 0 37 0 L250 0 C278 0 278 42 250 42 L172 42 L172 171 L276 261 L413 42 L344 42 C316 42 316 0 344 0 L547 0 Z " />
<glyph glyph-name="l" unicode="l" horiz-adv-x="610" d="M515 0 C542 0 542 42 515 42 L332 42 L332 628 C332 642 325 649 311 649 L114 649 C86 649 86 607 114 607 L290 607 L290 42 L113 42 C85 42 85 0 113 0 L515 0 Z " />
<glyph glyph-name="m" unicode="m" horiz-adv-x="610" d="M563 0 C591 0 591 42 563 42 L524 42 L524 351 C524 421 498 466 428 466 C387 466 351 430 327 388 C318 437 291 466 233 466 C192 466 161 433 136 393 L136 419 C136 454 127 461 94 461 L47 461 C20 461 20 419 47 419 L94 419 L94 42 L47 42 C20 42 20 0 47 0 L186 0 C213 0 213 42 186 42 L136 42 L136 327 C163 383 200 425 233 425 C277 425 289 395 289 351 L289 42 L252 42 C225 42 225 0 252 0 L369 0 C396 0 396 42 369 42 L330 42 L330 327 C358 384 394 425 428 425 C472 425 482 395 482 351 L482 42 L446 42 C419 42 419 0 446 0 L563 0 Z " />
<glyph glyph-name="n" unicode="n" horiz-adv-x="610" d="M574 0 C602 0 602 42 574 42 L491 42 L491 298 C491 404 439 466 344 466 C281 466 216 407 176 340 L176 419 C176 454 167 461 134 461 L54 461 C26 461 26 419 54 419 L134 419 L134 42 L54 42 C26 42 26 0 54 0 L259 0 C287 0 287 42 259 42 L176 42 L176 274 C220 346 278 425 344 425 C415 425 449 376 449 298 L449 42 L369 42 C341 42 341 0 369 0 L574 0 Z " />
<glyph glyph-name="o" unicode="o" horiz-adv-x="610" d="M519 236 C519 379 416 466 306 466 C196 466 93 378 93 236 C93 107 188 -5 306 -5 C419 -5 519 101 519 236 L519 236 Z M477 236 C477 128 400 37 306 37 C218 37 135 121 135 236 C135 354 218 424 306 424 C395 424 477 353 477 236 L477 236 Z " />
<glyph glyph-name="p" unicode="p" horiz-adv-x="610" d="M536 236 C536 349 476 466 351 466 C274 466 221 437 187 401 L187 440 C187 454 179 461 166 461 L50 461 C22 461 22 419 50 419 L145 419 L145 -146 L50 -146 C22 -146 22 -188 50 -188 L312 -188 C339 -188 339 -146 312 -146 L187 -146 L187 69 C224 25 274 -5 337 -5 C468 -5 536 114 536 236 L536 236 Z M494 236 C494 134 442 36 337 36 C266 36 217 85 187 143 L187 331 C210 372 259 425 351 425 C448 425 494 329 494 236 L494 236 Z " />
<glyph glyph-name="q" unicode="q" horiz-adv-x="610" d="M539 -188 C566 -188 566 -146 539 -146 L444 -146 L444 419 L539 419 C566 419 566 461 539 461 L423 461 C409 461 402 454 402 440 L402 401 C367 437 314 466 238 466 C113 466 53 349 53 236 C53 114 121 -5 251 -5 C314 -5 364 25 402 69 L402 -146 L277 -146 C249 -146 249 -188 277 -188 L539 -188 Z M402 143 C371 85 322 36 251 36 C146 36 94 134 94 236 C94 329 140 425 238 425 C330 425 378 372 402 331 L402 143 Z " />
<glyph glyph-name="r" unicode="r" horiz-adv-x="610" d="M572 340 C572 432 507 466 437 466 C366 466 303 443 254 380 L254 419 C254 458 252 461 212 461 L70 461 C42 461 42 419 70 419 L212 419 L212 42 L70 42 C42 42 42 0 70 0 L418 0 C446 0 446 42 418 42 L254 42 L254 320 C291 372 335 425 437 425 C474 425 510 412 524 377 C503 375 488 359 488 335 C488 308 506 293 531 293 C555 293 572 311 572 340 L572 340 Z " />
<glyph glyph-name="s" unicode="s" horiz-adv-x="610" d="M507 121 C507 228 412 245 319 257 C231 268 145 274 145 348 C145 409 219 425 289 425 C370 425 436 399 436 321 C436 293 478 293 478 321 L478 449 C478 477 436 477 436 449 L436 421 C400 450 346 466 289 466 C195 466 103 431 103 348 C103 236 217 228 317 216 C396 206 466 193 466 121 C466 50 393 36 311 36 C277 36 134 59 134 145 C134 168 97 174 94 147 L78 12 C74 -18 115 -19 119 5 L127 59 C175 22 249 -5 311 -5 C419 -5 507 26 507 121 L507 121 Z " />
<glyph glyph-name="t" unicode="t" horiz-adv-x="610" d="M491 198 C491 226 450 226 450 198 C450 123 415 36 342 36 C269 36 242 89 242 215 L242 419 L491 419 C519 419 519 461 491 461 L242 461 L242 632 C242 660 201 660 201 632 L201 461 L81 461 C53 461 53 419 81 419 L201 419 L201 215 C201 53 231 -5 342 -5 C437 -5 491 101 491 198 L491 198 Z " />
<glyph glyph-name="u" unicode="u" horiz-adv-x="610" d="M556 0 C584 0 584 42 556 42 L476 42 L476 419 C476 461 476 461 434 461 L351 461 C323 461 323 419 351 419 L434 419 L434 187 C391 115 332 36 266 36 C196 36 161 85 161 163 L161 419 C161 461 161 461 119 461 L36 461 C8 461 8 419 36 419 L119 419 L119 163 C119 57 171 -5 266 -5 C330 -5 395 54 434 121 L434 42 C434 7 442 0 476 0 L556 0 Z " />
<glyph glyph-name="v" unicode="v" horiz-adv-x="610" d="M574 419 C602 419 602 461 574 461 L367 461 C339 461 339 419 367 419 L454 419 L306 39 L159 419 L246 419 C274 419 274 461 246 461 L40 461 C12 461 12 419 40 419 L114 419 L273 10 C279 -6 295 -10 306 -10 C318 -10 333 -7 340 10 L499 419 L574 419 Z " />
<glyph glyph-name="w" unicode="w" horiz-adv-x="610" d="M574 419 C601 419 601 461 574 461 L454 461 C426 461 426 419 454 419 L489 419 L412 81 L327 327 C313 369 298 369 283 327 L198 81 L121 419 L156 419 C184 419 184 461 156 461 L37 461 C9 461 9 419 37 419 L78 419 L173 6 C179 -20 205 -20 213 4 L305 265 L397 4 C405 -20 431 -20 437 6 L533 419 L574 419 Z " />
<glyph glyph-name="x" unicode="x" horiz-adv-x="610" d="M560 0 C587 0 587 42 560 42 L485 42 L335 232 L482 419 L556 419 C584 419 584 461 556 461 L366 461 C338 461 338 419 366 419 L429 419 L309 266 L189 419 L252 419 C280 419 280 461 252 461 L62 461 C34 461 34 419 62 419 L136 419 L282 232 L132 42 L58 42 C30 42 30 0 58 0 L261 0 C289 0 289 42 261 42 L186 42 L309 199 L432 42 L356 42 C329 42 329 0 356 0 L560 0 Z " />
<glyph glyph-name="y" unicode="y" horiz-adv-x="610" d="M572 419 C600 419 600 461 572 461 L387 461 C359 461 359 419 387 419 L453 419 L341 125 L199 419 L274 419 C302 419 302 461 274 461 L68 461 C40 461 40 419 68 419 L152 419 L321 72 L293 0 C258 -91 229 -146 162 -146 C114 -146 74 -119 74 -79 C74 -69 76 -60 80 -52 C88 -61 97 -65 108 -65 C132 -65 147 -48 147 -27 C147 -4 127 12 108 12 C60 12 29 -33 29 -82 C29 -134 69 -188 162 -188 C246 -188 288 -129 332 -14 L497 419 L572 419 Z " />
<glyph glyph-name="z" unicode="z" horiz-adv-x="610" d="M517 181 C521 208 480 213 476 187 L456 42 L160 42 L475 419 C496 445 490 461 455 461 L174 461 C142 461 132 452 129 419 L119 316 C116 289 157 286 160 313 L170 419 L420 419 L105 42 C85 19 90 0 125 0 L450 0 C475 0 493 9 498 42 L517 181 Z " />
<glyph glyph-name="braceleft" unicode="&#x7b;" horiz-adv-x="610" d="M452 -175 C479 -175 479 -134 452 -134 C328 -134 296 -62 296 48 C296 140 281 215 222 250 C281 285 296 360 296 452 C296 562 328 633 452 633 C479 633 479 675 452 675 C298 675 254 588 254 452 C254 351 239 271 132 271 C107 271 108 229 132 229 C239 229 254 149 254 48 C254 -88 298 -175 452 -175 L452 -175 Z " />
<glyph glyph-name="bar" unicode="&#x7c;" horiz-adv-x="610" d="M326 -150 L326 704 C326 731 284 731 284 704 L284 -150 C284 -178 326 -178 326 -150 L326 -150 Z " />
<glyph glyph-name="braceright" unicode="&#x7d;" horiz-adv-x="610" d="M464 229 C488 229 489 271 464 271 C357 271 342 351 342 452 C342 588 298 675 145 675 C117 675 117 633 145 633 C268 633 300 562 300 452 C300 360 315 285 375 250 C315 215 300 140 300 48 C300 -62 268 -134 145 -134 C117 -134 117 -175 145 -175 C298 -175 342 -88 342 48 C342 149 357 229 464 229 L464 229 Z " />
<glyph glyph-name="asciitilde" unicode="&#x7e;" horiz-adv-x="610" d="M487 309 C495 335 455 348 447 321 C435 281 411 257 366 257 C295 257 305 327 204 327 C136 327 113 295 93 245 C82 219 121 203 131 229 C144 263 159 286 204 286 C283 286 274 216 366 216 C433 216 469 250 487 309 L487 309 Z " />
<glyph glyph-name="exclamdown" unicode="&#xa1;" horiz-adv-x="610" d="M350 -83 L324 147 L324 311 C324 339 282 339 282 311 L282 147 L256 -83 C246 -171 359 -165 350 -83 L350 -83 Z M354 456 C354 484 332 507 303 507 C275 507 252 484 252 456 C252 428 275 405 303 405 C332 405 354 428 354 456 L354 456 Z " />
<glyph glyph-name="cent" unicode="&#xa2;" horiz-adv-x="610" d="M465 163 C473 189 435 203 426 176 C413 138 363 104 313 104 C235 104 170 164 170 259 C170 366 246 405 313 405 C353 405 383 392 399 373 C387 367 379 354 379 341 C379 319 395 303 417 303 C436 303 454 319 454 341 C454 393 389 441 325 447 L325 527 C325 555 283 555 283 527 L283 445 C198 433 128 368 128 259 C128 158 192 78 283 64 L283 -30 C283 -58 325 -58 325 -30 L325 63 C384 68 449 114 465 163 L465 163 Z " />
<glyph glyph-name="sterling" unicode="&#xa3;" horiz-adv-x="610" d="M571 142 C579 168 539 179 531 152 C515 97 487 36 404 36 C324 36 301 101 249 142 C249 162 245 189 237 223 L211 339 L289 339 C316 339 316 380 289 380 L201 380 C194 413 183 442 183 498 C183 567 266 611 336 611 C407 611 454 566 454 521 C454 494 495 494 495 521 C495 584 435 652 336 652 C244 652 141 588 141 498 C141 449 149 424 158 380 L82 380 C54 380 54 339 82 339 L167 339 L196 214 C200 198 203 185 204 172 C183 183 159 189 130 189 C67 189 28 138 28 86 C28 36 62 -12 143 -12 C187 -12 242 28 249 84 C289 42 328 -5 404 -5 C511 -5 550 69 571 142 L571 142 Z M208 94 C208 57 171 29 143 29 C92 29 70 58 70 86 C70 117 93 147 130 147 C162 147 187 137 208 122 L208 94 Z " />
<glyph glyph-name="currency" unicode="&#xa4;" horiz-adv-x="610" d="M539 269 C539 322 521 375 485 417 L534 466 C539 471 541 476 541 481 C541 492 531 502 520 502 C515 502 510 500 505 495 L456 446 C413 482 360 501 307 501 C254 501 201 482 159 446 L109 496 C104 500 100 502 95 502 C84 502 73 492 73 481 C73 476 75 471 80 466 L129 417 C93 375 75 322 75 269 C75 216 93 163 129 120 L80 70 C75 65 73 60 73 55 C73 44 83 34 94 34 C99 34 104 36 109 41 L159 90 C202 54 254 37 307 37 C360 37 413 54 456 90 L505 42 C510 37 515 35 520 35 C531 35 541 45 541 56 C541 61 539 66 534 71 L485 120 C522 164 539 216 539 269 L539 269 Z M497 269 C497 167 410 78 307 78 C203 78 117 166 117 269 C117 372 204 459 307 459 C410 459 497 371 497 269 L497 269 Z " />
<glyph glyph-name="yen" unicode="&#xa5;" horiz-adv-x="610" d="M591 607 C619 607 619 649 591 649 L392 649 C364 649 364 607 392 607 L465 607 L305 293 L146 607 L219 607 C247 607 247 649 219 649 L20 649 C-8 649 -8 607 20 607 L99 607 L246 319 L103 319 C75 319 75 277 103 277 L268 277 L285 244 L285 213 L103 213 C75 213 75 172 103 172 L285 172 L285 42 L136 42 C108 42 108 0 136 0 L475 0 C502 0 502 42 475 42 L326 42 L326 172 L520 172 C547 172 547 213 520 213 L326 213 L326 244 L343 277 L520 277 C547 277 547 319 520 319 L364 319 L511 607 L591 607 Z " />
<glyph glyph-name="brokenbar" unicode="&#xa6;" horiz-adv-x="610" d="M327 482 L327 996 L285 996 L285 482 L327 482 Z M327 -232 L327 281 L285 281 L285 -232 L327 -232 Z " />
<glyph glyph-name="section" unicode="&#xa7;" horiz-adv-x="610" d="M530 227 C530 459 188 433 188 615 C188 680 240 707 309 707 C380 707 445 682 454 616 C450 617 446 617 442 617 C419 617 397 598 397 573 C397 546 419 527 442 527 C474 527 497 561 497 598 C497 703 412 749 309 749 C213 749 146 706 146 615 C146 578 155 548 171 523 C123 506 85 454 85 399 C85 167 428 193 428 12 C428 -54 375 -81 307 -81 C235 -81 171 -56 162 11 C166 9 170 9 174 9 C196 9 218 28 218 53 C218 80 196 99 174 99 C142 99 119 65 119 28 C119 -77 204 -123 307 -123 C402 -123 470 -79 470 12 C470 48 460 78 445 103 C493 121 530 172 530 227 L530 227 Z M489 227 C489 184 456 142 416 138 C319 232 127 251 127 399 C127 442 160 484 200 488 C297 395 489 375 489 227 L489 227 Z " />
<glyph glyph-name="dieresis" unicode="&#xa8;" horiz-adv-x="610" d="M218 618 C218 643 198 664 173 664 C148 664 127 643 127 618 C127 593 148 572 173 572 C198 572 218 593 218 618 L218 618 Z M484 618 C484 643 464 664 439 664 C414 664 394 643 394 618 C394 593 414 572 439 572 C464 572 484 593 484 618 L484 618 Z " />
<glyph glyph-name="copyright" unicode="&#xa9;" horiz-adv-x="610" d="M602 308 C602 473 467 607 302 607 C136 607 3 473 3 308 C3 143 136 8 302 8 C467 8 602 143 602 308 L602 308 Z M560 308 C560 166 444 50 302 50 C160 50 44 166 44 308 C44 450 160 565 302 565 C444 565 560 450 560 308 L560 308 Z M423 465 C426 493 385 497 382 470 L380 453 C360 475 332 488 299 488 C213 488 155 403 155 306 C155 219 204 122 299 122 C367 122 418 189 418 236 C418 264 376 264 376 236 C376 207 342 163 299 163 C230 163 197 240 197 306 C197 379 236 446 299 446 C337 446 363 418 373 382 L370 355 C367 328 408 324 411 351 L423 465 Z " />
<glyph glyph-name="ordfeminine" unicode="&#xaa;" horiz-adv-x="610" d="M451 342 C478 342 479 383 451 383 C435 383 414 391 414 409 L414 565 C414 633 355 654 300 654 C231 654 181 633 181 565 C181 545 195 531 213 531 C228 531 244 543 244 562 C244 574 237 583 228 589 C239 610 268 613 300 613 C342 613 372 609 372 548 C333 487 160 554 160 420 C160 364 201 342 252 342 C300 342 346 358 376 383 C386 355 412 342 451 342 L451 342 Z M372 441 C342 397 297 383 252 383 C226 383 201 391 201 420 C201 500 317 458 372 501 L372 441 Z M447 224 C475 224 475 266 447 266 L166 266 C138 266 138 224 166 224 L447 224 Z " />
<glyph glyph-name="guillemotleft" unicode="&#xab;" horiz-adv-x="610" d="M457 147 L346 258 L457 368 C477 388 447 417 427 398 L301 273 C291 263 291 253 301 243 L427 118 C447 99 477 127 457 147 L457 147 Z M279 147 L168 258 L279 368 C299 388 269 418 249 398 L124 273 C114 263 114 253 124 243 L249 118 C269 98 299 127 279 147 L279 147 Z " />
<glyph glyph-name="logicalnot" unicode="&#xac;" horiz-adv-x="610" d="M505 108 L505 238 C505 271 496 280 464 280 L102 280 C74 280 74 238 102 238 L464 238 L464 108 C464 81 505 81 505 108 L505 108 Z " />
<glyph glyph-name="registered" unicode="&#xae;" horiz-adv-x="610" d="M602 464 C602 629 467 763 302 763 C136 763 3 629 3 464 C3 299 136 165 302 165 C467 165 602 299 602 464 L602 464 Z M560 464 C560 322 444 206 302 206 C160 206 44 322 44 464 C44 606 160 722 302 722 C444 722 560 606 560 464 L560 464 Z M448 299 C476 299 476 341 448 341 L432 341 C413 341 404 347 400 370 L391 423 C388 438 383 447 375 452 C412 467 442 500 442 542 C442 606 383 648 320 648 L179 648 C151 648 151 606 179 606 L209 606 L209 341 L179 341 C151 341 151 299 179 299 L284 299 C311 299 311 341 284 341 L251 341 L251 440 L320 440 C340 440 348 435 351 417 L360 365 C369 312 384 299 432 299 L448 299 Z M401 543 C401 502 359 482 320 482 L251 482 L251 606 L320 606 C360 606 401 583 401 543 L401 543 Z " />
<glyph glyph-name="macron" unicode="&#xaf;" horiz-adv-x="610" d="M466 607 C494 607 494 649 466 649 L144 649 C117 649 117 607 144 607 L466 607 Z " />
<glyph glyph-name="degree" unicode="&#xb0;" horiz-adv-x="610" d="M473 509 C473 603 396 679 302 679 C208 679 132 603 132 509 C132 416 208 339 302 339 C396 339 473 416 473 509 L473 509 Z M431 509 C431 439 373 380 302 380 C232 380 174 439 174 509 C174 580 232 637 302 637 C373 637 431 580 431 509 L431 509 Z " />
<glyph glyph-name="plusminus" unicode="&#xb1;" horiz-adv-x="610" d="M532 306 C560 306 560 348 532 348 L320 348 L320 499 C320 527 278 527 278 499 L278 348 L66 348 C38 348 38 306 66 306 L278 306 L278 155 C278 127 320 127 320 155 L320 306 L532 306 Z M532 45 C560 45 560 87 532 87 L66 87 C38 87 38 45 66 45 L532 45 Z " />
<glyph glyph-name="twosuperior" unicode="&#xb2;" horiz-adv-x="610" d="M445 662 C445 728 396 788 315 788 C218 788 169 716 169 658 C169 629 211 629 211 658 C211 698 247 747 315 747 C369 747 404 707 404 662 C404 583 326 587 265 551 C220 524 181 485 167 396 C163 369 171 360 198 360 L424 360 C452 360 452 402 424 402 L210 402 C222 464 252 495 286 515 C361 558 445 567 445 662 L445 662 Z " />
<glyph glyph-name="threesuperior" unicode="&#xb3;" horiz-adv-x="610" d="M443 514 C443 589 386 624 316 624 C305 624 296 621 289 617 L407 747 C432 774 425 786 390 786 L185 786 C158 786 158 744 185 744 L351 744 L200 578 C180 556 201 526 226 547 C249 566 272 583 316 583 C362 583 401 563 401 514 C401 403 248 335 170 320 C144 315 151 273 179 279 C269 297 443 384 443 514 L443 514 Z " />
<glyph glyph-name="acute" unicode="&#xb4;" horiz-adv-x="610" d="M407 728 C427 756 354 759 341 735 L247 554 C235 530 262 518 277 540 L407 728 Z " />
<glyph glyph-name="mu" unicode="&#xb5;" horiz-adv-x="610" d="M577 96 C581 123 540 129 536 102 C531 69 516 36 488 36 C461 36 451 70 451 99 L451 445 C451 459 441 466 430 466 C420 466 409 459 409 445 L409 170 C409 96 328 34 280 34 C225 34 153 77 153 156 L153 445 C153 459 143 466 132 466 C122 466 111 459 111 445 L111 -21 C111 -87 121 -120 144 -159 C159 -183 194 -162 180 -138 C160 -104 153 -77 153 -21 L153 57 C188 18 230 -5 280 -5 C326 -5 372 28 411 77 C418 33 447 -5 488 -5 C534 -5 569 42 577 96 L577 96 Z " />
<glyph glyph-name="paragraph" unicode="&#xb6;" horiz-adv-x="610" d="M492 607 C520 607 520 649 492 649 L247 649 C144 649 59 554 59 450 C59 345 148 254 247 254 L247 -4 C247 -32 289 -32 289 -4 L289 607 L388 607 L388 -4 C388 -32 430 -32 430 -4 L430 607 L492 607 Z M247 295 C173 295 101 367 101 450 C101 527 166 607 247 607 L247 295 Z " />
<glyph glyph-name="periodcentered" unicode="&#xb7;" horiz-adv-x="610" d="M375 261 C375 300 343 331 305 331 C266 331 235 300 235 261 C235 222 266 191 305 191 C343 191 375 222 375 261 L375 261 Z " />
<glyph glyph-name="cedilla" unicode="&#xb8;" horiz-adv-x="610" d="M399 -116 C399 -66 367 -46 302 -46 L328 17 L283 17 L256 -46 C247 -67 261 -88 285 -88 L297 -88 C337 -88 358 -91 358 -116 C358 -142 337 -146 297 -146 L252 -146 C225 -146 225 -188 252 -188 L297 -188 C365 -188 399 -161 399 -116 L399 -116 Z " />
<glyph glyph-name="onesuperior" unicode="&#xb9;" horiz-adv-x="610" d="M374 375 L374 757 C374 791 354 795 332 777 L143 623 C122 606 148 573 170 591 L332 723 L332 375 C332 348 374 348 374 375 L374 375 Z " />
<glyph glyph-name="ordmasculine" unicode="&#xba;" horiz-adv-x="610" d="M473 498 C473 584 402 654 316 654 C229 654 159 584 159 498 C159 411 229 340 316 340 C402 340 473 411 473 498 L473 498 Z M432 498 C432 434 380 382 316 382 C252 382 201 434 201 498 C201 562 252 613 316 613 C380 613 432 562 432 498 L432 498 Z M457 225 C485 225 485 267 457 267 L175 267 C147 267 147 225 175 225 L457 225 Z " />
<glyph glyph-name="guillemotright" unicode="&#xbb;" horiz-adv-x="610" d="M307 243 C317 253 317 263 307 273 L181 398 C161 417 131 388 151 368 L262 258 L151 147 C131 127 161 99 181 118 L307 243 Z M484 243 C494 253 494 263 484 273 L359 398 C339 418 309 388 329 368 L439 258 L329 147 C309 127 339 98 359 118 L484 243 Z " />
<glyph glyph-name="onequarter" unicode="&#xbc;" horiz-adv-x="610" d="M561 718 C576 741 542 764 526 741 L5 -39 C-10 -62 24 -85 40 -62 L561 718 Z M645 74 C672 74 672 117 645 117 L562 117 L562 299 C562 328 520 328 520 299 L520 117 L378 117 C413 175 455 279 455 360 C455 389 413 389 413 360 C413 269 355 146 322 110 C306 93 313 74 337 74 L520 74 L520 -29 C520 -57 562 -57 562 -29 L562 74 L645 74 Z M187 338 L187 724 C187 752 165 756 148 742 L-41 587 C-62 570 -35 537 -14 555 L146 686 L146 338 C146 311 187 311 187 338 L187 338 Z " />
<glyph glyph-name="onehalf" unicode="&#xbd;" horiz-adv-x="610" d="M641 260 C641 326 591 387 511 387 C414 387 365 314 365 256 C365 228 407 228 407 256 C407 297 442 345 511 345 C564 345 600 305 600 260 C600 182 521 185 460 149 C416 123 376 83 362 -6 C358 -33 367 -41 394 -41 L620 -41 C648 -41 648 0 620 0 L406 0 C417 62 447 94 481 114 C556 158 641 166 641 260 L641 260 Z M562 718 C577 740 542 764 527 741 L5 -39 C-10 -61 25 -85 40 -62 L562 718 Z M188 338 L188 724 C188 752 166 757 148 742 L-40 587 C-61 570 -34 537 -13 555 L146 686 L146 338 C146 311 188 311 188 338 L188 338 Z " />
<glyph glyph-name="threequarters" unicode="&#xbe;" horiz-adv-x="610" d="M287 491 C287 566 229 601 160 601 C148 601 140 598 132 594 L250 724 C275 752 269 763 233 763 L28 763 C1 763 1 721 28 721 L194 721 L43 555 C24 534 44 503 69 524 C93 543 115 560 160 560 C205 560 245 540 245 491 C245 380 91 312 14 297 C-13 292 -5 250 22 256 C113 274 287 362 287 491 L287 491 Z M592 718 C607 741 573 763 558 741 L36 -39 C21 -62 55 -84 70 -62 L592 718 Z M684 74 C711 74 711 117 684 117 L601 117 L601 299 C601 328 559 328 559 299 L559 117 L417 117 C453 175 494 279 494 360 C494 389 452 389 452 360 C452 269 395 146 362 110 C346 93 353 74 376 74 L559 74 L559 -29 C559 -57 601 -57 601 -29 L601 74 L684 74 Z " />
<glyph glyph-name="questiondown" unicode="&#xbf;" horiz-adv-x="610" d="M496 3 C496 44 463 83 429 83 C405 83 387 64 387 42 C387 20 405 0 429 0 C438 0 447 3 454 8 C454 -95 382 -114 306 -114 C233 -114 158 -86 158 -7 C158 92 326 101 326 231 L326 311 C326 339 285 339 285 311 L285 231 C285 127 117 118 117 -7 C117 -112 209 -155 306 -155 C408 -155 496 -121 496 3 L496 3 Z M355 458 C355 485 334 507 307 507 C281 507 259 485 259 458 C259 432 281 411 307 411 C334 411 355 432 355 458 L355 458 Z " />
<glyph glyph-name="Agrave" unicode="&#xc0;" horiz-adv-x="610" d="M580 0 C607 0 607 42 580 42 L506 42 L326 609 C309 664 299 664 282 609 L102 42 L28 42 C0 42 0 0 28 0 L221 0 C249 0 249 42 221 42 L146 42 L189 180 L419 180 L462 42 L387 42 C359 42 359 0 387 0 L580 0 Z M405 221 L203 221 L304 541 L405 221 Z M354 685 L255 875 C242 899 165 897 186 867 L322 670 C338 647 367 660 354 685 L354 685 Z " />
<glyph glyph-name="Aacute" unicode="&#xc1;" horiz-adv-x="610" d="M580 0 C607 0 607 42 580 42 L506 42 L326 609 C309 664 299 664 282 609 L102 42 L28 42 C0 42 0 0 28 0 L221 0 C249 0 249 42 221 42 L146 42 L189 180 L419 180 L462 42 L387 42 C359 42 359 0 387 0 L580 0 Z M405 221 L203 221 L304 541 L405 221 Z M418 861 C438 889 365 892 352 868 L258 687 C246 663 273 651 288 673 L418 861 Z " />
<glyph glyph-name="Acircumflex" unicode="&#xc2;" horiz-adv-x="610" d="M580 0 C607 0 607 42 580 42 L506 42 L326 609 C309 664 299 664 282 609 L102 42 L28 42 C0 42 0 0 28 0 L221 0 C249 0 249 42 221 42 L146 42 L189 180 L419 180 L462 42 L387 42 C359 42 359 0 387 0 L580 0 Z M405 221 L203 221 L304 541 L405 221 Z M460 733 L334 861 C311 884 298 884 276 861 L151 733 C131 713 162 684 181 704 L305 831 L431 704 C450 684 480 713 460 733 L460 733 Z " />
<glyph glyph-name="Atilde" unicode="&#xc3;" horiz-adv-x="610" d="M580 0 C607 0 607 42 580 42 L506 42 L326 609 C309 664 299 664 282 609 L102 42 L28 42 C0 42 0 0 28 0 L221 0 C249 0 249 42 221 42 L146 42 L189 180 L419 180 L462 42 L387 42 C359 42 359 0 387 0 L580 0 Z M405 221 L203 221 L304 541 L405 221 Z M507 835 C515 862 475 874 467 847 C455 807 431 784 385 784 C316 784 324 853 224 853 C156 853 133 821 113 771 C102 745 142 729 152 755 C166 789 179 812 224 812 C303 812 294 742 385 742 C453 742 489 776 507 835 L507 835 Z " />
<glyph glyph-name="Adieresis" unicode="&#xc4;" horiz-adv-x="610" d="M580 0 C607 0 607 42 580 42 L506 42 L326 609 C309 664 299 664 282 609 L102 42 L28 42 C0 42 0 0 28 0 L221 0 C249 0 249 42 221 42 L146 42 L189 180 L419 180 L462 42 L387 42 C359 42 359 0 387 0 L580 0 Z M405 221 L203 221 L304 541 L405 221 Z M218 765 C218 790 198 811 173 811 C148 811 127 790 127 765 C127 740 148 719 173 719 C198 719 218 740 218 765 L218 765 Z M484 765 C484 790 464 811 439 811 C414 811 394 790 394 765 C394 740 414 719 439 719 C464 719 484 740 484 765 L484 765 Z " />
<glyph glyph-name="Aring" unicode="&#xc5;" horiz-adv-x="610" d="M580 0 C607 0 607 42 580 42 L506 42 L326 609 C309 664 299 664 282 609 L102 42 L28 42 C0 42 0 0 28 0 L221 0 C249 0 249 42 221 42 L146 42 L189 180 L419 180 L462 42 L387 42 C359 42 359 0 387 0 L580 0 Z M411 783 C411 840 364 884 307 884 C250 884 206 840 206 783 C206 726 250 680 307 680 C364 680 411 726 411 783 L411 783 Z M405 221 L203 221 L304 541 L405 221 Z M375 783 C375 747 343 716 307 716 C271 716 242 747 242 783 C242 819 271 848 307 848 C343 848 375 819 375 783 L375 783 Z " />
<glyph glyph-name="AE" unicode="&#xc6;" horiz-adv-x="610" d="M619 445 L587 607 C580 640 569 649 536 649 L176 649 C148 649 148 607 176 607 L242 607 L-2 42 L-62 42 C-90 42 -90 0 -62 0 L120 0 C147 0 147 42 120 42 L42 42 L113 203 L292 203 L292 42 L221 42 C193 42 193 0 221 0 L530 0 C563 0 574 9 580 42 L616 228 C621 254 580 262 575 235 L538 42 L334 42 L334 327 L443 327 L443 239 C443 211 485 211 485 239 L485 456 C485 484 443 484 443 456 L443 368 L334 368 L334 607 L544 607 L578 437 C583 410 625 417 619 445 L619 445 Z M292 245 L130 245 L287 607 L292 607 L292 245 Z " />
<glyph glyph-name="Ccedilla" unicode="&#xc7;" horiz-adv-x="610" d="M520 632 C523 659 482 664 479 636 L471 562 C436 617 378 654 308 654 C165 654 60 495 60 325 C60 188 137 28 266 -1 L246 -46 C237 -67 250 -88 274 -88 L287 -88 C327 -88 348 -91 348 -116 C348 -142 327 -146 287 -146 L242 -146 C215 -146 215 -188 242 -188 L287 -188 C355 -188 389 -161 389 -116 C389 -66 357 -46 292 -46 L309 -5 C423 -5 510 110 510 188 C510 216 469 216 469 188 C469 127 397 36 308 36 C175 36 101 194 101 325 C101 471 185 613 308 613 C388 613 444 552 462 476 L457 425 C454 397 495 393 498 420 L520 632 Z " />
<glyph glyph-name="Egrave" unicode="&#xc8;" horiz-adv-x="610" d="M552 445 L520 607 C513 640 502 649 469 649 L65 649 C37 649 37 607 65 607 L147 607 L147 42 L65 42 C37 42 37 0 65 0 L462 0 C496 0 507 9 513 42 L548 228 C553 254 512 262 507 235 L470 42 L189 42 L189 327 L344 327 L344 239 C344 211 386 211 386 239 L386 456 C386 484 344 484 344 456 L344 368 L189 368 L189 607 L477 607 L511 437 C516 410 558 417 552 445 L552 445 Z M354 685 L255 875 C242 899 165 897 186 867 L322 670 C338 647 367 660 354 685 L354 685 Z " />
<glyph glyph-name="Eacute" unicode="&#xc9;" horiz-adv-x="610" d="M552 445 L520 607 C513 640 502 649 469 649 L65 649 C37 649 37 607 65 607 L147 607 L147 42 L65 42 C37 42 37 0 65 0 L462 0 C496 0 507 9 513 42 L548 228 C553 254 512 262 507 235 L470 42 L189 42 L189 327 L344 327 L344 239 C344 211 386 211 386 239 L386 456 C386 484 344 484 344 456 L344 368 L189 368 L189 607 L477 607 L511 437 C516 410 558 417 552 445 L552 445 Z M418 861 C438 889 365 892 352 868 L258 687 C246 663 273 651 288 673 L418 861 Z " />
<glyph glyph-name="Ecircumflex" unicode="&#xca;" horiz-adv-x="610" d="M552 445 L520 607 C513 640 502 649 469 649 L65 649 C37 649 37 607 65 607 L147 607 L147 42 L65 42 C37 42 37 0 65 0 L462 0 C496 0 507 9 513 42 L548 228 C553 254 512 262 507 235 L470 42 L189 42 L189 327 L344 327 L344 239 C344 211 386 211 386 239 L386 456 C386 484 344 484 344 456 L344 368 L189 368 L189 607 L477 607 L511 437 C516 410 558 417 552 445 L552 445 Z M460 733 L334 861 C311 884 298 884 276 861 L151 733 C131 713 162 684 181 704 L305 831 L431 704 C450 684 480 713 460 733 L460 733 Z " />
<glyph glyph-name="Edieresis" unicode="&#xcb;" horiz-adv-x="610" d="M552 445 L520 607 C513 640 502 649 469 649 L65 649 C37 649 37 607 65 607 L147 607 L147 42 L65 42 C37 42 37 0 65 0 L462 0 C496 0 507 9 513 42 L548 228 C553 254 512 262 507 235 L470 42 L189 42 L189 327 L344 327 L344 239 C344 211 386 211 386 239 L386 456 C386 484 344 484 344 456 L344 368 L189 368 L189 607 L477 607 L511 437 C516 410 558 417 552 445 L552 445 Z M221 765 C221 790 201 811 176 811 C151 811 130 790 130 765 C130 740 151 719 176 719 C201 719 221 740 221 765 L221 765 Z M487 765 C487 790 467 811 442 811 C417 811 397 790 397 765 C397 740 417 719 442 719 C467 719 487 740 487 765 L487 765 Z " />
<glyph glyph-name="Igrave" unicode="&#xcc;" horiz-adv-x="610" d="M494 0 C522 0 522 42 494 42 L323 42 L323 607 L494 607 C522 607 522 649 494 649 L111 649 C83 649 83 607 111 607 L282 607 L282 42 L111 42 C83 42 83 0 111 0 L494 0 Z M324 685 L225 875 C212 899 135 897 156 867 L292 670 C308 647 337 660 324 685 L324 685 Z " />
<glyph glyph-name="Iacute" unicode="&#xcd;" horiz-adv-x="610" d="M494 0 C522 0 522 42 494 42 L323 42 L323 607 L494 607 C522 607 522 649 494 649 L111 649 C83 649 83 607 111 607 L282 607 L282 42 L111 42 C83 42 83 0 111 0 L494 0 Z M453 861 C473 889 400 892 387 868 L293 687 C281 663 308 651 323 673 L453 861 Z " />
<glyph glyph-name="Icircumflex" unicode="&#xce;" horiz-adv-x="610" d="M494 0 C522 0 522 42 494 42 L323 42 L323 607 L494 607 C522 607 522 649 494 649 L111 649 C83 649 83 607 111 607 L282 607 L282 42 L111 42 C83 42 83 0 111 0 L494 0 Z M460 733 L334 861 C311 884 298 884 276 861 L151 733 C131 713 162 684 181 704 L305 831 L431 704 C450 684 480 713 460 733 L460 733 Z " />
<glyph glyph-name="Idieresis" unicode="&#xcf;" horiz-adv-x="610" d="M494 0 C522 0 522 42 494 42 L323 42 L323 607 L494 607 C522 607 522 649 494 649 L111 649 C83 649 83 607 111 607 L282 607 L282 42 L111 42 C83 42 83 0 111 0 L494 0 Z M218 765 C218 790 198 811 173 811 C148 811 127 790 127 765 C127 740 148 719 173 719 C198 719 218 740 218 765 L218 765 Z M484 765 C484 790 464 811 439 811 C414 811 394 790 394 765 C394 740 414 719 439 719 C464 719 484 740 484 765 L484 765 Z " />
<glyph glyph-name="Eth" unicode="&#xd0;" horiz-adv-x="610" d="M559 324 C559 546 438 649 276 649 L60 649 C32 649 32 607 60 607 L168 607 L168 369 L60 369 C32 369 32 327 60 327 L168 327 L168 42 L60 42 C32 42 32 0 60 0 L281 0 C456 0 559 130 559 324 L559 324 Z M518 324 C518 150 431 42 281 42 L210 42 L210 327 L311 327 C338 327 338 369 311 369 L210 369 L210 607 L276 607 C417 607 518 518 518 324 L518 324 Z " />
<glyph glyph-name="Ntilde" unicode="&#xd1;" horiz-adv-x="610" d="M551 607 C579 607 579 649 551 649 L390 649 C362 649 362 607 390 607 L450 607 L450 90 L443 90 L436 120 L221 607 C209 634 193 649 157 649 L61 649 C33 649 33 607 61 607 L121 607 L121 42 L61 42 C33 42 33 0 61 0 L223 0 C250 0 250 42 223 42 L163 42 L163 607 L169 607 L180 598 L439 17 C457 -23 491 -27 491 24 L491 607 L551 607 Z M507 835 C515 862 475 874 467 847 C455 807 431 784 385 784 C316 784 324 853 224 853 C156 853 133 821 113 771 C102 745 142 729 152 755 C166 789 179 812 224 812 C303 812 294 742 385 742 C453 742 489 776 507 835 L507 835 Z " />
<glyph glyph-name="Ograve" unicode="&#xd2;" horiz-adv-x="610" d="M545 326 C545 508 431 654 308 654 C186 654 65 502 65 326 C65 145 185 -5 308 -5 C430 -5 545 147 545 326 L545 326 Z M503 326 C503 171 413 36 308 36 C202 36 106 169 106 326 C106 478 203 613 308 613 C414 613 503 482 503 326 L503 326 Z M384 685 L285 875 C272 899 195 897 216 867 L352 670 C368 647 397 660 384 685 L384 685 Z " />
<glyph glyph-name="Oacute" unicode="&#xd3;" horiz-adv-x="610" d="M545 326 C545 508 431 654 308 654 C186 654 65 502 65 326 C65 145 185 -5 308 -5 C430 -5 545 147 545 326 L545 326 Z M503 326 C503 171 413 36 308 36 C202 36 106 169 106 326 C106 478 203 613 308 613 C414 613 503 482 503 326 L503 326 Z M388 861 C408 889 335 892 322 868 L228 687 C216 663 243 651 258 673 L388 861 Z " />
<glyph glyph-name="Ocircumflex" unicode="&#xd4;" horiz-adv-x="610" d="M545 326 C545 508 431 654 308 654 C186 654 65 502 65 326 C65 145 185 -5 308 -5 C430 -5 545 147 545 326 L545 326 Z M503 326 C503 171 413 36 308 36 C202 36 106 169 106 326 C106 478 203 613 308 613 C414 613 503 482 503 326 L503 326 Z M460 733 L334 861 C311 884 298 884 276 861 L151 733 C131 713 162 684 181 704 L305 831 L431 704 C450 684 480 713 460 733 L460 733 Z " />
<glyph glyph-name="Otilde" unicode="&#xd5;" horiz-adv-x="610" d="M545 326 C545 508 431 654 308 654 C186 654 65 502 65 326 C65 145 185 -5 308 -5 C430 -5 545 147 545 326 L545 326 Z M503 326 C503 171 413 36 308 36 C202 36 106 169 106 326 C106 478 203 613 308 613 C414 613 503 482 503 326 L503 326 Z M507 835 C515 862 475 874 467 847 C455 807 431 784 385 784 C316 784 324 853 224 853 C156 853 133 821 113 771 C102 745 142 729 152 755 C166 789 179 812 224 812 C303 812 294 742 385 742 C453 742 489 776 507 835 L507 835 Z " />
<glyph glyph-name="Odieresis" unicode="&#xd6;" horiz-adv-x="610" d="M545 326 C545 508 431 654 308 654 C186 654 65 502 65 326 C65 145 185 -5 308 -5 C430 -5 545 147 545 326 L545 326 Z M503 326 C503 171 413 36 308 36 C202 36 106 169 106 326 C106 478 203 613 308 613 C414 613 503 482 503 326 L503 326 Z M218 765 C218 790 198 811 173 811 C148 811 127 790 127 765 C127 740 148 719 173 719 C198 719 218 740 218 765 L218 765 Z M484 765 C484 790 464 811 439 811 C414 811 394 790 394 765 C394 740 414 719 439 719 C464 719 484 740 484 765 L484 765 Z " />
<glyph glyph-name="multiply" unicode="&#xd7;" horiz-adv-x="610" d="M478 105 L328 255 L478 405 C498 425 469 453 449 434 L299 285 L148 435 C129 454 99 424 119 405 L270 255 L119 105 C99 86 129 56 148 75 L299 226 L449 76 C469 56 498 85 478 105 L478 105 Z " />
<glyph glyph-name="Oslash" unicode="&#xd8;" horiz-adv-x="610" d="M545 326 C545 415 518 495 476 554 L514 614 C529 637 497 662 482 638 L449 586 C409 629 359 654 308 654 C186 654 65 502 65 326 C65 237 94 156 138 95 L95 29 C80 6 111 -20 126 3 L165 64 C207 21 257 -5 308 -5 C430 -5 545 147 545 326 L545 326 Z M427 551 L161 132 C127 184 106 252 106 326 C106 478 203 613 308 613 C352 613 394 590 427 551 L427 551 Z M503 326 C503 171 413 36 308 36 C264 36 221 60 187 98 L452 518 C484 466 503 399 503 326 L503 326 Z " />
<glyph glyph-name="Ugrave" unicode="&#xd9;" horiz-adv-x="610" d="M573 607 C601 607 601 649 573 649 L360 649 C333 649 333 607 360 607 L450 607 L450 222 C450 110 390 36 302 36 C204 36 157 130 157 222 L157 607 L247 607 C274 607 274 649 247 649 L34 649 C7 649 7 607 34 607 L115 607 L115 222 C115 82 198 -5 302 -5 C412 -5 492 82 492 222 L492 607 L573 607 Z M321 685 L222 875 C209 899 132 897 153 867 L289 670 C305 647 334 660 321 685 L321 685 Z " />
<glyph glyph-name="Uacute" unicode="&#xda;" horiz-adv-x="610" d="M573 607 C601 607 601 649 573 649 L360 649 C333 649 333 607 360 607 L450 607 L450 222 C450 110 390 36 302 36 C204 36 157 130 157 222 L157 607 L247 607 C274 607 274 649 247 649 L34 649 C7 649 7 607 34 607 L115 607 L115 222 C115 82 198 -5 302 -5 C412 -5 492 82 492 222 L492 607 L573 607 Z M447 861 C467 889 394 892 381 868 L287 687 C275 663 302 651 317 673 L447 861 Z " />
<glyph glyph-name="Ucircumflex" unicode="&#xdb;" horiz-adv-x="610" d="M573 607 C601 607 601 649 573 649 L360 649 C333 649 333 607 360 607 L450 607 L450 222 C450 110 390 36 302 36 C204 36 157 130 157 222 L157 607 L247 607 C274 607 274 649 247 649 L34 649 C7 649 7 607 34 607 L115 607 L115 222 C115 82 198 -5 302 -5 C412 -5 492 82 492 222 L492 607 L573 607 Z M460 733 L334 861 C311 884 298 884 276 861 L151 733 C131 713 162 684 181 704 L305 831 L431 704 C450 684 480 713 460 733 L460 733 Z " />
<glyph glyph-name="Udieresis" unicode="&#xdc;" horiz-adv-x="610" d="M573 607 C601 607 601 649 573 649 L360 649 C333 649 333 607 360 607 L450 607 L450 222 C450 110 390 36 302 36 C204 36 157 130 157 222 L157 607 L247 607 C274 607 274 649 247 649 L34 649 C7 649 7 607 34 607 L115 607 L115 222 C115 82 198 -5 302 -5 C412 -5 492 82 492 222 L492 607 L573 607 Z M218 765 C218 790 198 811 173 811 C148 811 127 790 127 765 C127 740 148 719 173 719 C198 719 218 740 218 765 L218 765 Z M484 765 C484 790 464 811 439 811 C414 811 394 790 394 765 C394 740 414 719 439 719 C464 719 484 740 484 765 L484 765 Z " />
<glyph glyph-name="Yacute" unicode="&#xdd;" horiz-adv-x="610" d="M591 607 C619 607 619 649 591 649 L392 649 C364 649 364 607 392 607 L465 607 L305 293 L146 607 L219 607 C247 607 247 649 219 649 L20 649 C-8 649 -8 607 20 607 L99 607 L285 244 L285 42 L136 42 C108 42 108 0 136 0 L475 0 C502 0 502 42 475 42 L326 42 L326 244 L511 607 L591 607 Z M438 861 C458 889 385 892 372 868 L278 687 C266 663 293 651 308 673 L438 861 Z " />
<glyph glyph-name="Thorn" unicode="&#xde;" horiz-adv-x="610" d="M573 328 C573 429 482 515 382 515 L233 515 L233 607 L365 607 C393 607 393 649 365 649 L60 649 C32 649 32 607 60 607 L191 607 L191 42 L60 42 C32 42 32 0 60 0 L365 0 C393 0 393 42 365 42 L233 42 L233 141 L382 141 C482 141 573 228 573 328 L573 328 Z M531 328 C531 250 460 183 382 183 L233 183 L233 474 L382 474 C460 474 531 407 531 328 L531 328 Z " />
<glyph glyph-name="germandbls" unicode="&#xdf;" horiz-adv-x="610" d="M522 187 C522 287 461 338 379 357 C428 380 477 419 477 497 C477 593 411 654 315 654 C197 654 139 562 139 456 L139 42 L86 42 C59 42 59 0 86 0 L217 0 C245 0 245 42 217 42 L180 42 L180 456 C180 538 223 613 315 613 C386 613 435 568 435 497 C435 421 375 370 303 370 C271 370 273 328 306 328 C415 328 481 277 481 187 C481 113 455 36 380 36 C345 36 320 46 309 63 C323 68 334 81 334 99 C334 121 318 136 297 136 C273 136 258 118 258 90 C258 32 303 -5 380 -5 C477 -5 522 91 522 187 L522 187 Z " />
<glyph glyph-name="agrave" unicode="&#xe0;" horiz-adv-x="610" d="M539 -5 C567 -5 567 36 539 36 C508 36 468 53 468 90 L468 337 C468 436 381 466 299 466 C199 466 123 439 123 337 C123 312 140 294 162 294 C180 294 199 309 199 332 C199 350 186 364 168 369 C185 416 238 425 299 425 C359 425 427 409 427 337 L427 301 C383 245 319 254 243 244 C162 233 89 203 89 107 C89 26 152 -5 223 -5 C305 -5 382 24 428 72 C435 20 475 -5 539 -5 L539 -5 Z M427 134 C376 61 298 36 223 36 C175 36 131 52 131 107 C131 183 184 197 250 207 C313 216 381 213 427 248 L427 134 Z M348 545 L249 735 C236 759 159 757 180 727 L316 530 C332 507 361 520 348 545 L348 545 Z " />
<glyph glyph-name="aacute" unicode="&#xe1;" horiz-adv-x="610" d="M539 -5 C567 -5 567 36 539 36 C508 36 468 53 468 90 L468 337 C468 436 381 466 299 466 C199 466 123 439 123 337 C123 312 140 294 162 294 C180 294 199 309 199 332 C199 350 186 364 168 369 C185 416 238 425 299 425 C359 425 427 409 427 337 L427 301 C383 245 319 254 243 244 C162 233 89 203 89 107 C89 26 152 -5 223 -5 C305 -5 382 24 428 72 C435 20 475 -5 539 -5 L539 -5 Z M427 134 C376 61 298 36 223 36 C175 36 131 52 131 107 C131 183 184 197 250 207 C313 216 381 213 427 248 L427 134 Z M407 728 C427 756 354 759 341 735 L247 554 C235 530 262 518 277 540 L407 728 Z " />
<glyph glyph-name="acircumflex" unicode="&#xe2;" horiz-adv-x="610" d="M539 -5 C567 -5 567 36 539 36 C508 36 468 53 468 90 L468 337 C468 436 381 466 299 466 C199 466 123 439 123 337 C123 312 140 294 162 294 C180 294 199 309 199 332 C199 350 186 364 168 369 C185 416 238 425 299 425 C359 425 427 409 427 337 L427 301 C383 245 319 254 243 244 C162 233 89 203 89 107 C89 26 152 -5 223 -5 C305 -5 382 24 428 72 C435 20 475 -5 539 -5 L539 -5 Z M427 134 C376 61 298 36 223 36 C175 36 131 52 131 107 C131 183 184 197 250 207 C313 216 381 213 427 248 L427 134 Z M460 603 L334 731 C311 754 298 754 276 731 L151 603 C131 583 162 554 181 574 L305 701 L431 574 C450 554 480 583 460 603 L460 603 Z " />
<glyph glyph-name="atilde" unicode="&#xe3;" horiz-adv-x="610" d="M539 -5 C567 -5 567 36 539 36 C508 36 468 53 468 90 L468 337 C468 436 381 466 299 466 C199 466 123 439 123 337 C123 312 140 294 162 294 C180 294 199 309 199 332 C199 350 186 364 168 369 C185 416 238 425 299 425 C359 425 427 409 427 337 L427 301 C383 245 319 254 243 244 C162 233 89 203 89 107 C89 26 152 -5 223 -5 C305 -5 382 24 428 72 C435 20 475 -5 539 -5 L539 -5 Z M427 134 C376 61 298 36 223 36 C175 36 131 52 131 107 C131 183 184 197 250 207 C313 216 381 213 427 248 L427 134 Z M498 697 C506 724 466 736 458 709 C446 669 422 646 376 646 C307 646 315 715 215 715 C147 715 124 683 104 633 C93 607 133 591 143 617 C157 651 170 674 215 674 C294 674 285 604 376 604 C444 604 480 638 498 697 L498 697 Z " />
<glyph glyph-name="adieresis" unicode="&#xe4;" horiz-adv-x="610" d="M539 -5 C567 -5 567 36 539 36 C508 36 468 53 468 90 L468 337 C468 436 381 466 299 466 C199 466 123 439 123 337 C123 312 140 294 162 294 C180 294 199 309 199 332 C199 350 186 364 168 369 C185 416 238 425 299 425 C359 425 427 409 427 337 L427 301 C383 245 319 254 243 244 C162 233 89 203 89 107 C89 26 152 -5 223 -5 C305 -5 382 24 428 72 C435 20 475 -5 539 -5 L539 -5 Z M427 134 C376 61 298 36 223 36 C175 36 131 52 131 107 C131 183 184 197 250 207 C313 216 381 213 427 248 L427 134 Z M215 618 C215 643 195 664 170 664 C145 664 124 643 124 618 C124 593 145 572 170 572 C195 572 215 593 215 618 L215 618 Z M481 618 C481 643 461 664 436 664 C411 664 391 643 391 618 C391 593 411 572 436 572 C461 572 481 593 481 618 L481 618 Z " />
<glyph glyph-name="aring" unicode="&#xe5;" horiz-adv-x="610" d="M539 -5 C567 -5 567 36 539 36 C508 36 468 53 468 90 L468 337 C468 436 381 466 299 466 C199 466 123 439 123 337 C123 312 140 294 162 294 C180 294 199 309 199 332 C199 350 186 364 168 369 C185 416 238 425 299 425 C359 425 427 409 427 337 L427 301 C383 245 319 254 243 244 C162 233 89 203 89 107 C89 26 152 -5 223 -5 C305 -5 382 24 428 72 C435 20 475 -5 539 -5 L539 -5 Z M427 134 C376 61 298 36 223 36 C175 36 131 52 131 107 C131 183 184 197 250 207 C313 216 381 213 427 248 L427 134 Z M411 637 C411 694 364 738 307 738 C250 738 206 694 206 637 C206 580 250 534 307 534 C364 534 411 580 411 637 L411 637 Z M375 637 C375 601 343 570 307 570 C271 570 242 601 242 637 C242 673 271 702 307 702 C343 702 375 673 375 637 L375 637 Z " />
<glyph glyph-name="ae" unicode="&#xe6;" horiz-adv-x="610" d="M595 285 C595 409 518 468 438 468 C392 468 345 440 314 387 C293 445 250 466 189 466 C84 466 48 403 48 352 C48 318 66 291 92 291 C142 291 143 366 94 366 C100 401 123 425 186 425 C241 425 287 393 287 315 C287 265 232 253 172 242 C100 229 20 207 20 114 C20 27 66 -5 130 -5 C194 -5 278 39 305 98 C333 33 382 -5 438 -5 C511 -5 562 45 590 123 C599 148 564 166 554 139 C525 63 491 36 438 36 C373 36 320 118 320 243 L557 243 C586 243 595 253 595 285 L595 285 Z M289 146 C271 91 199 36 130 36 C86 36 62 57 62 114 C62 180 117 192 180 204 C213 211 251 218 278 239 C278 206 282 173 289 146 L289 146 Z M554 285 L323 285 C336 371 384 425 438 425 C493 425 554 387 554 285 L554 285 Z " />
<glyph glyph-name="ccedilla" unicode="&#xe7;" horiz-adv-x="610" d="M505 118 C514 144 474 158 465 131 C449 81 384 37 318 37 C220 37 135 113 135 236 C135 372 233 424 319 424 C375 424 415 403 435 376 C419 371 407 355 407 338 C407 313 424 296 449 296 C470 296 490 313 490 338 C490 405 402 466 319 466 C199 466 93 385 93 236 C93 115 168 19 276 -1 L257 -46 C248 -67 262 -88 286 -88 L298 -88 C338 -88 359 -91 359 -116 C359 -142 338 -146 298 -146 L253 -146 C226 -146 226 -188 253 -188 L298 -188 C366 -188 400 -161 400 -116 C400 -66 368 -46 303 -46 L319 -5 C396 -5 485 55 505 118 L505 118 Z " />
<glyph glyph-name="egrave" unicode="&#xe8;" horiz-adv-x="610" d="M510 286 C492 393 397 466 301 466 C191 466 88 378 88 236 C88 107 183 -5 301 -5 C392 -5 466 53 505 118 C519 142 483 163 469 139 C437 85 377 37 301 37 C210 37 130 123 130 244 L472 244 C505 244 515 254 510 286 L510 286 Z M466 286 L136 286 C155 374 226 424 301 424 C376 424 447 373 466 286 L466 286 Z M358 545 L259 735 C246 759 169 757 190 727 L326 530 C342 507 371 520 358 545 L358 545 Z " />
<glyph glyph-name="eacute" unicode="&#xe9;" horiz-adv-x="610" d="M510 286 C492 393 397 466 301 466 C191 466 88 378 88 236 C88 107 183 -5 301 -5 C392 -5 466 53 505 118 C519 142 483 163 469 139 C437 85 377 37 301 37 C210 37 130 123 130 244 L472 244 C505 244 515 254 510 286 L510 286 Z M466 286 L136 286 C155 374 226 424 301 424 C376 424 447 373 466 286 L466 286 Z M407 728 C427 756 354 759 341 735 L247 554 C235 530 262 518 277 540 L407 728 Z " />
<glyph glyph-name="ecircumflex" unicode="&#xea;" horiz-adv-x="610" d="M510 286 C492 393 397 466 301 466 C191 466 88 378 88 236 C88 107 183 -5 301 -5 C392 -5 466 53 505 118 C519 142 483 163 469 139 C437 85 377 37 301 37 C210 37 130 123 130 244 L472 244 C505 244 515 254 510 286 L510 286 Z M466 286 L136 286 C155 374 226 424 301 424 C376 424 447 373 466 286 L466 286 Z M460 603 L334 731 C311 754 298 754 276 731 L151 603 C131 583 162 554 181 574 L305 701 L431 574 C450 554 480 583 460 603 L460 603 Z " />
<glyph glyph-name="edieresis" unicode="&#xeb;" horiz-adv-x="610" d="M510 286 C492 393 397 466 301 466 C191 466 88 378 88 236 C88 107 183 -5 301 -5 C392 -5 466 53 505 118 C519 142 483 163 469 139 C437 85 377 37 301 37 C210 37 130 123 130 244 L472 244 C505 244 515 254 510 286 L510 286 Z M466 286 L136 286 C155 374 226 424 301 424 C376 424 447 373 466 286 L466 286 Z M218 618 C218 643 198 664 173 664 C148 664 127 643 127 618 C127 593 148 572 173 572 C198 572 218 593 218 618 L218 618 Z M484 618 C484 643 464 664 439 664 C414 664 394 643 394 618 C394 593 414 572 439 572 C464 572 484 593 484 618 L484 618 Z " />
<glyph glyph-name="igrave" unicode="&#xec;" horiz-adv-x="610" d="M530 0 C558 0 558 42 530 42 L347 42 L347 440 C347 454 340 461 326 461 L130 461 C102 461 102 419 130 419 L306 419 L306 42 L129 42 C101 42 101 0 129 0 L530 0 Z M338 545 L239 735 C226 759 149 757 170 727 L306 530 C322 507 351 520 338 545 L338 545 Z " />
<glyph glyph-name="iacute" unicode="&#xed;" horiz-adv-x="610" d="M530 0 C558 0 558 42 530 42 L347 42 L347 440 C347 454 340 461 326 461 L130 461 C102 461 102 419 130 419 L306 419 L306 42 L129 42 C101 42 101 0 129 0 L530 0 Z M437 728 C457 756 384 759 371 735 L277 554 C265 530 292 518 307 540 L437 728 Z " />
<glyph glyph-name="icircumflex" unicode="&#xee;" horiz-adv-x="610" d="M530 0 C558 0 558 42 530 42 L347 42 L347 440 C347 454 340 461 326 461 L130 461 C102 461 102 419 130 419 L306 419 L306 42 L129 42 C101 42 101 0 129 0 L530 0 Z M485 603 L359 731 C336 754 323 754 301 731 L176 603 C156 583 187 554 206 574 L330 701 L456 574 C475 554 505 583 485 603 L485 603 Z " />
<glyph glyph-name="idieresis" unicode="&#xef;" horiz-adv-x="610" d="M530 0 C558 0 558 42 530 42 L347 42 L347 440 C347 454 340 461 326 461 L130 461 C102 461 102 419 130 419 L306 419 L306 42 L129 42 C101 42 101 0 129 0 L530 0 Z M228 618 C228 643 208 664 183 664 C158 664 137 643 137 618 C137 593 158 572 183 572 C208 572 228 593 228 618 L228 618 Z M494 618 C494 643 474 664 449 664 C424 664 404 643 404 618 C404 593 424 572 449 572 C474 572 494 593 494 618 L494 618 Z " />
<glyph glyph-name="eth" unicode="&#xf0;" horiz-adv-x="610" d="M488 236 L488 305 C488 416 452 517 381 581 L454 611 C479 621 464 660 438 649 L342 610 C297 638 243 654 179 654 C151 654 151 613 179 613 C221 613 260 604 292 590 L178 543 C152 532 167 493 193 504 L337 563 C391 522 424 458 439 387 C398 438 338 466 275 466 C166 466 62 378 62 236 C62 107 157 -5 275 -5 C389 -5 488 103 488 236 L488 236 Z M446 236 C446 128 369 37 275 37 C187 37 104 121 104 236 C104 354 187 424 275 424 C364 424 446 353 446 236 L446 236 Z " />
<glyph glyph-name="ntilde" unicode="&#xf1;" horiz-adv-x="610" d="M574 0 C602 0 602 42 574 42 L491 42 L491 298 C491 404 439 466 344 466 C281 466 216 407 176 340 L176 419 C176 454 167 461 134 461 L54 461 C26 461 26 419 54 419 L134 419 L134 42 L54 42 C26 42 26 0 54 0 L259 0 C287 0 287 42 259 42 L176 42 L176 274 C220 346 278 425 344 425 C415 425 449 376 449 298 L449 42 L369 42 C341 42 341 0 369 0 L574 0 Z M518 697 C526 724 486 736 478 709 C466 669 442 646 396 646 C327 646 335 715 235 715 C167 715 144 683 124 633 C113 607 153 591 163 617 C177 651 190 674 235 674 C314 674 305 604 396 604 C464 604 500 638 518 697 L518 697 Z " />
<glyph glyph-name="ograve" unicode="&#xf2;" horiz-adv-x="610" d="M519 236 C519 379 416 466 306 466 C196 466 93 378 93 236 C93 107 188 -5 306 -5 C419 -5 519 101 519 236 L519 236 Z M477 236 C477 128 400 37 306 37 C218 37 135 121 135 236 C135 354 218 424 306 424 C395 424 477 353 477 236 L477 236 Z M368 545 L269 735 C256 759 179 757 200 727 L336 530 C352 507 381 520 368 545 L368 545 Z " />
<glyph glyph-name="oacute" unicode="&#xf3;" horiz-adv-x="610" d="M519 236 C519 379 416 466 306 466 C196 466 93 378 93 236 C93 107 188 -5 306 -5 C419 -5 519 101 519 236 L519 236 Z M477 236 C477 128 400 37 306 37 C218 37 135 121 135 236 C135 354 218 424 306 424 C395 424 477 353 477 236 L477 236 Z M407 728 C427 756 354 759 341 735 L247 554 C235 530 262 518 277 540 L407 728 Z " />
<glyph glyph-name="ocircumflex" unicode="&#xf4;" horiz-adv-x="610" d="M519 236 C519 379 416 466 306 466 C196 466 93 378 93 236 C93 107 188 -5 306 -5 C419 -5 519 101 519 236 L519 236 Z M477 236 C477 128 400 37 306 37 C218 37 135 121 135 236 C135 354 218 424 306 424 C395 424 477 353 477 236 L477 236 Z M460 603 L334 731 C311 754 298 754 276 731 L151 603 C131 583 162 554 181 574 L305 701 L431 574 C450 554 480 583 460 603 L460 603 Z " />
<glyph glyph-name="otilde" unicode="&#xf5;" horiz-adv-x="610" d="M519 236 C519 379 416 466 306 466 C196 466 93 378 93 236 C93 107 188 -5 306 -5 C419 -5 519 101 519 236 L519 236 Z M477 236 C477 128 400 37 306 37 C218 37 135 121 135 236 C135 354 218 424 306 424 C395 424 477 353 477 236 L477 236 Z M518 697 C526 724 486 736 478 709 C466 669 442 646 396 646 C327 646 335 715 235 715 C167 715 144 683 124 633 C113 607 153 591 163 617 C177 651 190 674 235 674 C314 674 305 604 396 604 C464 604 500 638 518 697 L518 697 Z " />
<glyph glyph-name="odieresis" unicode="&#xf6;" horiz-adv-x="610" d="M519 236 C519 379 416 466 306 466 C196 466 93 378 93 236 C93 107 188 -5 306 -5 C419 -5 519 101 519 236 L519 236 Z M477 236 C477 128 400 37 306 37 C218 37 135 121 135 236 C135 354 218 424 306 424 C395 424 477 353 477 236 L477 236 Z M218 618 C218 643 198 664 173 664 C148 664 127 643 127 618 C127 593 148 572 173 572 C198 572 218 593 218 618 L218 618 Z M484 618 C484 643 464 664 439 664 C414 664 394 643 394 618 C394 593 414 572 439 572 C464 572 484 593 484 618 L484 618 Z " />
<glyph glyph-name="divide" unicode="&#xf7;" horiz-adv-x="610" d="M532 234 C560 234 560 276 532 276 L66 276 C38 276 38 234 66 234 L532 234 Z M345 47 C345 73 325 93 299 93 C273 93 253 73 253 47 C253 21 273 1 299 1 C325 1 345 21 345 47 L345 47 Z M345 463 C345 489 325 509 299 509 C273 509 253 489 253 463 C253 438 273 417 299 417 C325 417 345 438 345 463 L345 463 Z " />
<glyph glyph-name="oslash" unicode="&#xf8;" horiz-adv-x="610" d="M519 236 C519 297 500 349 469 387 C489 412 512 439 512 439 C528 459 502 487 485 467 L442 416 C404 449 355 466 306 466 C196 466 93 378 93 236 C93 173 116 114 153 70 L109 17 C93 -3 120 -30 136 -11 L180 42 C216 12 259 -5 306 -5 C419 -5 519 101 519 236 L519 236 Z M415 383 L180 102 C152 136 135 183 135 236 C135 354 218 424 306 424 C346 424 384 410 415 383 L415 383 Z M477 236 C477 128 400 37 306 37 C271 37 236 50 208 74 L441 354 C463 324 477 283 477 236 L477 236 Z " />
<glyph glyph-name="ugrave" unicode="&#xf9;" horiz-adv-x="610" d="M556 0 C584 0 584 42 556 42 L476 42 L476 419 C476 461 476 461 434 461 L351 461 C323 461 323 419 351 419 L434 419 L434 187 C391 115 332 36 266 36 C196 36 161 85 161 163 L161 419 C161 461 161 461 119 461 L36 461 C8 461 8 419 36 419 L119 419 L119 163 C119 57 171 -5 266 -5 C330 -5 395 54 434 121 L434 42 C434 7 442 0 476 0 L556 0 Z M328 545 L229 735 C216 759 139 757 160 727 L296 530 C312 507 341 520 328 545 L328 545 Z " />
<glyph glyph-name="uacute" unicode="&#xfa;" horiz-adv-x="610" d="M556 0 C584 0 584 42 556 42 L476 42 L476 419 C476 461 476 461 434 461 L351 461 C323 461 323 419 351 419 L434 419 L434 187 C391 115 332 36 266 36 C196 36 161 85 161 163 L161 419 C161 461 161 461 119 461 L36 461 C8 461 8 419 36 419 L119 419 L119 163 C119 57 171 -5 266 -5 C330 -5 395 54 434 121 L434 42 C434 7 442 0 476 0 L556 0 Z M407 728 C427 756 354 759 341 735 L247 554 C235 530 262 518 277 540 L407 728 Z " />
<glyph glyph-name="ucircumflex" unicode="&#xfb;" horiz-adv-x="610" d="M556 0 C584 0 584 42 556 42 L476 42 L476 419 C476 461 476 461 434 461 L351 461 C323 461 323 419 351 419 L434 419 L434 187 C391 115 332 36 266 36 C196 36 161 85 161 163 L161 419 C161 461 161 461 119 461 L36 461 C8 461 8 419 36 419 L119 419 L119 163 C119 57 171 -5 266 -5 C330 -5 395 54 434 121 L434 42 C434 7 442 0 476 0 L556 0 Z M446 603 L320 731 C297 754 284 754 262 731 L137 603 C117 583 148 554 167 574 L291 701 L417 574 C436 554 466 583 446 603 L446 603 Z " />
<glyph glyph-name="udieresis" unicode="&#xfc;" horiz-adv-x="610" d="M556 0 C584 0 584 42 556 42 L476 42 L476 419 C476 461 476 461 434 461 L351 461 C323 461 323 419 351 419 L434 419 L434 187 C391 115 332 36 266 36 C196 36 161 85 161 163 L161 419 C161 461 161 461 119 461 L36 461 C8 461 8 419 36 419 L119 419 L119 163 C119 57 171 -5 266 -5 C330 -5 395 54 434 121 L434 42 C434 7 442 0 476 0 L556 0 Z M204 618 C204 643 184 664 159 664 C134 664 113 643 113 618 C113 593 134 572 159 572 C184 572 204 593 204 618 L204 618 Z M470 618 C470 643 450 664 425 664 C400 664 380 643 380 618 C380 593 400 572 425 572 C450 572 470 593 470 618 L470 618 Z " />
<glyph glyph-name="yacute" unicode="&#xfd;" horiz-adv-x="610" d="M572 419 C600 419 600 461 572 461 L387 461 C359 461 359 419 387 419 L453 419 L341 125 L199 419 L274 419 C302 419 302 461 274 461 L68 461 C40 461 40 419 68 419 L152 419 L321 72 L293 0 C258 -91 229 -146 162 -146 C114 -146 74 -119 74 -79 C74 -69 76 -60 80 -52 C88 -61 97 -65 108 -65 C132 -65 147 -48 147 -27 C147 -4 127 12 108 12 C60 12 29 -33 29 -82 C29 -134 69 -188 162 -188 C246 -188 288 -129 332 -14 L497 419 L572 419 Z M477 728 C497 756 424 759 411 735 L317 554 C305 530 332 518 347 540 L477 728 Z " />
<glyph glyph-name="thorn" unicode="&#xfe;" horiz-adv-x="610" d="M536 236 C536 349 477 466 351 466 C274 466 222 437 187 401 L187 634 C187 648 180 654 166 654 L50 654 C23 654 23 613 50 613 L146 613 L146 -146 L50 -146 C23 -146 23 -188 50 -188 L313 -188 C340 -188 340 -146 313 -146 L187 -146 L187 69 C225 25 274 -5 338 -5 C468 -5 536 114 536 236 L536 236 Z M495 236 C495 134 443 36 338 36 C267 36 218 85 187 143 L187 331 C211 372 260 425 351 425 C449 425 495 329 495 236 L495 236 Z " />
<glyph glyph-name="ydieresis" unicode="&#xff;" horiz-adv-x="610" d="M572 419 C600 419 600 461 572 461 L387 461 C359 461 359 419 387 419 L453 419 L341 125 L199 419 L274 419 C302 419 302 461 274 461 L68 461 C40 461 40 419 68 419 L152 419 L321 72 L293 0 C258 -91 229 -146 162 -146 C114 -146 74 -119 74 -79 C74 -69 76 -60 80 -52 C88 -61 97 -65 108 -65 C132 -65 147 -48 147 -27 C147 -4 127 12 108 12 C60 12 29 -33 29 -82 C29 -134 69 -188 162 -188 C246 -188 288 -129 332 -14 L497 419 L572 419 Z M237 618 C237 643 217 664 192 664 C167 664 146 643 146 618 C146 593 167 572 192 572 C217 572 237 593 237 618 L237 618 Z M503 618 C503 643 483 664 458 664 C433 664 413 643 413 618 C413 593 433 572 458 572 C483 572 503 593 503 618 L503 618 Z " />
<glyph glyph-name="dotlessi" unicode="&#x131;" horiz-adv-x="610" d="M530 0 C558 0 558 42 530 42 L347 42 L347 440 C347 454 340 461 326 461 L130 461 C102 461 102 419 130 419 L306 419 L306 42 L129 42 C101 42 101 0 129 0 L530 0 Z " />
<glyph glyph-name="Lslash" unicode="&#x141;" horiz-adv-x="610" d="M591 228 C596 254 555 262 550 235 L513 42 L231 42 L231 292 L393 432 C413 450 385 479 365 461 L231 346 L231 607 L358 607 C386 607 386 649 358 649 L63 649 C35 649 35 607 63 607 L189 607 L189 310 L69 207 C48 189 77 159 97 177 L189 257 L189 42 L63 42 C35 42 35 0 63 0 L505 0 C538 0 549 9 555 42 L591 228 Z " />
<glyph glyph-name="lslash" unicode="&#x142;" horiz-adv-x="610" d="M515 0 C542 0 542 42 515 42 L332 42 L332 312 L471 432 C491 450 464 479 443 461 L332 365 L332 628 C332 642 325 649 311 649 L114 649 C86 649 86 607 114 607 L290 607 L290 330 L147 207 C126 189 155 159 175 177 L290 276 L290 42 L113 42 C85 42 85 0 113 0 L515 0 Z " />
<glyph glyph-name="OE" unicode="&#x152;" horiz-adv-x="610" d="M588 445 L556 607 C549 640 539 649 505 649 L257 649 C106 649 -4 511 -4 325 C-4 134 94 0 257 0 L499 0 C533 0 544 9 550 42 L585 228 C590 254 549 262 544 235 L507 42 L337 42 L337 327 L424 327 L424 239 C424 211 466 211 466 239 L466 456 C466 484 424 484 424 456 L424 368 L337 368 L337 607 L514 607 L547 437 C552 410 594 417 588 445 L588 445 Z M295 77 C295 49 284 42 257 42 C112 42 38 185 38 325 C38 437 91 607 257 607 C282 607 295 600 295 577 L295 77 Z " />
<glyph glyph-name="oe" unicode="&#x153;" horiz-adv-x="610" d="M597 285 C597 409 520 468 440 468 C375 468 330 423 305 360 C275 429 222 466 168 466 C88 466 11 383 11 236 C11 94 89 -5 168 -5 C224 -5 274 41 303 110 C328 43 373 -5 440 -5 C513 -5 562 45 591 123 C600 148 566 166 556 139 C526 63 493 36 440 36 C375 36 322 118 322 243 L559 243 C588 243 597 253 597 285 L597 285 Z M287 236 C287 129 236 36 168 36 C104 36 53 122 53 236 C53 354 105 425 168 425 C232 425 287 351 287 236 L287 236 Z M555 285 L325 285 C338 371 386 425 440 425 C494 425 555 387 555 285 L555 285 Z " />
<glyph glyph-name="Scaron" unicode="&#x160;" horiz-adv-x="610" d="M551 171 C551 326 425 339 310 354 C213 366 125 378 125 473 C125 581 213 613 292 613 C396 613 463 538 463 457 C463 429 505 429 505 457 L505 641 C505 669 463 669 463 641 L463 572 L461 572 C430 624 357 654 292 654 C191 654 84 607 84 473 C84 340 193 326 302 313 C407 300 510 289 510 171 C510 81 411 36 326 36 C227 36 117 97 117 230 C117 266 73 269 72 238 L62 16 C61 -12 102 -14 103 13 L107 121 L111 121 C143 26 254 -5 326 -5 C431 -5 551 57 551 171 L551 171 Z M443 849 C462 869 432 897 413 878 L287 750 L163 878 C144 898 114 869 134 849 L259 720 C281 697 294 697 317 720 L443 849 Z " />
<glyph glyph-name="scaron" unicode="&#x161;" horiz-adv-x="610" d="M507 121 C507 228 412 245 319 257 C231 268 145 274 145 348 C145 409 219 425 289 425 C370 425 436 399 436 321 C436 293 478 293 478 321 L478 449 C478 477 436 477 436 449 L436 421 C400 450 346 466 289 466 C195 466 103 431 103 348 C103 236 217 228 317 216 C396 206 466 193 466 121 C466 50 393 36 311 36 C277 36 134 59 134 145 C134 168 97 174 94 147 L78 12 C74 -18 115 -19 119 5 L127 59 C175 22 249 -5 311 -5 C419 -5 507 26 507 121 L507 121 Z M451 688 C470 708 440 736 421 717 L295 589 L171 717 C152 737 122 708 142 688 L267 559 C289 536 302 536 325 559 L451 688 Z " />
<glyph glyph-name="Ydieresis" unicode="&#x178;" horiz-adv-x="610" d="M591 607 C619 607 619 649 591 649 L392 649 C364 649 364 607 392 607 L465 607 L305 293 L146 607 L219 607 C247 607 247 649 219 649 L20 649 C-8 649 -8 607 20 607 L99 607 L285 244 L285 42 L136 42 C108 42 108 0 136 0 L475 0 C502 0 502 42 475 42 L326 42 L326 244 L511 607 L591 607 Z M218 766 C218 791 198 812 173 812 C148 812 127 791 127 766 C127 741 148 720 173 720 C198 720 218 741 218 766 L218 766 Z M484 766 C484 791 464 812 439 812 C414 812 394 791 394 766 C394 741 414 720 439 720 C464 720 484 741 484 766 L484 766 Z " />
<glyph glyph-name="Zcaron" unicode="&#x17d;" horiz-adv-x="610" d="M531 228 C534 254 493 259 490 232 L472 42 L123 42 L508 607 C519 623 504 649 486 649 L175 649 C143 649 133 640 129 607 L111 449 C108 422 149 417 152 445 L170 607 L458 607 L73 42 C63 27 76 0 94 0 L467 0 C499 0 510 9 513 42 L531 228 Z M472 849 C491 869 461 897 442 878 L316 750 L192 878 C173 898 143 869 163 849 L288 720 C310 697 323 697 346 720 L472 849 Z " />
<glyph glyph-name="zcaron" unicode="&#x17e;" horiz-adv-x="610" d="M517 181 C521 208 480 213 476 187 L456 42 L160 42 L475 419 C496 445 490 461 455 461 L174 461 C142 461 132 452 129 419 L119 316 C116 289 157 286 160 313 L170 419 L420 419 L105 42 C85 19 90 0 125 0 L450 0 C475 0 493 9 498 42 L517 181 Z M467 688 C486 708 456 736 437 717 L311 589 L187 717 C168 737 138 708 158 688 L283 559 C305 536 318 536 341 559 L467 688 Z " />
<glyph glyph-name="florin" unicode="&#x192;" horiz-adv-x="610" d="M557 656 C557 698 528 728 480 728 C410 728 365 672 348 590 L322 468 L172 468 C156 468 147 455 147 442 C147 435 152 427 165 427 L313 427 L213 -40 C201 -94 183 -137 131 -137 C106 -137 87 -117 87 -98 C87 -93 88 -87 89 -80 C115 -80 136 -57 136 -30 C136 -13 124 0 106 0 C69 0 47 -53 47 -93 C47 -145 89 -178 123 -178 C214 -178 241 -107 255 -40 L354 427 L506 427 C522 427 532 440 532 453 C532 460 528 468 516 468 L363 468 L389 590 C401 646 430 687 471 687 C503 687 517 674 517 659 C517 651 516 641 513 630 C488 630 465 604 465 581 C465 562 478 550 497 550 C540 550 557 618 557 656 L557 656 Z " />
<glyph glyph-name="circumflex" unicode="&#x2c6;" horiz-adv-x="610" d="M460 603 L334 731 C311 754 298 754 276 731 L151 603 C131 583 162 554 181 574 L305 701 L431 574 C450 554 480 583 460 603 L460 603 Z " />
<glyph glyph-name="caron" unicode="&#x2c7;" horiz-adv-x="610" d="M451 688 C470 708 440 736 421 717 L295 589 L171 717 C152 737 122 708 142 688 L267 559 C289 536 302 536 325 559 L451 688 Z " />
<glyph glyph-name="breve" unicode="&#x2d8;" horiz-adv-x="610" d="M446 682 C446 710 405 710 405 682 C405 632 355 593 295 593 C235 593 186 632 186 682 C186 710 144 710 144 682 C144 611 211 551 295 551 C379 551 446 611 446 682 L446 682 Z " />
<glyph glyph-name="dotaccent" unicode="&#x2d9;" horiz-adv-x="610" d="M356 603 C356 629 334 650 308 650 C281 650 260 629 260 603 C260 576 281 554 308 554 C334 554 356 576 356 603 L356 603 Z " />
<glyph glyph-name="ring" unicode="&#x2da;" horiz-adv-x="610" d="M411 637 C411 694 364 738 307 738 C250 738 206 694 206 637 C206 580 250 534 307 534 C364 534 411 580 411 637 L411 637 Z M375 637 C375 601 343 570 307 570 C271 570 242 601 242 637 C242 673 271 702 307 702 C343 702 375 673 375 637 L375 637 Z " />
<glyph glyph-name="ogonek" unicode="&#x2db;" horiz-adv-x="610" d="M413 -151 C433 -132 404 -102 384 -122 C369 -136 354 -151 331 -151 C297 -151 271 -128 271 -96 C271 -56 303 -30 331 -7 C352 10 326 43 304 25 C266 -6 229 -41 229 -96 C229 -151 274 -193 331 -193 C367 -193 391 -173 413 -151 L413 -151 Z " />
<glyph glyph-name="tilde" unicode="&#x2dc;" horiz-adv-x="610" d="M518 697 C526 724 486 736 478 709 C466 669 442 646 396 646 C327 646 335 715 235 715 C167 715 144 683 124 633 C113 607 153 591 163 617 C177 651 190 674 235 674 C314 674 305 604 396 604 C464 604 500 638 518 697 L518 697 Z " />
<glyph glyph-name="hungarumlaut" unicode="&#x2dd;" horiz-adv-x="610" d="M529 728 C549 756 476 759 463 735 L369 554 C357 530 384 518 399 540 L529 728 Z M339 728 C358 756 285 759 273 735 L179 554 C167 530 194 518 209 540 L339 728 Z " />
<glyph glyph-name="endash" unicode="&#x2013;" horiz-adv-x="610" d="M551 238 C565 238 572 248 572 259 C572 269 565 280 551 280 L63 280 C49 280 43 269 43 259 C43 248 49 238 63 238 L551 238 Z " />
<glyph glyph-name="emdash" unicode="&#x2014;" horiz-adv-x="610" d="M618 238 C646 238 646 280 618 280 L-3 280 C-31 280 -31 238 -3 238 L618 238 Z " />
<glyph glyph-name="quoteleft" unicode="&#x2018;" horiz-adv-x="610" d="M375 660 C396 677 371 709 349 692 C294 648 232 559 232 469 C232 429 264 399 304 399 C344 399 372 436 372 469 C372 510 337 539 304 539 C299 539 293 539 288 538 C306 590 341 633 375 660 L375 660 Z " />
<glyph glyph-name="quoteright" unicode="&#x2019;" horiz-adv-x="610" d="M391 612 C391 652 359 682 319 682 C279 682 250 646 250 612 C250 571 286 543 319 543 C324 543 330 543 335 544 C317 491 282 449 249 422 C227 405 252 373 274 390 C329 434 391 522 391 612 L391 612 Z " />
<glyph glyph-name="quotesinglbase" unicode="&#x201a;" horiz-adv-x="610" d="M359 58 C359 98 328 128 288 128 C248 128 220 92 220 58 C220 17 254 -11 288 -11 C293 -11 299 -11 304 -10 C286 -63 250 -105 217 -132 C196 -149 221 -181 243 -164 C298 -121 359 -32 359 58 L359 58 Z " />
<glyph glyph-name="quotedblleft" unicode="&#x201c;" horiz-adv-x="610" d="M270 660 C291 677 266 709 244 692 C189 648 127 559 127 469 C127 429 159 399 199 399 C239 399 268 436 268 469 C268 510 232 539 199 539 C194 539 188 539 183 538 C201 590 236 633 270 660 L270 660 Z M486 660 C507 677 482 709 460 692 C405 648 344 559 344 469 C344 429 375 399 416 399 C456 399 484 436 484 469 C484 510 449 539 416 539 C411 539 404 539 399 538 C417 590 453 633 486 660 L486 660 Z " />
<glyph glyph-name="quotedblright" unicode="&#x201d;" horiz-adv-x="610" d="M290 612 C290 652 258 682 219 682 C179 682 150 646 150 612 C150 571 185 543 219 543 C224 543 229 543 235 544 C216 491 181 449 148 422 C126 405 152 373 174 390 C229 434 290 522 290 612 L290 612 Z M506 612 C506 652 475 682 435 682 C395 682 367 646 367 612 C367 571 401 543 435 543 C440 543 446 543 451 544 C433 491 397 449 364 422 C343 405 368 373 390 390 C445 434 506 522 506 612 L506 612 Z " />
<glyph glyph-name="quotedblbase" unicode="&#x201e;" horiz-adv-x="610" d="M491 58 C491 98 459 128 419 128 C379 128 351 92 351 58 C351 17 386 -11 419 -11 C424 -11 431 -11 436 -10 C417 -63 382 -105 349 -132 C327 -149 353 -181 375 -164 C429 -121 491 -32 491 58 L491 58 Z M274 58 C274 98 243 128 203 128 C163 128 135 92 135 58 C135 17 170 -11 203 -11 C208 -11 214 -11 219 -10 C201 -63 166 -105 132 -132 C111 -149 136 -181 158 -164 C213 -121 274 -32 274 58 L274 58 Z " />
<glyph glyph-name="dagger" unicode="&#x2020;" horiz-adv-x="610" d="M523 420 C551 420 551 461 523 461 L331 461 L331 632 C331 660 289 660 289 632 L289 461 L95 461 C68 461 68 420 95 420 L289 420 L289 -73 C289 -101 331 -101 331 -73 L331 420 L523 420 Z " />
<glyph glyph-name="daggerdbl" unicode="&#x2021;" horiz-adv-x="610" d="M523 226 C551 226 551 268 523 268 L331 268 L331 420 L523 420 C551 420 551 461 523 461 L331 461 L331 632 C331 660 289 660 289 632 L289 461 L95 461 C68 461 68 420 95 420 L289 420 L289 268 L95 268 C68 268 68 226 95 226 L289 226 L289 -73 C289 -101 331 -101 331 -73 L331 226 L523 226 Z " />
<glyph glyph-name="bullet" unicode="&#x2022;" horiz-adv-x="610" d="M456 247 C456 331 388 399 303 399 C219 399 151 331 151 247 C151 163 219 95 303 95 C388 95 456 163 456 247 L456 247 Z " />
<glyph glyph-name="ellipsis" unicode="&#x2026;" horiz-adv-x="610" d="M619 44 C619 73 596 95 567 95 C539 95 517 73 517 44 C517 16 539 -6 567 -6 C596 -6 619 16 619 44 L619 44 Z M391 44 C391 73 368 95 340 95 C312 95 290 73 290 44 C290 16 312 -6 340 -6 C368 -6 391 16 391 44 L391 44 Z M163 44 C163 73 140 95 112 95 C84 95 62 73 62 44 C62 16 84 -6 112 -6 C140 -6 163 16 163 44 L163 44 Z " />
<glyph glyph-name="perthousand" unicode="&#x2030;" horiz-adv-x="610" d="M389 674 C401 696 391 710 376 710 C354 710 338 671 273 671 C213 671 187 707 160 707 C87 707 8 591 8 488 C8 432 33 396 74 396 C151 396 224 515 224 613 C224 624 224 633 221 643 C258 626 296 628 324 643 L-11 33 C-25 8 12 -12 26 13 L389 674 Z M370 208 C370 268 342 302 304 302 C232 302 153 188 153 85 C153 23 182 -9 219 -9 C290 -9 370 102 370 208 L370 208 Z M621 208 C621 268 594 302 556 302 C484 302 405 188 405 85 C405 23 434 -9 471 -9 C542 -9 621 102 621 208 L621 208 Z M331 208 C331 138 268 29 224 29 C205 29 192 55 192 85 C192 159 261 264 296 264 C315 264 331 242 331 208 L331 208 Z M583 208 C583 138 519 29 476 29 C457 29 444 55 444 85 C444 159 513 264 548 264 C567 264 583 242 583 208 L583 208 Z M185 613 C185 540 119 434 79 434 C61 434 46 458 46 491 C46 552 111 669 151 669 C172 669 185 644 185 613 L185 613 Z " />
<glyph glyph-name="guilsinglleft" unicode="&#x2039;" horiz-adv-x="610" d="M363 147 L252 258 L363 368 C383 388 353 418 333 398 L208 273 C197 262 197 254 208 243 L333 118 C353 98 383 127 363 147 L363 147 Z " />
<glyph glyph-name="guilsinglright" unicode="&#x203a;" horiz-adv-x="610" d="M396 243 C406 253 406 263 396 273 L271 398 C250 419 221 388 241 368 L351 258 L241 147 C221 127 250 97 271 118 L396 243 Z " />
<glyph glyph-name="fraction" unicode="&#x2044;" horiz-adv-x="610" d="M592 718 C607 741 573 763 558 741 L36 -39 C21 -62 55 -84 70 -62 L592 718 Z " />
<glyph glyph-name="Euro" unicode="&#x20ac;" horiz-adv-x="610" d="M528 188 C528 216 487 216 487 188 C487 127 416 36 326 36 C218 36 149 141 127 250 L388 250 C416 250 416 291 388 291 L121 291 C120 302 119 313 119 325 C119 334 120 345 121 355 L388 355 C416 355 416 396 388 396 L126 396 C148 506 218 613 326 613 C416 613 487 522 487 460 C487 433 528 433 528 460 C528 539 440 654 326 654 C196 654 108 527 84 396 L50 396 C22 396 22 355 50 355 L79 355 C78 345 78 334 78 324 C78 313 78 302 79 291 L50 291 C22 291 22 250 50 250 L85 250 C110 120 197 -5 326 -5 C440 -5 528 110 528 188 L528 188 Z " />
<glyph glyph-name="trademark" unicode="&#x2122;" horiz-adv-x="610" d="M603 306 C631 306 631 348 603 348 L583 348 L583 613 L602 613 C629 613 629 655 602 655 L548 655 C513 655 496 648 486 613 L465 536 L465 515 C465 502 452 502 452 515 L452 536 L431 613 C421 648 403 655 368 655 L314 655 C287 655 287 613 314 613 L333 613 L333 348 L313 348 C286 348 286 306 313 306 L392 306 C419 306 419 348 392 348 L375 348 L375 613 L385 613 L431 480 C440 453 476 453 485 480 L531 613 L542 613 L542 348 L525 348 C497 348 497 306 525 306 L603 306 Z M267 506 L256 613 C253 646 242 655 210 655 L58 655 C25 655 15 646 12 613 L1 506 C-2 479 39 474 42 501 L53 613 L113 613 L113 348 L47 348 C20 348 20 306 47 306 L221 306 C249 306 249 348 221 348 L155 348 L155 613 L215 613 L226 501 C229 474 270 479 267 506 L267 506 Z " />
<glyph glyph-name="minus" unicode="&#x2212;" horiz-adv-x="610" d="M513 238 C540 238 540 280 513 280 L102 280 C74 280 74 238 102 238 L513 238 Z " />
<glyph glyph-name="fi" unicode="&#xfb01;" horiz-adv-x="610" d="M551 0 C579 0 579 42 551 42 L462 42 L462 440 C462 454 455 461 441 461 L197 461 C199 563 225 613 328 613 C372 613 403 598 420 578 C406 571 396 558 396 539 C396 514 416 498 437 498 C456 498 478 508 478 539 C478 600 417 654 328 654 C195 654 157 593 156 461 L78 461 C50 461 50 419 78 419 L156 419 L156 42 L67 42 C40 42 40 0 67 0 L266 0 C293 0 293 42 266 42 L197 42 L197 419 L420 419 L420 42 L360 42 C330 42 332 0 360 0 L551 0 Z " />
<glyph glyph-name="fl" unicode="&#xfb02;" horiz-adv-x="610" d="M574 0 C587 0 594 10 594 21 C594 31 587 42 574 42 L479 42 L479 628 C479 642 472 649 458 649 L306 649 C176 649 134 595 134 461 L68 461 C54 461 47 450 47 440 C47 429 54 419 68 419 L134 419 L134 42 L51 42 C37 42 30 31 30 21 C30 10 37 0 51 0 L261 0 C275 0 282 10 282 21 C282 31 275 42 261 42 L176 42 L176 419 L316 419 C330 419 337 429 337 440 C337 450 330 461 316 461 L176 461 C176 566 206 607 306 607 L438 607 L438 42 L360 42 C346 42 340 31 340 21 C340 10 346 0 360 0 L574 0 Z " />
</font>
</svg>
