<?xml version="1.0" encoding="UTF-8"?>
<svg xmlns="http://www.w3.org/2000/svg" xmlns:xlink="http://www.w3.org/1999/xlink" version="1.2" >
<font id="typ1451">
<font-face  font-family="Typ1451-AlternateMedium" units-per-em="1000" ascent="995" descent="-210" font-style="normal" font-weight="400" font-stretch="normal" cap-height="712" x-height="532" underline-position="0" underline-thickness="0" />
<missing-glyph  horiz-adv-x="588" d="M88 698 L500 698 L500 0 L88 0 L88 698 Z M425 74 L425 623 L163 623 L163 74 L425 74 Z " />
<glyph glyph-name="space" unicode="&#x20;" horiz-adv-x="285" d="" />
<glyph glyph-name="Lslash" unicode="&#x141;" horiz-adv-x="522" d="M482 43 Q482 25 469.5 12.5 Q457 0 440 0 L136 0 Q118 0 105 12.5 Q92 25 92 42 L92 351 L65 335 Q60 333 54 331 Q48 329 43 329 Q25 329 12.5 343 Q0 357 0 374 Q0 396 23 409 L92 449 L92 669 Q92 691 106 701.5 Q120 712 134 712 Q151 712 164.5 701.5 Q178 691 178 670 L178 498 L268 549 Q273 553 278.5 554 Q284 555 289 555 Q307 555 320 541.5 Q333 528 333 511 Q333 488 310 475 L178 400 L178 85 L440 85 Q457 85 469.5 72.5 Q482 60 482 43 Z " />
<glyph glyph-name="lslash" unicode="&#x142;" horiz-adv-x="373" d="M333 511 Q333 488 310 475 L195 409 L195 100 Q195 91 200 87 Q205 83 208 83 Q230 83 241 70 Q252 57 252 40 Q252 23 241 10.5 Q230 -2 208 -2 Q188 -2 170 6 Q152 14 138.5 28 Q125 42 117 60.5 Q109 79 109 100 L109 359 L65 335 Q60 333 54 331 Q48 329 43 329 Q25 329 12.5 343 Q0 357 0 374 Q0 396 23 409 L109 458 L109 669 Q109 691 122 701.5 Q135 712 151 712 Q168 712 181.5 701.5 Q195 691 195 670 L195 508 L268 549 Q273 553 278.5 554 Q284 555 289 555 Q307 555 320 541.5 Q333 528 333 511 Z " />
<glyph glyph-name="Scaron" unicode="&#x160;" horiz-adv-x="599" d="M551 185 Q551 129 529.5 90.5 Q508 52 472 28 Q436 4 390 -6.5 Q344 -17 294 -17 Q267 -17 235 -11.5 Q203 -6 172 4.5 Q141 15 112 30.5 Q83 46 62 66 Q54 74 51 81.5 Q48 89 48 97 Q48 114 60.5 127 Q73 140 91 140 Q102 140 108.5 136 Q115 132 129 121 Q166 93 208 80.5 Q250 68 294 68 Q384 68 424.5 98.5 Q465 129 465 185 Q465 237 435.5 265 Q406 293 361.5 310.5 Q317 328 265.5 342 Q214 356 169.5 378.5 Q125 401 95.5 440 Q66 479 66 547 Q66 593 84 627 Q102 661 134 684 Q166 707 209 718.5 Q252 730 301 730 Q327 730 357 725 Q387 720 417 709.5 Q447 699 473.5 683 Q500 667 518 645 Q529 633 529 618 Q529 600 515.5 586.5 Q502 573 486 573 Q475 573 467 578.5 Q459 584 446 595 Q416 621 379 632.5 Q342 644 301 644 Q220 644 186 616 Q152 588 152 547 Q152 512 169 489.5 Q186 467 214 451.5 Q242 436 278 425.5 Q314 415 351.5 403 Q389 391 425 375.5 Q461 360 489 335.5 Q517 311 534 275 Q551 239 551 185 Z M463 971 Q463 962 458 952.5 Q453 943 442 936 L326 861 Q314 852 300 852 Q292 852 286 854.5 Q280 857 274 861 L157 936 Q146 943 141.5 952 Q137 961 137 971 Q137 988 149 1002.5 Q161 1017 178 1017 Q191 1017 202 1009 L300 948 L398 1009 Q409 1017 421 1017 Q439 1017 451 1002.5 Q463 988 463 971 Z " />
<glyph glyph-name="scaron" unicode="&#x161;" horiz-adv-x="515" d="M463 144 Q463 100 446 69 Q429 38 400.5 19 Q372 0 335 -8.5 Q298 -17 258 -17 Q237 -17 211 -13.5 Q185 -10 158 -1.5 Q131 7 106.5 21.5 Q82 36 64 58 Q55 72 55 84 Q55 103 69.5 116 Q84 129 100 129 Q116 129 131 112 Q154 86 189 77 Q224 68 258 68 Q292 68 314.5 73.5 Q337 79 351 89 Q365 99 371 113 Q377 127 377 144 Q377 176 354.5 193 Q332 210 298 221 Q264 232 224.5 242 Q185 252 151 269.5 Q117 287 94.5 317.5 Q72 348 72 399 Q72 440 89.5 468.5 Q107 497 135 514.5 Q163 532 198 540 Q233 548 269 548 Q289 548 320 543 Q351 538 380 527.5 Q409 517 429.5 501.5 Q450 486 450 465 Q450 448 438 434 Q426 420 408 420 Q401 420 392 423.5 Q383 427 375 433 Q355 450 327 456.5 Q299 463 269 463 Q207 463 182 443.5 Q157 424 157 399 Q157 369 179.5 353.5 Q202 338 236 327.5 Q270 317 310 307 Q350 297 384 278.5 Q418 260 440.5 228.5 Q463 197 463 144 Z M421 743 Q421 734 416 724.5 Q411 715 400 708 L284 633 Q272 624 258 624 Q250 624 244 626.5 Q238 629 232 633 L115 708 Q104 715 99.5 724 Q95 733 95 743 Q95 760 107 774.5 Q119 789 136 789 Q149 789 160 781 L258 720 L356 781 Q367 789 379 789 Q397 789 409 774.5 Q421 760 421 743 Z " />
<glyph glyph-name="Yacute" unicode="&#xdd;" horiz-adv-x="594" d="M544 670 Q544 659 538 649 L340 280 L340 43 Q340 22 326.5 11 Q313 0 296 0 Q280 0 267 10.5 Q254 21 254 42 L254 280 L56 650 Q50 660 50 671 Q50 689 64 701.5 Q78 714 95 714 Q105 714 114.5 708.5 Q124 703 131 690 L296 382 L463 690 Q470 702 479.5 707 Q489 712 499 712 Q516 712 530 700 Q544 688 544 670 Z M404 994 Q404 969 384 955 L262 862 Q249 852 234 852 Q216 852 203.5 864.5 Q191 877 191 894 Q191 911 205 926 L313 1036 Q327 1051 348 1051 Q371 1051 387.5 1034 Q404 1017 404 994 Z " />
<glyph glyph-name="yacute" unicode="&#xfd;" horiz-adv-x="571" d="M529 490 Q529 480 524 471 L254 -143 Q239 -178 209 -194 Q179 -210 144 -210 L112 -210 Q90 -210 80 -196.5 Q70 -183 70 -166 Q70 -150 80 -137 Q90 -124 112 -124 L143 -124 Q153 -124 162 -121.5 Q171 -119 176 -108 L242 40 L47 471 Q42 480 42 490 Q42 509 56.5 520.5 Q71 532 88 532 Q112 532 124 506 L287 144 L446 506 Q452 520 462 525.5 Q472 531 483 531 Q500 531 514.5 519.5 Q529 508 529 490 Z M392 766 Q392 741 372 727 L250 634 Q237 624 222 624 Q204 624 191.5 636.5 Q179 649 179 666 Q179 683 193 698 L301 808 Q315 823 336 823 Q359 823 375.5 806 Q392 789 392 766 Z " />
<glyph glyph-name="Thorn" unicode="&#xde;" horiz-adv-x="661" d="M593 447 Q593 390 576.5 339 Q560 288 528 249 Q496 210 449 187 Q402 164 342 164 Q289 164 248 181 Q207 198 177 229 L177 42 Q177 21 163.5 10 Q150 -1 133 -1 Q117 -1 104 10 Q91 21 91 42 L91 869 Q91 890 104 901 Q117 912 133 912 Q150 912 163.5 901 Q177 890 177 869 L177 669 Q177 669 188 679 Q199 689 220 700 Q241 711 271.5 720.5 Q302 730 342 730 Q402 730 449 707 Q496 684 528 645 Q560 606 576.5 554.5 Q593 503 593 447 Z M507 447 Q507 492 495.5 528.5 Q484 565 462 590.5 Q440 616 410 630 Q380 644 342 644 Q305 644 274.5 630 Q244 616 222 590.5 Q200 565 188.5 528.5 Q177 492 177 447 Q177 402 188.5 365.5 Q200 329 222 303.5 Q244 278 274.5 264 Q305 250 342 250 Q380 250 410 264 Q440 278 462 303.5 Q484 329 495.5 365.5 Q507 402 507 447 Z " />
<glyph glyph-name="thorn" unicode="&#xfe;" horiz-adv-x="661" d="M593 267 Q593 210 576.5 158.5 Q560 107 528 68 Q496 29 449 6 Q402 -17 342 -17 Q289 -17 248 0 Q207 17 177 49 L177 -168 Q177 -189 163.5 -200 Q150 -211 133 -211 Q117 -211 104 -200 Q91 -189 91 -168 L91 670 Q91 692 104 703 Q117 714 133 714 Q150 714 163.5 703 Q177 692 177 670 L177 488 Q195 506 220 519 Q241 530 271.5 539.5 Q302 549 342 549 Q402 549 449 526 Q496 503 528 464 Q560 425 576.5 374 Q593 323 593 267 Z M507 266 Q507 311 495.5 347.5 Q484 384 462 410 Q440 436 410 450 Q380 464 342 464 Q305 464 274.5 450 Q244 436 222.5 410 Q201 384 189 347.5 Q177 311 177 267 Q177 222 188.5 185.5 Q200 149 222 122.5 Q244 96 274.5 82 Q305 68 342 68 Q379 68 409.5 82 Q440 96 461.5 122 Q483 148 495 184.5 Q507 221 507 266 Z " />
<glyph glyph-name="&amp;#x8e;" unicode="&#x8e;" horiz-adv-x="595" d="M549 42 Q549 26 538.5 13 Q528 0 507 0 L93 0 Q73 0 61.5 13.5 Q50 27 50 43 Q50 56 57 66 L405 627 L113 627 Q91 627 81 640 Q71 653 71 669 Q71 686 81 699 Q91 712 113 712 L481 712 Q500 712 512 699 Q524 686 524 669 Q524 657 518 648 L169 85 L506 85 Q528 85 538.5 72 Q549 59 549 42 Z M461 971 Q461 962 456 952.5 Q451 943 440 936 L324 861 Q312 852 298 852 Q290 852 284 854.5 Q278 857 272 861 L155 936 Q144 943 139.5 952 Q135 961 135 971 Q135 988 147 1002.5 Q159 1017 176 1017 Q189 1017 200 1009 L298 948 L396 1009 Q407 1017 419 1017 Q437 1017 449 1002.5 Q461 988 461 971 Z " />
<glyph glyph-name="&amp;#x17d;" unicode="&#x17d;" horiz-adv-x="595" d="M549 42 Q549 26 538.5 13 Q528 0 507 0 L93 0 Q73 0 61.5 13.5 Q50 27 50 43 Q50 56 57 66 L405 627 L113 627 Q91 627 81 640 Q71 653 71 669 Q71 686 81 699 Q91 712 113 712 L481 712 Q500 712 512 699 Q524 686 524 669 Q524 657 518 648 L169 85 L506 85 Q528 85 538.5 72 Q549 59 549 42 Z M461 971 Q461 962 456 952.5 Q451 943 440 936 L324 861 Q312 852 298 852 Q290 852 284 854.5 Q278 857 272 861 L155 936 Q144 943 139.5 952 Q135 961 135 971 Q135 988 147 1002.5 Q159 1017 176 1017 Q189 1017 200 1009 L298 948 L396 1009 Q407 1017 419 1017 Q437 1017 449 1002.5 Q461 988 461 971 Z " />
<glyph glyph-name="&amp;#x9e;" unicode="&#x9e;" horiz-adv-x="542" d="M496 42 Q496 26 485 13 Q474 0 454 0 L96 0 Q78 0 68 5.5 Q58 11 53.5 18.5 Q49 26 48 34 Q47 42 47 48 Q47 53 49 59 Q51 65 56 70 L363 446 L89 446 Q67 446 56.5 458.5 Q46 471 46 488 Q46 505 56.5 518 Q67 531 88 531 L453 531 Q473 531 484 519 Q495 507 495 491 Q495 476 484 462 L179 85 L453 85 Q474 85 485 72 Q496 59 496 42 Z M435 743 Q435 734 430 724.5 Q425 715 414 708 L298 633 Q286 624 272 624 Q264 624 258 626.5 Q252 629 246 633 L129 708 Q118 715 113.5 724 Q109 733 109 743 Q109 760 121 774.5 Q133 789 150 789 Q163 789 174 781 L272 720 L370 781 Q381 789 393 789 Q411 789 423 774.5 Q435 760 435 743 Z " />
<glyph glyph-name="&amp;#x17e;" unicode="&#x17e;" horiz-adv-x="542" d="M496 42 Q496 26 485 13 Q474 0 454 0 L96 0 Q78 0 68 5.5 Q58 11 53.5 18.5 Q49 26 48 34 Q47 42 47 48 Q47 53 49 59 Q51 65 56 70 L363 446 L89 446 Q67 446 56.5 458.5 Q46 471 46 488 Q46 505 56.5 518 Q67 531 88 531 L453 531 Q473 531 484 519 Q495 507 495 491 Q495 476 484 462 L179 85 L453 85 Q474 85 485 72 Q496 59 496 42 Z M435 743 Q435 734 430 724.5 Q425 715 414 708 L298 633 Q286 624 272 624 Q264 624 258 626.5 Q252 629 246 633 L129 708 Q118 715 113.5 724 Q109 733 109 743 Q109 760 121 774.5 Q133 789 150 789 Q163 789 174 781 L272 720 L370 781 Q381 789 393 789 Q411 789 423 774.5 Q435 760 435 743 Z " />
<glyph glyph-name="at" unicode="&#x40;" horiz-adv-x="754" d="M685 174 Q685 147 677.5 115 Q670 83 652.5 55 Q635 27 606 8 Q577 -11 534 -11 L521 -11 Q496 -11 482 -2 Q475 2 471 8 Q448 -10 418.5 -16.5 Q389 -23 367 -23 Q348 -23 323 -18.5 Q298 -14 275.5 -1 Q253 12 237.5 34.5 Q222 57 222 93 Q222 129 237.5 151.5 Q253 174 275.5 187 Q298 200 323 204.5 Q348 209 367 209 Q381 209 398.5 206.5 Q416 204 434 197 L434 253 Q434 262 426 267.5 Q418 273 406.5 276.5 Q395 280 384 281 Q373 282 367 282 Q346 282 326.5 274.5 Q307 267 298 267 Q281 267 270.5 280 Q260 293 260 308 Q260 324 272.5 334 Q285 344 302 349.5 Q319 355 337 357 Q355 359 367 359 Q392 359 418 353.5 Q444 348 465 335.5 Q486 323 499 302.5 Q512 282 512 253 L512 85 Q512 78 520 76 Q528 74 534 74 Q562 74 581 100.5 Q600 127 600 174 Q600 240 586 293.5 Q572 347 544 384.5 Q516 422 475 442.5 Q434 463 380 463 Q326 463 284.5 442.5 Q243 422 215.5 384.5 Q188 347 174 293.5 Q160 240 160 174 Q160 108 174 55 Q188 2 215.5 -35.5 Q243 -73 284.5 -93.5 Q326 -114 380 -114 Q418 -114 445.5 -105.5 Q473 -97 495 -83 Q509 -76 519 -76 Q537 -76 549.5 -90 Q562 -104 562 -121 Q562 -140 544 -154.5 Q526 -169 498.5 -179 Q471 -189 439 -194 Q407 -199 380 -199 Q299 -199 241.5 -168.5 Q184 -138 146.5 -86 Q109 -34 91.5 33.5 Q74 101 74 174 Q74 248 91.5 315.5 Q109 383 146.5 434.5 Q184 486 241.5 517 Q299 548 380 548 Q460 548 518 517 Q576 486 613 434.5 Q650 383 667.5 315.5 Q685 248 685 174 Z M434 93 Q434 110 419 121 Q404 132 367 132 Q330 132 315 121 Q300 110 300 93 Q300 76 315 65.5 Q330 55 367 55 Q404 55 419 65.5 Q434 76 434 93 Z " />
<glyph glyph-name="currency" unicode="&#xa4;" horiz-adv-x="588" d="M539 364 Q539 323 513 296.5 Q487 270 446 270 L374 270 Q391 247 391 216 Q391 175 365 149 Q339 123 298 123 L49 123 L49 371 Q49 412 75 438.5 Q101 465 142 465 Q172 465 197 448 L197 519 Q197 560 223 586.5 Q249 613 290 613 Q331 613 357 586.5 Q383 560 383 519 L383 457 L446 457 Q487 457 513 430.5 Q539 404 539 364 Z M522 364 Q522 398 501 419 Q480 440 446 440 L367 440 L367 519 Q367 553 345.5 574.5 Q324 596 290 596 Q256 596 235 574.5 Q214 553 214 519 L214 287 L446 287 Q480 287 501 308.5 Q522 330 522 364 Z " />
<glyph glyph-name="ae" unicode="&#xe6;" horiz-adv-x="927" d="M864 418 Q864 403 852 392 L543 121 Q557 104 573 93.5 Q589 83 604.5 77.5 Q620 72 634 70 Q648 68 657 68 Q674 68 692.5 72 Q711 76 727.5 83.5 Q744 91 757.5 101.5 Q771 112 780 125 Q787 136 796.5 141 Q806 146 815 146 Q832 146 846 134 Q860 122 860 104 Q860 94 855.5 84.5 Q851 75 839 62 Q804 24 756.5 3.5 Q709 -17 657 -17 Q598 -17 552.5 4.5 Q507 26 475 63 L446 36 Q429 21 404 10 Q383 0 351.5 -8.5 Q320 -17 277 -17 Q241 -17 203 -9 Q165 -1 134 18 Q103 37 83 67 Q63 97 63 140 Q63 184 83 214 Q103 244 134 263 Q165 282 203 290 Q241 298 277 298 Q310 298 343 292.5 Q376 287 406 274 L406 391 Q406 413 392 427 Q378 441 357.5 449 Q337 457 315 460 Q293 463 277 463 Q266 463 254 462 Q242 461 230 458 Q212 455 196 448 Q180 441 166 441 Q150 441 138.5 455 Q127 469 127 486 Q127 504 143.5 516 Q160 528 184 535 Q208 542 233.5 545 Q259 548 277 548 Q304 548 332.5 543.5 Q361 539 387.5 528.5 Q414 518 436 502.5 Q458 487 472 464 Q504 502 550 525 Q596 548 657 548 Q718 548 769 523.5 Q820 499 854 448 Q857 443 860.5 435 Q864 427 864 418 Z M763 423 Q750 437 722.5 450 Q695 463 657 463 Q620 463 589 449 Q558 435 536.5 409 Q515 383 503 346.5 Q491 310 491 266 Q491 246 493.5 230 Q496 214 500 197 L763 423 L763 423 Z M423 157 Q417 174 399.5 185 Q382 196 360 202 Q338 208 315.5 210 Q293 212 277 212 Q261 212 239 209 Q217 206 197 198 Q177 190 162.5 176 Q148 162 148 140 Q148 118 162.5 104 Q177 90 197 82 Q217 74 239 71 Q261 68 277 68 Q310 68 338.5 75.5 Q367 83 385 98 L430 137 L423 157 Z " />
<glyph glyph-name="oe" unicode="&#x153;" horiz-adv-x="926" d="M863 420 Q863 404 850 392 L560 101 Q601 68 656 68 Q673 68 691.5 72 Q710 76 726.5 83.5 Q743 91 756.5 101.5 Q770 112 779 125 Q793 146 814 146 Q831 146 844.5 134 Q858 122 858 104 Q858 94 854 84.5 Q850 75 838 62 Q803 24 755.5 3.5 Q708 -17 656 -17 Q603 -17 561 0.5 Q519 18 488 49 Q456 18 414 0.5 Q372 -17 319 -17 Q259 -17 212 6 Q165 29 133 68 Q101 107 84.5 158 Q68 209 68 266 Q68 322 84.5 373 Q101 424 133 463 Q165 502 212 525 Q259 548 319 548 Q372 548 414 530.5 Q456 513 488 482 Q519 513 561 530.5 Q603 548 656 548 Q716 548 767.5 523.5 Q819 499 853 448 Q856 443 859.5 435.5 Q863 428 863 420 Z M762 423 Q748 437 721 450 Q694 463 656 463 Q615 463 584 446.5 Q553 430 532 403.5 Q511 377 500.5 342.5 Q490 308 490 272 Q490 246 495 220.5 Q500 195 508 172 L762 423 L762 423 Z M438 122 Q405 185 405 266 Q405 346 438 409 Q393 463 319 463 Q282 463 251.5 449 Q221 435 199 409 Q177 383 165.5 347 Q154 311 154 266 Q154 221 165.5 184.5 Q177 148 199 122 Q221 96 251.5 82 Q282 68 319 68 Q392 68 438 122 Z " />
<glyph glyph-name="onehalf" unicode="&#xbd;" horiz-adv-x="701" d="M458 689 Q458 683 456 675 L274 14 Q269 -3 258.5 -10.5 Q248 -18 234 -18 Q217 -18 203 -7 Q189 4 189 24 Q189 30 192 36 L374 698 Q379 715 390.5 723 Q402 731 415 731 Q432 731 445 720 Q458 709 458 689 Z M643 42 Q643 26 632 13 Q621 0 600 0 L475 0 Q456 0 443 11 Q430 22 430 42 Q430 50 433 57.5 Q436 65 439 70 L542 258 Q544 260 546.5 267 Q549 274 549 282 Q549 291 539 291 Q533 291 529 285 L520 271 Q515 264 507.5 257.5 Q500 251 486 251 Q469 251 454.5 262.5 Q440 274 440 291 Q440 304 448.5 319 Q457 334 471.5 346.5 Q486 359 503.5 367.5 Q521 376 539 376 Q562 376 579.5 368 Q597 360 609 346.5 Q621 333 627 315 Q633 297 633 278 Q633 247 617 217 L545 85 L600 85 Q621 85 632 72 Q643 59 643 42 Z M197 397 Q197 375 184.5 364 Q172 353 155 353 Q138 353 125.5 364 Q113 375 113 396 L113 627 L95 627 Q73 627 62.5 640 Q52 653 52 669 Q52 686 62.5 699 Q73 712 95 712 L155 712 Q172 712 184.5 699.5 Q197 687 197 670 L197 397 L197 397 Z " />
<glyph glyph-name="onequarter" unicode="&#xbc;" horiz-adv-x="705" d="M670 95 Q670 80 661 67 Q652 54 632 52 L632 42 Q632 21 618.5 10 Q605 -1 588 -1 Q572 -1 559 10 Q546 21 546 42 L546 51 L432 51 Q411 51 396.5 61.5 Q382 72 382 93 Q382 101 385 108 Q388 115 390 119 L498 353 Q504 367 515 373.5 Q526 380 537 380 Q554 380 567 368.5 Q580 357 580 339 Q580 327 576 318 L492 137 L546 137 L546 173 Q546 195 559 206 Q572 217 588 217 Q605 217 618.5 206 Q632 195 632 173 L632 137 Q652 136 661 122.5 Q670 109 670 95 Z M458 689 Q458 683 456 675 L274 14 Q269 -3 258.5 -10.5 Q248 -18 234 -18 Q217 -18 203 -7 Q189 4 189 24 Q189 30 192 36 L374 698 Q379 715 390.5 723 Q402 731 415 731 Q432 731 445 720 Q458 709 458 689 Z M197 397 Q197 375 184.5 364 Q172 353 155 353 Q138 353 125.5 364 Q113 375 113 396 L113 627 L95 627 Q73 627 62.5 640 Q52 653 52 669 Q52 686 62.5 699 Q73 712 95 712 L155 712 Q172 712 184.5 699.5 Q197 687 197 670 L197 397 L197 397 Z " />
<glyph glyph-name="onesuperior" unicode="&#xb9;" horiz-adv-x="291" d="M197 397 Q197 375 184.5 364 Q172 353 155 353 Q138 353 125.5 364 Q113 375 113 396 L113 627 L95 627 Q73 627 62.5 640 Q52 653 52 669 Q52 686 62.5 699 Q73 712 95 712 L155 712 Q172 712 184.5 699.5 Q197 687 197 670 L197 397 L197 397 Z " />
<glyph glyph-name="threequarters" unicode="&#xbe;" horiz-adv-x="754" d="M714 95 Q714 80 704.5 67 Q695 54 675 52 L675 42 Q675 21 662 10 Q649 -1 632 -1 Q615 -1 602 10 Q589 21 589 42 L589 51 L475 51 Q454 51 439.5 61.5 Q425 72 425 93 Q425 98 429 104 Q433 110 433 117 L433 119 L542 353 Q547 367 558.5 373.5 Q570 380 580 380 Q597 380 610.5 368.5 Q624 357 624 339 Q624 330 619 318 L536 137 L589 137 L589 173 Q589 195 602 206 Q615 217 632 217 Q649 217 662 206 Q675 195 675 173 L675 137 Q695 136 704.5 122.5 Q714 109 714 95 Z M503 689 Q503 681 500 675 L318 14 Q313 -3 302.5 -10.5 Q292 -18 278 -18 Q262 -18 248 -7 Q234 4 234 24 Q234 28 236 36 L418 698 Q423 715 434.5 723 Q446 731 459 731 Q476 731 489.5 720 Q503 709 503 689 Z M271 467 Q271 448 264 427.5 Q257 407 243.5 390.5 Q230 374 210.5 363 Q191 352 165 352 Q149 352 130 358.5 Q111 365 94.5 376.5 Q78 388 67 403.5 Q56 419 56 437 Q56 455 70 467.5 Q84 480 100 480 Q113 480 121 473.5 Q129 467 135 459 Q141 451 147.5 444.5 Q154 438 165 438 Q171 438 179 445.5 Q187 453 187 467 Q187 487 176.5 499 Q166 511 156 513 Q136 518 126.5 529 Q117 540 117 554 Q117 574 128 581.5 Q139 589 152 593 Q165 597 176 601 Q187 605 187 617 Q187 631 179 638.5 Q171 646 165 646 Q154 646 147.5 639.5 Q141 633 135 625 Q129 617 121.5 610.5 Q114 604 100 604 Q84 604 70 617 Q56 630 56 648 Q56 666 67 681 Q78 696 94.5 707.5 Q111 719 130 725.5 Q149 732 165 732 Q190 732 208 722.5 Q226 713 237.5 697.5 Q249 682 254.5 663 Q260 644 260 625 Q260 585 238 556 Q271 523 271 467 Z " />
<glyph glyph-name="threesuperior" unicode="&#xb3;" horiz-adv-x="340" d="M271 467 Q271 448 264 427.5 Q257 407 243.5 390.5 Q230 374 210.5 363 Q191 352 165 352 Q149 352 130 358.5 Q111 365 94.5 376.5 Q78 388 67 403.5 Q56 419 56 437 Q56 455 70 467.5 Q84 480 100 480 Q113 480 121 473.5 Q129 467 135 459 Q141 451 147.5 444.5 Q154 438 165 438 Q171 438 179 445.5 Q187 453 187 467 Q187 487 176.5 499 Q166 511 156 513 Q136 518 126.5 529 Q117 540 117 554 Q117 574 128 581.5 Q139 589 152 593 Q165 597 176 601 Q187 605 187 617 Q187 631 179 638.5 Q171 646 165 646 Q154 646 147.5 639.5 Q141 633 135 625 Q129 617 121.5 610.5 Q114 604 100 604 Q84 604 70 617 Q56 630 56 648 Q56 666 67 681 Q78 696 94.5 707.5 Q111 719 130 725.5 Q149 732 165 732 Q190 732 208 722.5 Q226 713 237.5 697.5 Q249 682 254.5 663 Q260 644 260 625 Q260 585 238 556 Q271 523 271 467 Z " />
<glyph glyph-name="twosuperior" unicode="&#xb2;" horiz-adv-x="329" d="M270 396 Q270 379 259 366 Q248 353 227 353 L103 353 Q84 353 70.5 364.5 Q57 376 57 396 Q57 404 60.5 411 Q64 418 66 423 L169 611 Q171 613 174 620.5 Q177 628 177 635 Q177 644 166 644 Q160 644 156 638 L147 624 Q142 617 134.5 610.5 Q127 604 113 604 Q96 604 81.5 615.5 Q67 627 67 644 Q67 657 76 672 Q85 687 99 700 Q113 713 130.5 721.5 Q148 730 166 730 Q189 730 206.5 722 Q224 714 236 700.5 Q248 687 254 669 Q260 651 260 632 Q260 600 244 570 L172 439 L227 439 Q248 439 259 426 Q270 413 270 396 Z " />
<glyph glyph-name="brokenbar" unicode="&#xa6;" horiz-adv-x="239" d="M162 393 Q162 372 149 361.5 Q136 351 119 351 Q102 351 89 361.5 Q76 372 76 393 L76 687 Q76 709 89 720 Q102 731 119 731 Q136 731 149 720 Q162 709 162 687 L162 393 L162 393 Z M162 -166 Q162 -188 149 -199 Q136 -210 119 -210 Q102 -210 89 -199 Q76 -188 76 -166 L76 137 Q76 158 89 169 Q102 180 119 180 Q136 180 149 169 Q162 158 162 137 L162 -166 L162 -166 Z " />
<glyph glyph-name="minus" unicode="&#x2212;" horiz-adv-x="506" d="M440 341 Q440 324 429 311.5 Q418 299 397 299 L112 299 Q90 299 80 311.5 Q70 324 70 341 Q70 358 80 371 Q90 384 112 384 L397 384 Q418 384 429 371 Q440 358 440 341 Z " />
<glyph glyph-name="multiply" unicode="&#xd7;" horiz-adv-x="548" d="M514 42 Q514 24 500 11.5 Q486 -1 469 -1 Q449 -1 437 15 L274 214 L111 15 Q96 0 79 0 Q62 0 48 12.5 Q34 25 34 42 Q34 58 46 71 L218 282 L71 461 Q60 473 60 489 Q60 507 74 519.5 Q88 532 105 532 Q113 532 121.5 528.5 Q130 525 137 516 L274 348 L412 516 Q425 532 442 532 Q459 532 473.5 519.5 Q488 507 488 489 Q488 476 477 462 L329 282 L503 71 Q509 64 511.5 56.5 Q514 49 514 42 Z " />
<glyph glyph-name="exclam" unicode="&#x21;" horiz-adv-x="290" d="M186 242 Q186 221 172.5 210 Q159 199 143 199 Q126 199 112.5 210 Q99 221 99 242 L99 687 Q99 708 112.5 719 Q126 730 143 730 Q159 730 172.5 719 Q186 708 186 687 L186 242 L186 242 Z M217 57 Q217 27 196 6 Q175 -15 145 -15 Q115 -15 94 6 Q73 27 73 57 Q73 87 94 108 Q115 129 145 129 Q175 129 196 108 Q217 87 217 57 Z " />
<glyph glyph-name="quotedbl" unicode="&#x22;" horiz-adv-x="432" d="M343 505 Q341 485 328 474.5 Q315 464 301 464 Q287 464 274 474.5 Q261 485 259 505 L245 671 L245 677 Q245 700 262 715 Q279 730 301 730 Q324 730 341 715 Q358 700 358 678 L358 673 L343 505 Z M172 505 Q170 485 157 474.5 Q144 464 130 464 Q116 464 103 474.5 Q90 485 88 505 L74 671 L74 677 Q74 700 91 715 Q108 730 130 730 Q153 730 170 715 Q187 700 187 678 L187 673 L172 505 Z " />
<glyph glyph-name="numbersign" unicode="&#x23;" horiz-adv-x="630" d="M573 481 Q573 464 562.5 451.5 Q552 439 530 439 L453 439 L433 316 L497 316 Q519 316 529.5 302.5 Q540 289 540 272 Q540 256 529.5 243 Q519 230 497 230 L420 230 L388 36 Q384 17 372.5 8.5 Q361 0 347 0 Q330 0 316.5 11 Q303 22 303 42 L303 49 L333 230 L230 230 L198 36 Q195 17 183 8.5 Q171 0 157 0 Q141 0 127.5 11 Q114 22 114 42 L114 49 L144 230 L80 230 Q58 230 48 243 Q38 256 38 272 Q38 289 48 302.5 Q58 316 80 316 L157 316 L177 439 L113 439 Q91 439 81 451.5 Q71 464 71 481 Q71 498 81 511 Q91 524 113 524 L190 524 L218 694 Q221 713 233.5 722 Q246 731 260 731 Q277 731 290 720 Q303 709 303 689 Q303 687 302.5 685 Q302 683 302 681 L277 524 L380 524 L407 693 Q411 712 422.5 721 Q434 730 448 730 Q465 730 478.5 719.5 Q492 709 492 689 Q492 687 491.5 685 Q491 683 491 681 L466 524 L530 524 Q552 524 562.5 511 Q573 498 573 481 Z M263 439 L244 316 L347 316 L366 439 L263 439 Z " />
<glyph glyph-name="dollar" unicode="&#x24;" horiz-adv-x="638" d="M571 185 Q571 136 554.5 100.5 Q538 65 509.5 41 Q481 17 443 3.5 Q405 -10 363 -15 L363 -165 Q363 -187 349.5 -198 Q336 -209 319 -209 Q303 -209 290 -198 Q277 -187 277 -165 L277 -15 Q252 -12 225 -5.5 Q198 1 172.5 11.5 Q147 22 123.5 35.5 Q100 49 82 66 Q68 80 68 97 Q68 114 81 127 Q94 140 112 140 Q123 140 129 136 Q135 132 149 121 Q186 93 228.5 80.5 Q271 68 315 68 Q404 68 445 98.5 Q486 129 486 185 Q486 237 456.5 265 Q427 293 382.5 310.5 Q338 328 286.5 342 Q235 356 190.5 378.5 Q146 401 116.5 440 Q87 479 87 547 Q87 588 101 619.5 Q115 651 140.5 673.5 Q166 696 200.5 709.5 Q235 723 277 727 L277 869 Q277 890 290 901 Q303 912 319 912 Q336 912 349.5 901 Q363 890 363 869 L363 727 Q386 724 411 717.5 Q436 711 459 700.5 Q482 690 502.5 676.5 Q523 663 538 645 Q549 633 549 618 Q549 600 536 586.5 Q523 573 506 573 Q495 573 487 578.5 Q479 584 466 595 Q436 621 399 632.5 Q362 644 321 644 Q240 644 206 616 Q172 588 172 547 Q172 512 189 489.5 Q206 467 234 451.5 Q262 436 298 425.5 Q334 415 371.5 403 Q409 391 445 375.5 Q481 360 509 335.5 Q537 311 554 275 Q571 239 571 185 Z " />
<glyph glyph-name="percent" unicode="&#x25;" horiz-adv-x="1011" d="M943 176 Q943 140 930.5 108 Q918 76 896.5 52 Q875 28 846.5 14 Q818 0 785 0 Q753 0 724.5 14 Q696 28 674.5 52 Q653 76 640.5 108 Q628 140 628 176 Q628 212 640.5 244 Q653 276 674.5 299.5 Q696 323 724.5 337 Q753 351 785 351 Q818 351 846.5 337 Q875 323 896.5 299.5 Q918 276 930.5 244 Q943 212 943 176 Z M645 690 Q645 686 644.5 683 Q644 680 643 676 L459 14 Q455 -3 444 -10.5 Q433 -18 420 -18 Q403 -18 389 -7 Q375 4 375 24 Q375 26 375 29.5 Q375 33 376 36 L561 699 Q566 715 577 722.5 Q588 730 601 730 Q617 730 631 719.5 Q645 709 645 690 Z M383 537 Q383 501 370.5 469 Q358 437 336.5 413 Q315 389 286.5 375 Q258 361 226 361 Q193 361 164.5 375 Q136 389 114.5 413 Q93 437 80.5 469 Q68 501 68 537 Q68 573 80.5 605 Q93 637 114.5 661 Q136 685 164.5 698.5 Q193 712 226 712 Q258 712 286.5 698.5 Q315 685 336.5 661 Q358 637 370.5 605 Q383 573 383 537 Z M857 176 Q857 198 850.5 214.5 Q844 231 833.5 242.5 Q823 254 810 260 Q797 266 785 266 Q773 266 760.5 260 Q748 254 737.5 242.5 Q727 231 720.5 214.5 Q714 198 714 176 Q714 154 720.5 137 Q727 120 737.5 108.5 Q748 97 760.5 91 Q773 85 785 85 Q797 85 810 91 Q823 97 833.5 108.5 Q844 120 850.5 137 Q857 154 857 176 Z M298 537 Q298 559 291.5 575.5 Q285 592 274.5 603.5 Q264 615 251 621 Q238 627 226 627 Q214 627 201.5 621 Q189 615 178.5 603.5 Q168 592 161 575.5 Q154 559 154 537 Q154 515 161 498.5 Q168 482 178.5 470.5 Q189 459 201.5 453 Q214 447 226 447 Q238 447 251 453 Q264 459 274.5 470.5 Q285 482 291.5 498.5 Q298 515 298 537 Z " />
<glyph glyph-name="ampersand" unicode="&#x26;" horiz-adv-x="670" d="M625 43 Q625 25 611 12 Q597 -1 580 -1 Q572 -1 565 2 Q558 5 551 13 L479 85 L441 47 Q412 17 372.5 0 Q333 -17 288 -17 Q244 -17 205 -0.5 Q166 16 137 45 Q108 74 91 113 Q74 152 74 196 Q74 257 103.5 305.5 Q133 354 181 382 L161 402 Q131 432 115 464.5 Q99 497 99 542 Q99 581 114 615 Q129 649 154.5 674.5 Q180 700 214 715 Q248 730 287 730 Q337 730 374 710 Q411 690 435 664.5 Q459 639 470.5 616.5 Q482 594 482 589 Q482 571 468 558.5 Q454 546 437 546 Q422 546 409 561.5 Q396 577 379.5 595 Q363 613 341 628.5 Q319 644 287 644 Q266 644 247.5 636 Q229 628 215 614.5 Q201 601 193 582.5 Q185 564 185 542 Q185 518 193 501 Q201 484 221 464 L479 206 L548 275 Q556 282 563 286 Q570 290 578 290 Q595 290 608 276.5 Q621 263 621 245 Q621 237 618.5 229 Q616 221 609 214 L539 146 L611 73 Q625 59 625 43 Z M246 317 Q208 304 184 271.5 Q160 239 160 197 Q160 171 170 147.5 Q180 124 197.5 106.5 Q215 89 238 78.5 Q261 68 287 68 Q314 68 337 78 Q360 88 377 105 L418 146 L246 317 Z " />
<glyph glyph-name="quotesingle" unicode="&#x27;" horiz-adv-x="261" d="M172 505 Q170 485 157 474.5 Q144 464 130 464 Q116 464 103 474.5 Q90 485 88 505 L74 671 L74 677 Q74 700 91 715 Q108 730 130 730 Q153 730 170 715 Q187 700 187 678 L187 673 L172 505 Z " />
<glyph glyph-name="parenleft" unicode="&#x28;" horiz-adv-x="370" d="M299 -88 Q299 -105 286 -118.5 Q273 -132 255 -132 Q243 -132 233 -125.5 Q223 -119 199 -93 Q162 -54 137 -7 Q112 40 96.5 91.5 Q81 143 74 197 Q67 251 67 303 Q67 354 75.5 412.5 Q84 471 103.5 527.5 Q123 584 153.5 634 Q184 684 227 718 Q240 728 254 728 Q272 728 285 715 Q298 702 298 685 Q298 678 296.5 673.5 Q295 669 291.5 664.5 Q288 660 281.5 654 Q275 648 264 637 Q234 607 213 568 Q192 529 178.5 485 Q165 441 159 394.5 Q153 348 153 303 Q153 257 160.5 206.5 Q168 156 183.5 107 Q199 58 224 15.5 Q249 -27 284 -57 Q299 -71 299 -88 Z " />
<glyph glyph-name="parenright" unicode="&#x29;" horiz-adv-x="370" d="M291 303 Q291 251 284 197 Q277 143 261 92 Q245 41 219.5 -7 Q194 -55 157 -95 Q135 -119 125.5 -125.5 Q116 -132 104 -132 Q87 -132 73 -118 Q59 -104 59 -87 Q59 -71 74 -57 Q109 -27 134 15.5 Q159 58 175 107 Q191 156 198 206.5 Q205 257 205 303 Q205 348 199 394.5 Q193 441 179.5 485 Q166 529 144.5 568 Q123 607 93 637 Q84 646 77.5 652 Q71 658 67 663 Q63 668 61.5 673 Q60 678 60 685 Q60 702 73 715 Q86 728 104 728 Q118 728 131 718 Q174 684 204.5 634 Q235 584 254 527.5 Q273 471 282 412.5 Q291 354 291 303 Z " />
<glyph glyph-name="asterisk" unicode="&#x2a;" horiz-adv-x="518" d="M463 439 Q463 422 450 408 Q437 394 420 394 Q415 394 409 396 Q403 398 398 400 L302 456 L302 345 Q302 324 289 313 Q276 302 259 302 Q242 302 229.5 313 Q217 324 217 344 L217 456 L120 400 Q108 394 97 394 Q79 394 66.5 408 Q54 422 54 439 Q54 462 76 474 L173 530 L78 586 Q55 599 55 621 Q55 638 67.5 652 Q80 666 98 666 Q103 666 109 665 Q115 664 120 660 L215 604 L215 715 Q215 736 228 747 Q241 758 258 758 Q275 758 288 747 Q301 736 301 716 L301 604 L398 660 Q408 666 421 666 Q439 666 451 652 Q463 638 463 621 Q463 611 458 602 Q453 593 441 586 L344 530 L440 474 Q463 461 463 439 Z " />
<glyph glyph-name="plus" unicode="&#x2b;" horiz-adv-x="507" d="M439 326 Q439 309 428.5 296 Q418 283 397 283 L296 283 L296 184 Q296 162 283 151 Q270 140 253 140 Q236 140 223.5 150.5 Q211 161 211 182 L211 283 L111 283 Q90 283 79 297 Q68 311 68 325 Q68 342 79 355 Q90 368 111 368 L211 368 L211 467 Q211 489 223.5 500 Q236 511 253 511 Q270 511 283 500.5 Q296 490 296 469 L296 368 L397 368 Q417 368 428 355.5 Q439 343 439 326 Z " />
<glyph glyph-name="comma" unicode="&#x2c;" horiz-adv-x="294" d="M218 44 Q218 7 198 -29.5 Q178 -66 141 -88 Q131 -95 120 -95 Q103 -95 90.5 -81.5 Q78 -68 78 -51 Q78 -38 84 -30 Q90 -22 97 -16 Q104 -10 110 -5 Q116 0 116 6 L116 7 Q105 11 96 20 Q88 28 82 41.5 Q76 55 76 78 Q76 106 96.5 123 Q117 140 143 140 Q161 140 174.5 131 Q188 122 198 108 Q208 94 213 77 Q218 60 218 44 Z " />
<glyph glyph-name="hyphen" unicode="&#x2d;" horiz-adv-x="507" d="M439 325 Q439 308 428 295.5 Q417 283 397 283 L111 283 Q90 283 79 295.5 Q68 308 68 325 Q68 342 79 355 Q90 368 111 368 L397 368 Q417 368 428 355 Q439 342 439 325 Z " />
<glyph glyph-name="period" unicode="&#x2e;" horiz-adv-x="296" d="M220 71 Q220 41 199 20 Q178 -1 148 -1 Q118 -1 97 20 Q76 41 76 71 Q76 101 97 121 Q118 141 148 141 Q178 141 199 121 Q220 101 220 71 Z " />
<glyph glyph-name="slash" unicode="&#x2f;" horiz-adv-x="571" d="M515 690 Q515 678 508 667 L131 -7 Q124 -19 114.5 -24.5 Q105 -30 95 -30 Q78 -30 64.5 -17.5 Q51 -5 51 13 Q51 18 53 23 Q55 28 57 34 L433 708 Q440 720 449.5 725.5 Q459 731 470 731 Q487 731 501 719.5 Q515 708 515 690 Z " />
<glyph glyph-name="zero" unicode="0" horiz-adv-x="576" d="M502 383 Q502 345 500.5 300.5 Q499 256 493 211.5 Q487 167 474 126 Q461 85 437 53 Q413 21 377 2 Q341 -17 288 -17 Q235 -17 198 2.5 Q161 22 137.5 54.5 Q114 87 101 128.5 Q88 170 82 214.5 Q76 259 75 303 Q74 347 74 383 Q74 418 76.5 457.5 Q79 497 87 535.5 Q95 574 109 609.5 Q123 645 147 671.5 Q171 698 205 714 Q239 730 287 730 Q335 730 369.5 714.5 Q404 699 428 672.5 Q452 646 466.5 611 Q481 576 489 537.5 Q497 499 499.5 459.5 Q502 420 502 383 Z M416 383 Q416 416 413.5 461 Q411 506 399 546.5 Q387 587 361 615.5 Q335 644 288 644 Q241 644 215 615.5 Q189 587 177 546.5 Q165 506 162.5 461 Q160 416 160 383 L160 327 Q160 288 164 242.5 Q168 197 181 158.5 Q194 120 219.5 94 Q245 68 287 68 Q330 68 355.5 94 Q381 120 394.5 158.5 Q408 197 412 242.5 Q416 288 416 327 L416 383 Z " />
<glyph glyph-name="one" unicode="1" horiz-adv-x="340" d="M257 43 Q257 23 243.5 11.5 Q230 0 213 0 Q197 0 184 11 Q171 22 171 42 L171 578 L91 500 Q79 488 63 488 Q45 488 31.5 501.5 Q18 515 18 532 Q18 549 31 562 L180 706 Q197 722 217 722 Q238 722 247.5 705 Q257 688 257 671 L257 43 L257 43 Z " />
<glyph glyph-name="two" unicode="2" horiz-adv-x="504" d="M445 42 Q445 26 434 13 Q423 0 401 0 L95 0 Q73 0 61 11 Q49 22 49 38 Q49 52 58 65 L331 480 Q340 494 345 510 Q350 526 350 540 Q350 585 321 614.5 Q292 644 247 644 Q227 644 209 636.5 Q191 629 176 617.5 Q161 606 149.5 592.5 Q138 579 132 567 Q126 556 117 551 Q108 546 98 546 Q81 546 67.5 558 Q54 570 54 587 Q54 599 67 622.5 Q80 646 105 670 Q130 694 165.5 712 Q201 730 247 730 Q286 730 320.5 715 Q355 700 380.5 674.5 Q406 649 420.5 615 Q435 581 435 542 Q435 512 425.5 484 Q416 456 401 434 L172 85 L401 85 Q423 85 434 72 Q445 59 445 42 Z " />
<glyph glyph-name="three" unicode="3" horiz-adv-x="531" d="M474 204 Q474 158 456.5 118 Q439 78 409 48 Q379 18 339 0.5 Q299 -17 253 -17 Q195 -17 147 10.5 Q99 38 71 85 Q64 96 64 108 Q64 126 77.5 138 Q91 150 108 150 Q118 150 127.5 145.5 Q137 141 144 130 Q161 101 189 84.5 Q217 68 252 68 Q280 68 305 79 Q330 90 348.5 108.5 Q367 127 378 151.5 Q389 176 389 203 Q389 231 378.5 256 Q368 281 349.5 299.5 Q331 318 306 329 Q281 340 253 340 L252 340 Q232 340 221 352.5 Q210 365 210 382 Q210 399 221.5 412 Q233 425 253 425 Q276 425 296 433.5 Q316 442 331 456.5 Q346 471 354.5 491 Q363 511 363 535 Q363 558 354.5 577.5 Q346 597 331 612 Q316 627 296 635.5 Q276 644 253 644 Q217 644 196 628.5 Q175 613 161 595 Q147 577 135 561.5 Q123 546 103 546 Q86 546 72 558 Q58 570 58 588 Q58 601 65 612 Q74 626 90 646 Q106 666 129 685 Q152 704 183 717 Q214 730 253 730 Q294 730 329.5 714.5 Q365 699 391 672.5 Q417 646 432.5 610.5 Q448 575 448 535 Q448 489 429.5 450.5 Q411 412 377 385 Q421 355 447.5 308 Q474 261 474 204 Z " />
<glyph glyph-name="four" unicode="4" horiz-adv-x="521" d="M490 162 Q490 145 479 132.5 Q468 120 447 120 L404 120 L404 42 Q404 22 390 11 Q376 0 361 0 Q345 0 331.5 11 Q318 22 318 42 L318 120 L79 120 Q58 120 46 131.5 Q34 143 34 160 Q34 165 35 170.5 Q36 176 40 182 L316 707 Q322 719 332 724.5 Q342 730 352 730 Q369 730 383 718 Q397 706 397 689 Q397 677 391 667 L149 205 L318 205 L318 319 Q318 341 331 352 Q344 363 360 363 Q377 363 390.5 352.5 Q404 342 404 320 L404 205 L447 205 Q468 205 479 192 Q490 179 490 162 Z " />
<glyph glyph-name="five" unicode="5" horiz-adv-x="561" d="M492 228 Q492 178 474.5 134.5 Q457 91 426.5 59 Q396 27 355 8.5 Q314 -10 268 -10 Q243 -10 217 -3.5 Q191 3 167 15.5 Q143 28 122.5 45.5 Q102 63 88 85 Q81 96 81 109 Q81 126 94 138 Q107 150 124 150 Q138 150 146 144 Q154 138 165 123 Q184 100 211.5 87.5 Q239 75 268 75 Q294 75 319 86.5 Q344 98 363.5 118 Q383 138 395 166 Q407 194 407 228 Q407 262 395 290.5 Q383 319 363.5 339 Q344 359 319 370.5 Q294 382 268 382 Q228 382 201.5 365 Q175 348 162 326 Q150 303 123 303 Q103 303 91.5 315.5 Q80 328 80 353 L80 670 Q80 687 93 699.5 Q106 712 123 712 L427 712 Q449 712 460 699 Q471 686 471 669 Q471 653 460.5 640 Q450 627 429 627 L165 627 L165 440 Q183 453 210 460 Q237 467 268 467 Q314 467 355 448.5 Q396 430 426.5 398 Q457 366 474.5 322.5 Q492 279 492 228 Z " />
<glyph glyph-name="six" unicode="6" horiz-adv-x="573" d="M511 204 Q511 160 494.5 120 Q478 80 448.5 49.5 Q419 19 380 1 Q341 -17 296 -17 Q243 -17 205.5 -0.5 Q168 16 143 44.5 Q118 73 103 110.5 Q88 148 80 189.5 Q72 231 70 274 Q68 317 68 356 Q68 426 77.5 493.5 Q87 561 112 613.5 Q137 666 181.5 698 Q226 730 296 730 Q359 730 404.5 704 Q450 678 481 630 Q490 618 490 604 Q490 587 476.5 575 Q463 563 446 563 Q424 563 410 583 Q390 612 363.5 628 Q337 644 296 644 Q224 644 190 578 Q156 512 154 368 Q179 392 215.5 408.5 Q252 425 296 425 Q341 425 380 407 Q419 389 448.5 358.5 Q478 328 494.5 288 Q511 248 511 204 Z M425 204 Q425 232 414.5 256.5 Q404 281 386.5 299.5 Q369 318 345.5 329 Q322 340 296 340 Q270 340 247 329.5 Q224 319 206 300.5 Q188 282 177.5 256.5 Q167 231 165 202 Q175 143 206.5 105.5 Q238 68 296 68 Q322 68 345.5 79 Q369 90 386.5 108.5 Q404 127 414.5 151.5 Q425 176 425 204 Z " />
<glyph glyph-name="seven" unicode="7" horiz-adv-x="497" d="M461 669 Q461 660 454 644 Q447 628 445 620 L215 27 Q204 -1 178 -1 Q161 -1 147 10.5 Q133 22 133 41 Q133 46 134 49.5 Q135 53 137 58 L355 627 L88 627 Q71 627 58.5 638.5 Q46 650 46 670 Q46 687 58.5 699.5 Q71 712 88 712 L417 712 Q434 712 447.5 701.5 Q461 691 461 669 Z " />
<glyph glyph-name="eight" unicode="8" horiz-adv-x="553" d="M497 204 Q497 158 480 118 Q463 78 433 48 Q403 18 363 0.5 Q323 -17 277 -17 Q231 -17 191 0.5 Q151 18 121 48 Q91 78 73.5 118 Q56 158 56 203 Q56 261 82 308 Q108 355 153 385 Q119 412 100.5 450.5 Q82 489 82 535 Q82 575 97.5 610.5 Q113 646 139 672.5 Q165 699 201 714.5 Q237 730 277 730 Q317 730 352.5 714.5 Q388 699 414.5 672.5 Q441 646 456.5 610.5 Q472 575 472 535 Q472 489 453.5 450.5 Q435 412 401 385 Q445 355 471 308 Q497 261 497 204 Z M386 535 Q386 558 377.5 577.5 Q369 597 354 612 Q339 627 319.5 635.5 Q300 644 277 644 Q253 644 233 635.5 Q213 627 198.5 612 Q184 597 176 577.5 Q168 558 168 535 Q168 512 176 492 Q184 472 198.5 457 Q213 442 233 433 Q253 424 277 424 Q300 424 319.5 433 Q339 442 354 457 Q369 472 377.5 492 Q386 512 386 535 Z M412 203 Q412 231 401 256 Q390 281 371.5 299.5 Q353 318 328.5 329 Q304 340 277 340 Q249 340 224 329 Q199 318 180.5 299.5 Q162 281 151.5 256 Q141 231 141 204 Q141 176 152 151 Q163 126 181.5 107.5 Q200 89 224.5 78.5 Q249 68 276 68 Q304 68 329 79 Q354 90 372.5 108.5 Q391 127 401.5 151.5 Q412 176 412 203 Z " />
<glyph glyph-name="nine" unicode="9" horiz-adv-x="608" d="M515 357 Q515 287 505.5 219.5 Q496 152 471 99.5 Q446 47 401.5 15 Q357 -17 287 -17 Q224 -17 179 8.5 Q134 34 103 82 Q93 95 93 108 Q93 125 107 137 Q121 149 138 149 Q147 149 156.5 145 Q166 141 173 130 Q193 100 220 84 Q247 68 287 68 Q359 68 393 134.5 Q427 201 430 344 Q405 320 368 303.5 Q331 287 287 287 Q242 287 203 305 Q164 323 135 353.5 Q106 384 89.5 424 Q73 464 73 508 Q73 552 89.5 592.5 Q106 633 135 663.5 Q164 694 203 712 Q242 730 287 730 Q366 730 411.5 694 Q457 658 480 602.5 Q503 547 509 481.5 Q515 416 515 357 Z M418 511 Q409 569 377.5 606.5 Q346 644 287 644 Q262 644 238.5 633.5 Q215 623 197 604.5 Q179 586 168.5 561 Q158 536 158 508 Q158 480 168.5 455.5 Q179 431 197 412.5 Q215 394 238.5 383.5 Q262 373 287 373 Q313 373 336.5 383.5 Q360 394 377.5 412.5 Q395 431 406 456 Q417 481 418 511 Z " />
<glyph glyph-name="colon" unicode="&#x3a;" horiz-adv-x="294" d="M219 445 Q219 415 198 394 Q177 373 147 373 Q117 373 96 394 Q75 415 75 445 Q75 474 96 494.5 Q117 515 147 515 Q177 515 198 494.5 Q219 474 219 445 Z M219 71 Q219 41 198 20 Q177 -1 147 -1 Q117 -1 96 20 Q75 41 75 71 Q75 101 96 121 Q117 141 147 141 Q177 141 198 121 Q219 101 219 71 Z " />
<glyph glyph-name="semicolon" unicode="&#x3b;" horiz-adv-x="294" d="M219 445 Q219 415 198 394 Q177 373 147 373 Q117 373 96 394 Q75 415 75 445 Q75 474 96 494.5 Q117 515 147 515 Q177 515 198 494.5 Q219 474 219 445 Z M218 44 Q218 7 198 -29.5 Q178 -66 141 -88 Q131 -95 120 -95 Q103 -95 90.5 -81.5 Q78 -68 78 -51 Q78 -38 84 -30 Q90 -22 97 -16 Q104 -10 110 -5 Q116 0 116 6 L116 7 Q105 11 96 20 Q88 28 82 41.5 Q76 55 76 78 Q76 106 96.5 123 Q117 140 143 140 Q161 140 174.5 131 Q188 122 198 108 Q208 94 213 77 Q218 60 218 44 Z " />
<glyph glyph-name="less" unicode="&#x3c;" horiz-adv-x="439" d="M365 58 Q365 41 351 28 Q337 15 320 15 Q304 15 291 28 L84 236 Q77 243 74.5 250 Q72 257 71 264 Q71 282 84 295 L291 503 Q305 518 320 518 Q337 518 350.5 504.5 Q364 491 364 473 Q364 465 361 457 Q358 449 351 442 L174 266 L351 88 Q365 74 365 58 Z " />
<glyph glyph-name="equal" unicode="&#x3d;" horiz-adv-x="507" d="M454 325 Q454 308 443 295.5 Q432 283 410 283 L97 283 Q75 283 65 295.5 Q55 308 55 325 Q55 342 65 355 Q75 368 97 368 L410 368 Q432 368 443 355 Q454 342 454 325 Z M454 182 Q454 166 443 153 Q432 140 410 140 L97 140 Q75 140 65 153 Q55 166 55 182 Q55 199 65 212.5 Q75 226 97 226 L410 226 Q432 226 443 212.5 Q454 199 454 182 Z " />
<glyph glyph-name="greater" unicode="&#x3e;" horiz-adv-x="439" d="M367 266 Q367 248 355 236 L148 28 Q135 15 117 15 Q100 15 87 28 Q74 41 74 58 Q74 74 88 88 L263 266 L88 442 Q81 449 78 457 Q75 465 75 473 Q75 491 88.5 504.5 Q102 518 119 518 Q135 518 148 503 L355 295 Q367 283 367 266 Z " />
<glyph glyph-name="question" unicode="&#x3f;" horiz-adv-x="531" d="M463 516 Q463 478 450 443 Q437 408 414 380 Q391 352 359.5 333 Q328 314 292 307 L292 243 Q292 221 279 211 Q266 201 249 201 Q232 201 219 211 Q206 221 206 243 L206 344 Q206 365 219 376.5 Q232 388 250 388 Q276 388 299 398 Q322 408 339.5 425.5 Q357 443 367 466 Q377 489 377 515 Q377 542 367 565.5 Q357 589 339.5 606.5 Q322 624 299 634 Q276 644 250 644 Q230 644 212 636.5 Q194 629 179 617.5 Q164 606 153 592.5 Q142 579 135 567 Q129 556 119.5 551 Q110 546 100 546 Q83 546 69 558.5 Q55 571 55 589 Q55 598 68 621 Q81 644 105.5 668.5 Q130 693 166.5 711.5 Q203 730 250 730 Q294 730 333 713.5 Q372 697 401 668 Q430 639 446.5 600 Q463 561 463 516 Z M323 72 Q323 42 302.5 21 Q282 0 252 0 Q222 0 201 20.5 Q180 41 180 71 Q180 101 201 122 Q222 143 252 143 Q282 143 302.5 122.5 Q323 102 323 72 Z " />
<glyph glyph-name="A" unicode="A" horiz-adv-x="671" d="M638 42 Q638 23 624.5 11.5 Q611 0 594 0 Q583 0 572.5 6 Q562 12 556 26 L503 156 L170 156 L116 26 Q110 12 100 6 Q90 0 79 0 Q62 0 48 11.5 Q34 23 34 42 Q34 52 38 59 L295 684 Q304 704 315 709.5 Q326 715 336 715 Q343 715 356 709.5 Q369 704 377 684 L635 59 Q638 52 638 42 Z M336 560 L205 242 L467 242 L336 560 Z " />
<glyph glyph-name="B" unicode="B" horiz-adv-x="667" d="M616 212 Q616 169 599 130 Q582 91 553.5 62.5 Q525 34 486.5 17 Q448 0 404 0 L135 0 Q118 0 104.5 13 Q91 26 91 42 L91 669 Q91 687 103 699.5 Q115 712 133 712 L381 712 Q419 712 453 697.5 Q487 683 512.5 657.5 Q538 632 553 598.5 Q568 565 568 527 Q568 486 552.5 452.5 Q537 419 511 394 Q559 367 587.5 319 Q616 271 616 212 Z M482 526 Q482 547 474 565 Q466 583 452.5 597 Q439 611 420.5 619 Q402 627 381 627 L177 627 L177 425 L381 425 Q405 425 424 434 Q443 443 455.5 457.5 Q468 472 475 490 Q482 508 482 526 Z M530 212 Q530 238 520 261.5 Q510 285 492.5 302.5 Q475 320 452.5 330 Q430 340 404 340 L177 340 L177 85 L404 85 Q430 85 452.5 95.5 Q475 106 492.5 123 Q510 140 520 163.5 Q530 187 530 212 Z " />
<glyph glyph-name="C" unicode="C" horiz-adv-x="651" d="M597 117 Q597 106 588 92 Q551 41 497 12 Q443 -17 365 -17 Q284 -17 228.5 14 Q173 45 138.5 96.5 Q104 148 89 215.5 Q74 283 74 356 Q74 430 89 497.5 Q104 565 138.5 616.5 Q173 668 228.5 699 Q284 730 365 730 Q441 730 496.5 701.5 Q552 673 587 621 Q596 609 596 596 Q596 578 582.5 566 Q569 554 552 554 Q532 554 518 572 Q495 606 458.5 625 Q422 644 365 644 Q258 644 209 569 Q160 494 160 356 Q160 218 209 143 Q258 68 365 68 Q422 68 458.5 88 Q495 108 518 141 Q531 160 552 160 Q569 160 583 147.5 Q597 135 597 117 Z " />
<glyph glyph-name="D" unicode="D" horiz-adv-x="690" d="M616 357 Q616 287 602 222.5 Q588 158 556 108.5 Q524 59 471.5 29.5 Q419 0 342 0 L135 0 Q118 0 104.5 13 Q91 26 91 42 L91 669 Q91 686 104.5 699 Q118 712 135 712 L342 712 Q419 712 471.5 682.5 Q524 653 556 604 Q588 555 602 490.5 Q616 426 616 357 Z M530 357 Q530 488 484.5 557.5 Q439 627 342 627 L177 627 L177 85 L342 85 Q439 85 484.5 154 Q530 223 530 357 Z " />
<glyph glyph-name="E" unicode="E" horiz-adv-x="661" d="M593 42 Q593 25 582 12.5 Q571 0 551 0 L135 0 Q117 0 104 12.5 Q91 25 91 42 L91 669 Q91 687 104 699.5 Q117 712 135 712 L551 712 Q571 712 582 699.5 Q593 687 593 670 Q593 654 582 640.5 Q571 627 551 627 L177 627 L177 425 L439 425 Q458 425 470 412 Q482 399 482 382 Q482 365 470.5 352 Q459 339 439 339 L177 339 L177 85 L551 85 Q571 85 582 72 Q593 59 593 42 Z " />
<glyph glyph-name="F" unicode="F" horiz-adv-x="656" d="M593 670 Q593 654 582 640.5 Q571 627 551 627 L177 627 L177 425 L439 425 Q458 425 470 412 Q482 399 482 382 Q482 365 470.5 352 Q459 339 439 339 L177 339 L177 42 Q177 25 164.5 12.5 Q152 0 135 0 Q117 0 104 12.5 Q91 25 91 42 L91 669 Q91 687 104 699.5 Q117 712 135 712 L551 712 Q571 712 582 699.5 Q593 687 593 670 Z " />
<glyph glyph-name="G" unicode="G" horiz-adv-x="718" d="M656 341 Q655 271 639 206 Q623 141 588.5 91.5 Q554 42 499.5 12.5 Q445 -17 365 -17 Q283 -17 227 15 Q171 47 137 99 Q103 151 88.5 218.5 Q74 286 74 356 Q74 428 89 495.5 Q104 563 138.5 615 Q173 667 228.5 698.5 Q284 730 365 730 Q434 730 489.5 704.5 Q545 679 587 621 Q596 609 596 596 Q596 578 580.5 565.5 Q565 553 548 553 Q534 553 529 559 Q524 565 512 579 Q488 608 453.5 626 Q419 644 365 644 Q307 644 268 621 Q229 598 205 559 Q181 520 170.5 467.5 Q160 415 160 356 Q160 305 168.5 253.5 Q177 202 199.5 160.5 Q222 119 262 93.5 Q302 68 365 68 Q457 68 509.5 129 Q562 190 567 299 L477 299 Q455 299 444 312 Q433 325 433 342 Q433 359 444 372 Q455 385 475 385 L612 385 Q632 385 644 373 Q656 361 656 341 Z " />
<glyph glyph-name="H" unicode="H" horiz-adv-x="684" d="M593 43 Q593 22 579 11 Q565 0 551 0 Q534 0 520.5 11 Q507 22 507 42 L507 339 L177 339 L177 42 Q177 22 163 11 Q149 0 135 0 Q118 0 104.5 11 Q91 22 91 42 L91 670 Q91 691 104.5 701.5 Q118 712 135 712 Q149 712 163 701.5 Q177 691 177 670 L177 424 L507 424 L507 669 Q507 691 521 701.5 Q535 712 549 712 Q566 712 579.5 701.5 Q593 691 593 669 L593 43 L593 43 Z " />
<glyph glyph-name="I" unicode="I" horiz-adv-x="314" d="M258 42 Q258 26 247 13 Q236 0 214 0 L99 0 Q79 0 68 13 Q57 26 57 42 Q57 59 68 72 Q79 85 99 85 L114 85 L114 627 L99 627 Q79 627 68 640 Q57 653 57 669 Q57 686 68 699 Q79 712 99 712 L214 712 Q236 712 247 699 Q258 686 258 669 Q258 653 247 640 Q236 627 214 627 L199 627 L199 85 L214 85 Q236 85 247 72 Q258 59 258 42 Z " />
<glyph glyph-name="J" unicode="J" horiz-adv-x="524" d="M433 165 Q433 128 418.5 95.5 Q404 63 379.5 38.5 Q355 14 322.5 0 Q290 -14 254 -14 Q217 -14 184 0 Q151 14 126.5 38.5 Q102 63 88 95.5 Q74 128 74 165 Q74 187 87 198 Q100 209 116 209 Q133 209 146.5 198 Q160 187 160 165 Q160 146 167.5 129 Q175 112 187.5 99.5 Q200 87 217 79.5 Q234 72 253 72 Q273 72 290.5 79.5 Q308 87 321 99.5 Q334 112 341 129 Q348 146 348 165 L348 669 Q348 691 360.5 701.5 Q373 712 390 712 Q407 712 420 701.5 Q433 691 433 670 L433 165 L433 165 Z " />
<glyph glyph-name="K" unicode="K" horiz-adv-x="583" d="M537 42 Q537 23 523 11.5 Q509 0 492 0 Q482 0 472 5.5 Q462 11 456 24 L292 363 L177 219 L177 42 Q177 22 163 11 Q149 0 135 0 Q118 0 104.5 11 Q91 22 91 42 L91 670 Q91 691 105 701.5 Q119 712 133 712 Q150 712 163.5 701.5 Q177 691 177 670 L177 356 L450 695 Q463 712 481 712 Q499 712 513 699.5 Q527 687 527 669 Q527 663 524.5 656 Q522 649 516 642 L352 437 L532 62 Q537 53 537 42 Z " />
<glyph glyph-name="L" unicode="L" horiz-adv-x="521" d="M481 43 Q481 25 468.5 12.5 Q456 0 439 0 L135 0 Q117 0 104 12.5 Q91 25 91 42 L91 669 Q91 691 105 701.5 Q119 712 133 712 Q150 712 163.5 701.5 Q177 691 177 670 L177 85 L439 85 Q456 85 468.5 72.5 Q481 60 481 43 Z " />
<glyph glyph-name="M" unicode="M" horiz-adv-x="821" d="M730 42 Q730 21 716.5 10 Q703 -1 686 -1 Q670 -1 657 10 Q644 21 644 42 L644 502 L450 140 Q440 121 428 117 Q416 113 410 113 Q406 113 393.5 117 Q381 121 370 140 L177 500 L177 42 Q177 21 163.5 10 Q150 -1 133 -1 Q117 -1 104 10 Q91 21 91 42 L91 667 Q91 692 105.5 702 Q120 712 137 712 Q161 712 173 687 L410 246 L648 687 Q656 702 665 707 Q674 712 687 712 Q704 712 717 701 Q730 690 730 667 L730 42 L730 42 Z " />
<glyph glyph-name="N" unicode="N" horiz-adv-x="684" d="M593 43 Q593 23 579.5 11.5 Q566 0 549 0 Q539 0 529.5 5.5 Q520 11 513 22 L177 527 L177 43 Q177 22 163.5 11 Q150 0 133 0 Q117 0 104 11 Q91 22 91 42 L91 669 Q91 690 104.5 701 Q118 712 135 712 Q157 712 171 691 L507 186 L507 669 Q507 691 520 701.5 Q533 712 549 712 Q566 712 579.5 701.5 Q593 691 593 670 L593 43 L593 43 Z " />
<glyph glyph-name="O" unicode="O" horiz-adv-x="730" d="M656 356 Q656 283 640.5 215.5 Q625 148 590.5 96.5 Q556 45 500.5 14 Q445 -17 365 -17 Q284 -17 228.5 14 Q173 45 138.5 96.5 Q104 148 89 215.5 Q74 283 74 356 Q74 430 89 497.5 Q104 565 138.5 616.5 Q173 668 228.5 699 Q284 730 365 730 Q445 730 500.5 699 Q556 668 590.5 616.5 Q625 565 640.5 497.5 Q656 430 656 356 Z M570 356 Q570 494 520.5 569 Q471 644 365 644 Q258 644 209 569 Q160 494 160 356 Q160 218 209 143 Q258 68 365 68 Q471 68 520.5 143 Q570 218 570 356 Z " />
<glyph glyph-name="P" unicode="P" horiz-adv-x="650" d="M593 511 Q593 469 577 432 Q561 395 534 367.5 Q507 340 470 324 Q433 308 391 308 L177 308 L177 43 Q177 23 164.5 11.5 Q152 0 135 0 Q117 0 104 11 Q91 22 91 42 L91 669 Q91 683 100.5 697.5 Q110 712 133 712 L392 712 Q425 712 460.5 699 Q496 686 525.5 661 Q555 636 574 598.5 Q593 561 593 511 Z M507 510 Q507 534 498 555.5 Q489 577 473 593 Q457 609 436 618 Q415 627 391 627 L177 627 L177 393 L390 393 Q414 393 435.5 402 Q457 411 473 427 Q489 443 498 464.5 Q507 486 507 510 Z " />
<glyph glyph-name="Q" unicode="Q" horiz-adv-x="747" d="M699 34 Q699 17 685.5 3.5 Q672 -10 654 -10 Q638 -10 625 3 L565 64 Q530 26 481.5 4.5 Q433 -17 365 -17 Q284 -17 228.5 14 Q173 45 138.5 96.5 Q104 148 89 215.5 Q74 283 74 356 Q74 430 89 497.5 Q104 565 138.5 616.5 Q173 668 228.5 699 Q284 730 365 730 Q445 730 500.5 699 Q556 668 590.5 616.5 Q625 565 640.5 497.5 Q656 430 656 356 Q656 295 646 239.5 Q636 184 613 136 L685 64 Q699 50 699 34 Z M570 356 Q570 494 520.5 569 Q471 644 365 644 Q258 644 209 569 Q160 494 160 356 Q160 218 209 143 Q258 68 365 68 Q454 68 504 124 L431 196 Q423 203 420.5 211 Q418 219 418 227 Q418 245 431.5 258 Q445 271 462 271 Q478 271 491 258 L547 203 Q570 269 570 356 Z " />
<glyph glyph-name="R" unicode="R" horiz-adv-x="661" d="M593 42 Q593 24 578.5 11.5 Q564 -1 547 -1 Q528 -1 514 17 L306 308 L177 308 L177 43 Q177 22 163.5 11 Q150 0 133 0 Q117 0 104 11 Q91 22 91 42 L91 669 Q91 683 100.5 697.5 Q110 712 133 712 L392 712 Q425 712 460.5 699 Q496 686 525.5 661 Q555 636 574 598.5 Q593 561 593 511 Q593 472 579 436.5 Q565 401 540.5 374 Q516 347 482 329.5 Q448 312 409 309 L584 68 Q593 56 593 42 Z M507 511 Q507 537 497 558 Q487 579 470.5 594.5 Q454 610 433.5 618.5 Q413 627 391 627 L177 627 L177 393 L390 393 Q414 393 435.5 402.5 Q457 412 473 428 Q489 444 498 465.5 Q507 487 507 511 Z " />
<glyph glyph-name="S" unicode="S" horiz-adv-x="599" d="M551 185 Q551 129 529.5 90.5 Q508 52 472 28 Q436 4 390 -6.5 Q344 -17 294 -17 Q267 -17 235 -11.5 Q203 -6 172 4.5 Q141 15 112 30.5 Q83 46 62 66 Q54 74 51 81.5 Q48 89 48 97 Q48 114 60.5 127 Q73 140 91 140 Q102 140 108.5 136 Q115 132 129 121 Q166 93 208 80.5 Q250 68 294 68 Q384 68 424.5 98.5 Q465 129 465 185 Q465 237 435.5 265 Q406 293 361.5 310.5 Q317 328 265.5 342 Q214 356 169.5 378.5 Q125 401 95.5 440 Q66 479 66 547 Q66 593 84 627 Q102 661 134 684 Q166 707 209 718.5 Q252 730 301 730 Q327 730 357 725 Q387 720 417 709.5 Q447 699 473.5 683 Q500 667 518 645 Q529 633 529 618 Q529 600 515.5 586.5 Q502 573 486 573 Q475 573 467 578.5 Q459 584 446 595 Q416 621 379 632.5 Q342 644 301 644 Q220 644 186 616 Q152 588 152 547 Q152 512 169 489.5 Q186 467 214 451.5 Q242 436 278 425.5 Q314 415 351.5 403 Q389 391 425 375.5 Q461 360 489 335.5 Q517 311 534 275 Q551 239 551 185 Z " />
<glyph glyph-name="T" unicode="T" horiz-adv-x="559" d="M530 670 Q530 654 519 640.5 Q508 627 487 627 L321 627 L321 42 Q321 22 308.5 11 Q296 0 279 0 Q263 0 249.5 11 Q236 22 236 42 L236 627 L72 627 Q50 627 39 640.5 Q28 654 28 670 Q28 685 39 698.5 Q50 712 71 712 L487 712 Q508 712 519 698.5 Q530 685 530 670 Z " />
<glyph glyph-name="U" unicode="U" horiz-adv-x="673" d="M587 233 Q587 182 567.5 136 Q548 90 514.5 56 Q481 22 435 2 Q389 -18 336 -18 Q285 -18 239 1.5 Q193 21 159 54.5 Q125 88 105 134 Q85 180 85 233 L85 670 Q85 691 98 701.5 Q111 712 128 712 Q145 712 158 701.5 Q171 691 171 670 L171 233 Q171 199 184 168.5 Q197 138 219.5 115.5 Q242 93 272 80 Q302 67 336 67 Q370 67 400.5 80 Q431 93 453.5 115.5 Q476 138 489 168.5 Q502 199 502 233 L502 669 Q502 691 514.5 701.5 Q527 712 544 712 Q561 712 574 701.5 Q587 691 587 670 L587 233 L587 233 Z " />
<glyph glyph-name="V" unicode="V" horiz-adv-x="593" d="M553 671 Q553 663 549 656 L339 34 Q328 0 296 0 Q267 0 254 34 L43 656 Q41 660 41 664 Q41 668 41 671 Q41 691 54.5 701.5 Q68 712 84 712 Q96 712 107.5 705 Q119 698 124 683 L296 176 L469 683 Q474 698 485 705 Q496 712 508 712 Q525 712 539 701.5 Q553 691 553 671 Z " />
<glyph glyph-name="W" unicode="W" horiz-adv-x="855" d="M813 673 Q813 667 811 659 L646 35 Q639 0 605 0 Q572 0 562 35 L427 514 L293 35 Q283 0 251 0 Q218 0 209 35 L44 659 Q42 667 42 673 Q42 692 56 702 Q70 712 87 712 Q100 712 111 704.5 Q122 697 127 681 L253 204 L385 677 Q395 712 427 712 Q460 712 470 677 L602 204 L728 681 Q733 698 745.5 706 Q758 714 769 714 Q786 714 799.5 703 Q813 692 813 673 Z " />
<glyph glyph-name="X" unicode="X" horiz-adv-x="594" d="M551 43 Q551 24 536.5 11.5 Q522 -1 505 -1 Q484 -1 471 19 L296 294 L122 19 Q115 8 106 3.5 Q97 -1 88 -1 Q71 -1 57 11.5 Q43 24 43 42 Q43 52 50 66 L247 374 L73 648 Q66 659 66 670 Q66 688 80.5 701 Q95 714 112 714 Q121 714 130 709 Q139 704 146 693 L298 454 L449 693 Q456 704 465 709 Q474 714 483 714 Q500 714 514.5 701.5 Q529 689 529 671 Q529 666 527.5 660 Q526 654 521 648 L348 374 L544 66 Q551 52 551 43 Z " />
<glyph glyph-name="Y" unicode="Y" horiz-adv-x="594" d="M544 670 Q544 659 538 649 L340 280 L340 43 Q340 22 326.5 11 Q313 0 296 0 Q280 0 267 10.5 Q254 21 254 42 L254 280 L56 650 Q50 660 50 671 Q50 689 64 701.5 Q78 714 95 714 Q105 714 114.5 708.5 Q124 703 131 690 L296 382 L463 690 Q470 702 479.5 707 Q489 712 499 712 Q516 712 530 700 Q544 688 544 670 Z " />
<glyph glyph-name="Z" unicode="Z" horiz-adv-x="595" d="M549 42 Q549 26 538.5 13 Q528 0 507 0 L93 0 Q73 0 61.5 13.5 Q50 27 50 43 Q50 56 57 66 L405 627 L113 627 Q91 627 81 640 Q71 653 71 669 Q71 686 81 699 Q91 712 113 712 L481 712 Q500 712 512 699 Q524 686 524 669 Q524 657 518 648 L169 85 L506 85 Q528 85 538.5 72 Q549 59 549 42 Z " />
<glyph glyph-name="bracketleft" unicode="&#x5b;" horiz-adv-x="316" d="M287 -166 Q287 -183 276 -196.5 Q265 -210 245 -210 L135 -210 Q118 -210 104.5 -197 Q91 -184 91 -168 L91 686 Q91 703 104 716.5 Q117 730 133 730 L244 730 Q265 730 276 716.5 Q287 703 287 686 Q287 670 276 657 Q265 644 245 644 L177 644 L177 -124 L244 -124 Q265 -124 276 -137 Q287 -150 287 -166 Z " />
<glyph glyph-name="backslash" unicode="&#x5c;" horiz-adv-x="571" d="M520 15 Q520 -4 506 -16 Q492 -28 475 -28 Q465 -28 456 -23.5 Q447 -19 440 -7 L64 667 Q58 678 58 689 Q58 706 72 718.5 Q86 731 103 731 Q125 731 138 708 L514 35 Q518 30 519 25 Q520 20 520 15 Z " />
<glyph glyph-name="bracketright" unicode="&#x5d;" horiz-adv-x="316" d="M245 -168 Q245 -185 232 -197.5 Q219 -210 202 -210 L91 -210 Q70 -210 59.5 -196.5 Q49 -183 49 -166 Q49 -150 59.5 -137 Q70 -124 91 -124 L160 -124 L160 644 L91 644 Q70 644 59.5 657 Q49 670 49 686 Q49 703 59.5 716.5 Q70 730 91 730 L202 730 Q219 730 232 717 Q245 704 245 687 L245 -168 L245 -168 Z " />
<glyph glyph-name="asciicircum" unicode="&#x5e;" horiz-adv-x="616" d="M515 571 Q515 554 502 541 Q489 528 472 528 Q464 528 456 531.5 Q448 535 440 543 L308 684 L176 543 Q162 528 145 528 Q128 528 114.5 541 Q101 554 101 571 Q101 588 114 601 L277 776 Q291 790 308 790 Q327 790 339 776 L503 601 Q510 594 512.5 586.5 Q515 579 515 571 Z " />
<glyph glyph-name="underscore" unicode="&#x5f;" horiz-adv-x="593" d="M526 -99 Q526 -116 515 -129.5 Q504 -143 482 -143 L112 -143 Q90 -143 80 -129.5 Q70 -116 70 -99 Q70 -83 80 -70 Q90 -57 112 -57 L482 -57 Q504 -57 515 -70 Q526 -83 526 -99 Z " />
<glyph glyph-name="grave" unicode="&#x60;" horiz-adv-x="616" d="M414 667 Q414 650 401.5 637 Q389 624 372 624 Q356 624 342 635 L220 727 Q210 734 205.5 745 Q201 756 201 767 Q201 790 218 806.5 Q235 823 257 823 Q266 823 275 819.5 Q284 816 292 808 L399 699 Q414 684 414 667 Z " />
<glyph glyph-name="b" unicode="b" horiz-adv-x="661" d="M593 266 Q593 209 576.5 158 Q560 107 528 68 Q496 29 449 6 Q402 -17 342 -17 Q302 -17 271.5 -8 Q241 1 220 12.5 Q199 24 188 33.5 Q177 43 177 43 Q177 22 163.5 11.5 Q150 1 133 1 Q117 1 104 11.5 Q91 22 91 43 L91 669 Q91 691 104 701.5 Q117 712 133 712 Q150 712 163.5 701.5 Q177 691 177 670 L177 483 Q207 514 248 531 Q289 548 342 548 Q402 548 449 525 Q496 502 528 463 Q560 424 576.5 373 Q593 322 593 266 Z M507 266 Q507 311 495.5 347 Q484 383 462 409 Q440 435 410 449 Q380 463 342 463 Q305 463 274.5 449 Q244 435 222 409 Q200 383 188.5 347 Q177 311 177 266 Q177 221 188.5 184.5 Q200 148 222 122 Q244 96 274.5 82 Q305 68 342 68 Q380 68 410 82 Q440 96 462 122 Q484 148 495.5 184.5 Q507 221 507 266 Z " />
<glyph glyph-name="c" unicode="c" horiz-adv-x="567" d="M510 88 Q510 73 498 59 Q465 22 420 2.5 Q375 -17 319 -17 Q259 -17 212 6 Q165 29 133 68 Q101 107 84.5 158 Q68 209 68 266 Q68 322 84.5 373 Q101 424 133 463 Q165 502 212 525 Q259 548 319 548 Q375 548 420 528.5 Q465 509 498 472 Q510 459 510 443 Q510 426 496 413 Q482 400 465 400 Q449 400 434 414 Q413 437 385 450 Q357 463 319 463 Q282 463 251.5 449 Q221 435 199 409 Q177 383 165.5 347 Q154 311 154 266 Q154 221 165.5 184.5 Q177 148 199 122 Q221 96 251.5 82 Q282 68 319 68 Q357 68 385.5 81 Q414 94 434 117 Q441 125 449 128.5 Q457 132 465 132 Q482 132 496 119 Q510 106 510 88 Z " />
<glyph glyph-name="d" unicode="d" horiz-adv-x="661" d="M570 43 Q570 22 557 11.5 Q544 1 527 1 Q510 1 497 11.5 Q484 22 484 43 Q466 26 441 13 Q420 2 389.5 -7.5 Q359 -17 319 -17 Q259 -17 212 6 Q165 29 133 68 Q101 107 84.5 158 Q68 209 68 266 Q68 322 84.5 373 Q101 424 133 463 Q165 502 212 525 Q259 548 319 548 Q372 548 413.5 531 Q455 514 484 483 L484 669 Q484 691 497 701.5 Q510 712 527 712 Q544 712 557 701.5 Q570 691 570 670 L570 43 L570 43 Z M484 266 Q484 311 472.5 347 Q461 383 439.5 409 Q418 435 387.5 449 Q357 463 319 463 Q282 463 251.5 449 Q221 435 199 409 Q177 383 165.5 347 Q154 311 154 266 Q154 221 165.5 184.5 Q177 148 199 122 Q221 96 251.5 82 Q282 68 319 68 Q357 68 387.5 82 Q418 96 439.5 122 Q461 148 472.5 184.5 Q484 221 484 266 Z " />
<glyph glyph-name="f" unicode="f" horiz-adv-x="337" d="M298 488 Q298 471 287 458.5 Q276 446 254 446 L209 446 L209 43 Q209 22 195.5 11.5 Q182 1 165 1 Q149 1 136 11.5 Q123 22 123 43 L123 446 L82 446 Q62 446 51 458.5 Q40 471 40 488 Q40 505 51 518 Q62 531 82 531 L123 531 L123 599 Q123 623 132.5 643.5 Q142 664 157.5 679.5 Q173 695 194 703.5 Q215 712 238 712 Q260 712 271 699 Q282 686 282 669 Q282 653 271 640 Q260 627 238 627 Q225 627 217 619 Q209 611 209 600 L209 531 L254 531 Q276 531 287 518 Q298 505 298 488 Z " />
<glyph glyph-name="g" unicode="g" horiz-adv-x="661" d="M570 15 Q570 -105 503.5 -166.5 Q437 -228 319 -228 Q296 -228 260 -223.5 Q224 -219 190 -209.5 Q156 -200 131.5 -184.5 Q107 -169 107 -146 Q107 -129 120 -115 Q133 -101 150 -101 Q159 -101 161 -102 Q163 -103 166.5 -105 Q170 -107 178 -112 Q186 -117 206 -124 Q224 -131 251.5 -137 Q279 -143 319 -143 Q484 -143 484 15 L484 60 Q455 32 413.5 16 Q372 0 319 0 Q260 0 213.5 20 Q167 40 134.5 75.5 Q102 111 85 159.5 Q68 208 68 266 Q68 322 84.5 373 Q101 424 133 463 Q165 502 212 525 Q259 548 319 548 Q423 548 484 484 L484 488 Q484 509 498 520 Q512 531 527 531 Q543 531 556.5 520 Q570 509 570 488 L570 15 L570 15 Z M484 266 Q484 311 472.5 347 Q461 383 439.5 409 Q418 435 387.5 449 Q357 463 319 463 Q282 463 251.5 449 Q221 435 199 409 Q177 383 165.5 347 Q154 311 154 266 Q154 180 197 132.5 Q240 85 319 85 Q398 85 441 132.5 Q484 180 484 266 Z " />
<glyph glyph-name="h" unicode="h" horiz-adv-x="629" d="M547 43 Q547 22 534 11 Q521 0 504 0 Q487 0 474.5 11 Q462 22 462 42 L462 320 Q462 349 450.5 375 Q439 401 419.5 420.5 Q400 440 374 451.5 Q348 463 319 463 Q290 463 264.5 451.5 Q239 440 219.5 420.5 Q200 401 188.5 375 Q177 349 177 320 L177 43 Q177 22 163.5 10.5 Q150 -1 133 -1 Q117 -1 104 10 Q91 21 91 42 L91 669 Q91 691 104 701.5 Q117 712 133 712 Q150 712 163.5 701.5 Q177 691 177 670 L177 497 Q205 523 241 535.5 Q277 548 319 548 Q366 548 407 530 Q448 512 479.5 481 Q511 450 529 408.5 Q547 367 547 320 L547 43 L547 43 Z " />
<glyph glyph-name="i" unicode="i" horiz-adv-x="274" d="M209 684 Q209 654 188 633 Q167 612 137 612 Q107 612 86 633 Q65 654 65 684 Q65 714 86 735 Q107 756 137 756 Q167 756 188 735 Q209 714 209 684 Z M179 42 Q179 21 166 10.5 Q153 0 137 0 Q120 0 106.5 11 Q93 22 93 42 L93 488 Q93 509 106.5 520 Q120 531 137 531 Q153 531 166 520 Q179 509 179 488 L179 42 L179 42 Z " />
<glyph glyph-name="j" unicode="j" horiz-adv-x="272" d="M207 684 Q207 654 186.5 633 Q166 612 136 612 Q106 612 85.5 633 Q65 654 65 684 Q65 714 85.5 735 Q106 756 136 756 Q166 756 186.5 735 Q207 714 207 684 Z M179 -28 Q179 -66 168 -96 Q157 -126 139.5 -148.5 Q122 -171 100.5 -186.5 Q79 -202 57 -211 Q47 -214 39 -214 Q21 -214 9.5 -201 Q-2 -188 -2 -171 Q-2 -160 4 -148.5 Q10 -137 24 -131 Q50 -119 71.5 -96 Q93 -73 93 -28 L93 488 Q93 509 106 520 Q119 531 136 531 Q152 531 165.5 520 Q179 509 179 489 L179 -28 L179 -28 Z " />
<glyph glyph-name="k" unicode="k" horiz-adv-x="534" d="M488 488 Q488 472 474 458 L325 309 L480 66 Q487 52 487 42 Q487 24 473 11.5 Q459 -1 442 -1 Q433 -1 424 3.5 Q415 8 408 19 L262 246 L177 161 L177 42 Q177 22 163 11 Q149 0 135 0 Q118 0 104.5 11 Q91 22 91 42 L91 670 Q91 691 104 701.5 Q117 712 133 712 Q150 712 163.5 701.5 Q177 691 177 670 L177 282 L413 518 Q421 526 429 528.5 Q437 531 445 531 Q462 531 475 518 Q488 505 488 488 Z " />
<glyph glyph-name="l" unicode="l" horiz-adv-x="268" d="M228 40 Q228 23 217 10.5 Q206 -2 185 -2 Q165 -2 146.5 6 Q128 14 114.5 28 Q101 42 93 60.5 Q85 79 85 100 L85 669 Q85 691 98 701.5 Q111 712 128 712 Q145 712 158 701.5 Q171 691 171 670 L171 100 Q171 91 176 87 Q181 83 185 83 Q206 83 217 70 Q228 57 228 40 Z " />
<glyph glyph-name="m" unicode="m" horiz-adv-x="853" d="M771 43 Q771 22 757.5 11 Q744 0 727 0 Q711 0 698 11 Q685 22 685 42 L685 357 Q685 379 676.5 398 Q668 417 654 431.5 Q640 446 620.5 454.5 Q601 463 580 463 Q558 463 538.5 454.5 Q519 446 505 432 Q491 418 482.5 398.5 Q474 379 474 358 L474 43 Q474 22 461 11 Q448 0 431 0 Q414 0 401.5 11 Q389 22 389 42 L389 357 Q389 379 380.5 398 Q372 417 357.5 431.5 Q343 446 324 454.5 Q305 463 283 463 Q261 463 242 454.5 Q223 446 208.5 432 Q194 418 185.5 398.5 Q177 379 177 358 L177 43 Q177 22 163.5 11 Q150 0 133 0 Q117 0 104 11 Q91 22 91 42 L91 489 Q91 511 104.5 521.5 Q118 532 135 532 Q146 532 155.5 527.5 Q165 523 171 513 Q194 530 222.5 539 Q251 548 282 548 Q327 548 366 529 Q405 510 431 477 Q457 510 495.5 529 Q534 548 579 548 Q619 548 654 533 Q689 518 715 492.5 Q741 467 756 432 Q771 397 771 358 L771 43 L771 43 Z " />
<glyph glyph-name="n" unicode="n" horiz-adv-x="629" d="M547 43 Q547 22 534 11 Q521 0 504 0 Q487 0 474.5 11 Q462 22 462 42 L462 320 Q462 349 450.5 375 Q439 401 419.5 420.5 Q400 440 374 451.5 Q348 463 319 463 Q290 463 264.5 451.5 Q239 440 219.5 420.5 Q200 401 188.5 375 Q177 349 177 320 L177 43 Q177 22 163.5 10.5 Q150 -1 133 -1 Q117 -1 104 10 Q91 21 91 42 L91 489 Q91 511 104 521 Q117 531 133 531 Q148 531 160 523 Q172 515 176 498 Q205 521 241 534.5 Q277 548 319 548 Q366 548 407 530 Q448 512 479.5 481 Q511 450 529 408.5 Q547 367 547 320 L547 43 L547 43 Z " />
<glyph glyph-name="o" unicode="o" horiz-adv-x="638" d="M570 266 Q570 209 553.5 158 Q537 107 505 68 Q473 29 426 6 Q379 -17 319 -17 Q259 -17 212 6 Q165 29 133 68 Q101 107 84.5 158 Q68 209 68 266 Q68 322 84.5 373 Q101 424 133 463 Q165 502 212 525 Q259 548 319 548 Q379 548 426 525 Q473 502 505 463 Q537 424 553.5 373 Q570 322 570 266 Z M484 266 Q484 311 472.5 347 Q461 383 439.5 409 Q418 435 387.5 449 Q357 463 319 463 Q282 463 251.5 449 Q221 435 199 409 Q177 383 165.5 347 Q154 311 154 266 Q154 221 165.5 184.5 Q177 148 199 122 Q221 96 251.5 82 Q282 68 319 68 Q357 68 387.5 82 Q418 96 439.5 122 Q461 148 472.5 184.5 Q484 221 484 266 Z " />
<glyph glyph-name="p" unicode="p" horiz-adv-x="661" d="M593 267 Q593 210 576.5 158.5 Q560 107 528 68 Q496 29 449 6 Q402 -17 342 -17 Q289 -17 248 0 Q207 17 177 49 L177 -168 Q177 -189 163.5 -200 Q150 -211 133 -211 Q117 -211 104 -200 Q91 -189 91 -168 L91 488 Q91 509 104 520 Q117 531 133 531 Q150 531 163.5 520 Q177 509 177 488 Q195 506 220 519 Q241 530 271.5 539.5 Q302 549 342 549 Q402 549 449 526 Q496 503 528 464 Q560 425 576.5 374 Q593 323 593 267 Z M507 266 Q507 311 495.5 347.5 Q484 384 462 410 Q440 436 410 450 Q380 464 342 464 Q305 464 274.5 450 Q244 436 222.5 410 Q201 384 189 347.5 Q177 311 177 267 Q177 222 188.5 185.5 Q200 149 222 122.5 Q244 96 274.5 82 Q305 68 342 68 Q380 68 410 82 Q440 96 462 122 Q484 148 495.5 184.5 Q507 221 507 266 Z " />
<glyph glyph-name="q" unicode="q" horiz-adv-x="661" d="M570 -168 Q570 -189 557 -200 Q544 -211 527 -211 Q510 -211 497 -200 Q484 -189 484 -168 L484 48 Q422 -17 319 -17 Q259 -17 212 6 Q165 29 133 68 Q101 107 84.5 158 Q68 209 68 266 Q68 323 84.5 374 Q101 425 133 464 Q165 503 212 526 Q259 549 319 549 Q359 549 389.5 539.5 Q420 530 441 519 Q466 506 484 488 Q484 509 497 520 Q510 531 527 531 Q544 531 557 520 Q570 509 570 489 L570 -168 L570 -168 Z M484 266 Q484 311 472.5 347.5 Q461 384 439.5 410 Q418 436 387.5 450 Q357 464 319 464 Q282 464 251.5 450 Q221 436 199.5 410 Q178 384 166 347.5 Q154 311 154 267 Q154 222 165.5 185.5 Q177 149 199 122.5 Q221 96 251.5 82 Q282 68 319 68 Q357 68 387.5 82 Q418 96 439.5 122 Q461 148 472.5 184.5 Q484 221 484 266 Z " />
<glyph glyph-name="r" unicode="r" horiz-adv-x="370" d="M363 505 Q363 488 352 475.5 Q341 463 319 463 Q290 463 264.5 451.5 Q239 440 219.5 420.5 Q200 401 188.5 375 Q177 349 177 320 L177 43 Q177 22 163.5 11 Q150 0 133 0 Q117 0 104 11 Q91 22 91 42 L91 488 Q91 509 105 520 Q119 531 133 531 Q148 531 160.5 522.5 Q173 514 176 497 Q205 521 243 534.5 Q281 548 319 548 Q341 548 352 535 Q363 522 363 505 Z " />
<glyph glyph-name="s" unicode="s" horiz-adv-x="515" d="M463 144 Q463 100 446 69 Q429 38 400.5 19 Q372 0 335 -8.5 Q298 -17 258 -17 Q237 -17 211 -13.5 Q185 -10 158 -1.5 Q131 7 106.5 21.5 Q82 36 64 58 Q55 72 55 84 Q55 103 69.5 116 Q84 129 100 129 Q116 129 131 112 Q154 86 189 77 Q224 68 258 68 Q292 68 314.5 73.5 Q337 79 351 89 Q365 99 371 113 Q377 127 377 144 Q377 176 354.5 193 Q332 210 298 221 Q264 232 224.5 242 Q185 252 151 269.5 Q117 287 94.5 317.5 Q72 348 72 399 Q72 440 89.5 468.5 Q107 497 135 514.5 Q163 532 198 540 Q233 548 269 548 Q289 548 320 543 Q351 538 380 527.5 Q409 517 429.5 501.5 Q450 486 450 465 Q450 448 438 434 Q426 420 408 420 Q401 420 392 423.5 Q383 427 375 433 Q355 450 327 456.5 Q299 463 269 463 Q207 463 182 443.5 Q157 424 157 399 Q157 369 179.5 353.5 Q202 338 236 327.5 Q270 317 310 307 Q350 297 384 278.5 Q418 260 440.5 228.5 Q463 197 463 144 Z " />
<glyph glyph-name="t" unicode="t" horiz-adv-x="341" d="M302 43 Q302 25 291 12.5 Q280 0 260 0 L243 0 Q172 0 142 35.5 Q112 71 112 132 L112 446 L82 446 Q64 446 51.5 458.5 Q39 471 39 488 Q39 506 51.5 518.5 Q64 531 81 531 L111 531 L111 670 Q111 691 124 701.5 Q137 712 154 712 Q171 712 183.5 701.5 Q196 691 196 670 L196 531 L260 531 Q281 531 291.5 517 Q302 503 302 489 Q302 471 291 458.5 Q280 446 260 446 L196 446 L196 123 Q196 102 204.5 93.5 Q213 85 234 85 L259 85 Q279 85 290.5 72.5 Q302 60 302 43 Z " />
<glyph glyph-name="u" unicode="u" horiz-adv-x="629" d="M538 41 Q538 20 525.5 9.5 Q513 -1 496 -1 Q482 -1 469.5 7 Q457 15 454 32 Q424 9 388 -4.5 Q352 -18 310 -18 Q264 -18 222.5 0 Q181 18 149.5 49 Q118 80 100 121.5 Q82 163 82 210 L82 487 Q82 508 95 519 Q108 530 124 530 Q141 530 154.5 519 Q168 508 168 488 L168 210 Q168 181 179.5 155 Q191 129 210.5 109.5 Q230 90 255.5 78.5 Q281 67 310 67 Q339 67 365 78.5 Q391 90 410.5 109.5 Q430 129 441.5 155 Q453 181 453 210 L453 487 Q453 510 465.5 520.5 Q478 531 495 531 Q512 531 525 520 Q538 509 538 488 L538 41 L538 41 Z " />
<glyph glyph-name="v" unicode="v" horiz-adv-x="548" d="M503 491 Q503 481 499 472 L317 34 Q304 0 274 0 Q246 0 231 34 L49 472 Q46 483 46 490 Q46 508 59.5 519.5 Q73 531 90 531 Q101 531 111.5 525 Q122 519 128 505 L274 155 L420 505 Q425 519 436.5 525.5 Q448 532 459 532 Q476 532 489.5 521 Q503 510 503 491 Z " />
<glyph glyph-name="w" unicode="w" horiz-adv-x="796" d="M758 489 Q758 485 758 482 Q758 479 756 474 L601 35 Q588 0 557 0 Q541 0 531.5 7.5 Q522 15 515 35 L398 365 L280 35 Q268 0 237 0 Q207 0 195 35 L41 474 Q39 479 39 482 Q39 485 39 490 Q39 509 53 520 Q67 531 83 531 Q95 531 106 524.5 Q117 518 122 503 L238 169 L356 496 Q362 513 371 522 Q380 531 398 531 Q415 531 424.5 522.5 Q434 514 440 496 L557 169 L674 503 Q679 518 690 524.5 Q701 531 712 531 Q729 531 743.5 519.5 Q758 508 758 489 Z " />
<glyph glyph-name="x" unicode="x" horiz-adv-x="548" d="M514 42 Q514 24 500 11.5 Q486 -1 469 -1 Q449 -1 437 15 L274 214 L111 15 Q96 0 79 0 Q62 0 48 12.5 Q34 25 34 42 Q34 58 46 71 L218 282 L71 461 Q60 473 60 489 Q60 507 74 519.5 Q88 532 105 532 Q113 532 121.5 528.5 Q130 525 137 516 L274 348 L412 516 Q425 532 442 532 Q459 532 473.5 519.5 Q488 507 488 489 Q488 476 477 462 L329 282 L503 71 Q509 64 511.5 56.5 Q514 49 514 42 Z " />
<glyph glyph-name="y" unicode="y" horiz-adv-x="571" d="M529 490 Q529 480 524 471 L254 -143 Q239 -178 209 -194 Q179 -210 144 -210 L112 -210 Q90 -210 80 -196.5 Q70 -183 70 -166 Q70 -150 80 -137 Q90 -124 112 -124 L143 -124 Q153 -124 162 -121.5 Q171 -119 176 -108 L242 40 L47 471 Q42 480 42 490 Q42 509 56.5 520.5 Q71 532 88 532 Q112 532 124 506 L287 144 L446 506 Q452 520 462 525.5 Q472 531 483 531 Q500 531 514.5 519.5 Q529 508 529 490 Z " />
<glyph glyph-name="z" unicode="z" horiz-adv-x="542" d="M496 42 Q496 26 485 13 Q474 0 454 0 L96 0 Q78 0 68 5.5 Q58 11 53.5 18.5 Q49 26 48 34 Q47 42 47 48 Q47 53 49 59 Q51 65 56 70 L363 446 L89 446 Q67 446 56.5 458.5 Q46 471 46 488 Q46 505 56.5 518 Q67 531 88 531 L453 531 Q473 531 484 519 Q495 507 495 491 Q495 476 484 462 L179 85 L453 85 Q474 85 485 72 Q496 59 496 42 Z " />
<glyph glyph-name="braceleft" unicode="&#x7b;" horiz-adv-x="398" d="M365 -166 Q365 -183 354 -196.5 Q343 -210 321 -210 Q281 -210 245 -194.5 Q209 -179 182.5 -152.5 Q156 -126 140.5 -90.5 Q125 -55 125 -14 L125 174 Q125 192 112.5 205 Q100 218 82 218 Q62 218 51 230.5 Q40 243 40 260 Q40 277 51 290 Q62 303 82 303 Q100 303 112.5 316 Q125 329 125 347 L125 534 Q125 575 140.5 610.5 Q156 646 182.5 672.5 Q209 699 245 714.5 Q281 730 321 730 Q343 730 354 716.5 Q365 703 365 686 Q365 670 354 657 Q343 644 321 644 Q274 644 242.5 612.5 Q211 581 211 534 L211 347 Q211 296 178 261 Q211 223 211 174 L211 -14 Q211 -61 242.5 -92.5 Q274 -124 321 -124 Q343 -124 354 -137 Q365 -150 365 -166 Z " />
<glyph glyph-name="bar" unicode="&#x7c;" horiz-adv-x="268" d="M177 -166 Q177 -188 163.5 -199 Q150 -210 133 -210 Q117 -210 104 -199 Q91 -188 91 -166 L91 687 Q91 709 104 720 Q117 731 133 731 Q150 731 163.5 720 Q177 709 177 687 L177 -166 L177 -166 Z " />
<glyph glyph-name="braceright" unicode="&#x7d;" horiz-adv-x="398" d="M359 260 Q359 243 348 230.5 Q337 218 316 218 Q299 218 285.5 205 Q272 192 272 174 L272 -14 Q272 -55 257 -90.5 Q242 -126 215.5 -152.5 Q189 -179 153 -194.5 Q117 -210 76 -210 Q56 -210 45 -196.5 Q34 -183 34 -166 Q34 -150 45 -137 Q56 -124 76 -124 Q124 -124 155.5 -92.5 Q187 -61 187 -14 L187 174 Q187 199 195 221 Q203 243 220 260 Q187 296 187 347 L187 534 Q187 581 155.5 612.5 Q124 644 76 644 Q56 644 45 657 Q34 670 34 686 Q34 703 44.5 716.5 Q55 730 76 730 Q117 730 153 714.5 Q189 699 215.5 672.5 Q242 646 257 610.5 Q272 575 272 534 L272 347 Q272 329 285.5 316 Q299 303 316 303 Q337 303 348 290 Q359 277 359 260 Z " />
<glyph glyph-name="asciitilde" unicode="&#x7e;" horiz-adv-x="616" d="M507 679 Q507 662 492 650 Q465 622 441 611 Q417 600 396 600 Q370 600 347 611.5 Q324 623 303.5 636.5 Q283 650 264 661.5 Q245 673 226 673 Q216 673 206.5 667.5 Q197 662 188 655 Q179 648 170 642.5 Q161 637 152 637 Q135 637 121 650.5 Q107 664 107 682 Q107 697 120 710 Q147 738 173.5 749 Q200 760 223 760 Q252 760 277 748.5 Q302 737 323 723 Q344 709 361.5 697.5 Q379 686 392 686 Q400 686 408 692 Q416 698 424.5 704.5 Q433 711 443 717 Q453 723 463 723 Q481 723 494 709.5 Q507 696 507 679 Z " />
<glyph glyph-name="Adieresis" unicode="&#xc4;" horiz-adv-x="671" d="M638 42 Q638 23 624.5 11.5 Q611 0 594 0 Q583 0 572.5 6 Q562 12 556 26 L503 156 L170 156 L116 26 Q110 12 100 6 Q90 0 79 0 Q62 0 48 11.5 Q34 23 34 42 Q34 52 38 59 L295 684 Q304 704 315 709.5 Q326 715 336 715 Q343 715 356 709.5 Q369 704 377 684 L635 59 Q638 52 638 42 Z M336 560 L205 242 L467 242 L336 560 Z M519 923 Q519 894 499 873 Q479 852 449 852 Q419 852 398 872 Q377 892 377 922 Q377 952 398 973 Q419 994 449 994 Q479 994 499 973.5 Q519 953 519 923 Z M293 923 Q293 894 272 873 Q251 852 221 852 Q191 852 170.5 872 Q150 892 150 922 Q150 952 170.5 973 Q191 994 221 994 Q251 994 272 973.5 Q293 953 293 923 Z " />
<glyph glyph-name="Aring" unicode="&#xc5;" horiz-adv-x="671" d="M464 774 Q464 736 442.5 704 Q421 672 388 657 L635 59 Q638 52 638 42 Q638 23 624.5 11.5 Q611 0 594 0 Q583 0 572.5 6 Q562 12 556 26 L503 156 L170 156 L116 26 Q110 12 100 6 Q90 0 79 0 Q62 0 48 11.5 Q34 23 34 42 Q34 52 38 59 L283 656 Q249 671 227.5 703 Q206 735 206 774 Q206 800 216.5 823 Q227 846 244.5 863.5 Q262 881 285.5 891.5 Q309 902 335 902 Q361 902 384.5 891.5 Q408 881 425.5 863.5 Q443 846 453.5 823 Q464 800 464 774 Z M336 560 L205 242 L467 242 L336 560 Z M393 774 Q393 798 376 815 Q359 832 335 832 Q311 832 294 815 Q277 798 277 774 Q277 751 293 733 Q309 715 335 715 Q360 715 376.5 732.5 Q393 750 393 774 Z " />
<glyph glyph-name="Ccedilla" unicode="&#xc7;" horiz-adv-x="651" d="M481 -136 Q481 -160 472 -180.5 Q463 -201 447.5 -217 Q432 -233 411 -242 Q390 -251 366 -251 Q351 -251 334.5 -246 Q318 -241 304 -232.5 Q290 -224 281 -212.5 Q272 -201 272 -187 Q272 -170 285.5 -157 Q299 -144 316 -144 Q330 -144 341.5 -154.5 Q353 -165 366 -165 Q379 -165 387 -157 Q395 -149 395 -136 Q395 -119 384 -114 Q373 -109 359.5 -105.5 Q346 -102 335 -94.5 Q324 -87 324 -64 L324 -14 Q255 -6 207.5 27 Q160 60 130 110.5 Q100 161 87 224.5 Q74 288 74 356 Q74 430 89 497.5 Q104 565 138.5 616.5 Q173 668 228.5 699 Q284 730 365 730 Q441 730 496.5 701.5 Q552 673 587 621 Q596 609 596 596 Q596 578 582.5 566 Q569 554 552 554 Q532 554 518 572 Q495 606 458.5 625 Q422 644 365 644 Q258 644 209 569 Q160 494 160 356 Q160 218 209 143 Q258 68 365 68 Q422 68 458.5 88 Q495 108 518 141 Q531 160 552 160 Q569 160 583 147.5 Q597 135 597 117 Q597 106 588 92 Q556 48 512.5 21 Q469 -6 409 -14 L409 -30 Q440 -43 460.5 -71 Q481 -99 481 -136 Z " />
<glyph glyph-name="Eacute" unicode="&#xc9;" horiz-adv-x="661" d="M593 42 Q593 25 582 12.5 Q571 0 551 0 L135 0 Q117 0 104 12.5 Q91 25 91 42 L91 669 Q91 687 104 699.5 Q117 712 135 712 L551 712 Q571 712 582 699.5 Q593 687 593 670 Q593 654 582 640.5 Q571 627 551 627 L177 627 L177 425 L439 425 Q458 425 470 412 Q482 399 482 382 Q482 365 470.5 352 Q459 339 439 339 L177 339 L177 85 L551 85 Q571 85 582 72 Q593 59 593 42 Z M437 994 Q437 969 417 955 L295 862 Q282 852 267 852 Q249 852 236.5 864.5 Q224 877 224 894 Q224 911 238 926 L346 1036 Q360 1051 381 1051 Q404 1051 420.5 1034 Q437 1017 437 994 Z " />
<glyph glyph-name="Ntilde" unicode="&#xd1;" horiz-adv-x="684" d="M593 43 Q593 23 579.5 11.5 Q566 0 549 0 Q539 0 529.5 5.5 Q520 11 513 22 L177 527 L177 43 Q177 22 163.5 11 Q150 0 133 0 Q117 0 104 11 Q91 22 91 42 L91 669 Q91 690 104.5 701 Q118 712 135 712 Q157 712 171 691 L507 186 L507 669 Q507 691 520 701.5 Q533 712 549 712 Q566 712 579.5 701.5 Q593 691 593 670 L593 43 L593 43 Z M541 930 Q541 915 526 901 Q498 872 474.5 861 Q451 850 430 850 Q405 850 382 861.5 Q359 873 338.5 886.5 Q318 900 298.5 911 Q279 922 260 922 Q249 922 237.5 917.5 Q226 913 215 901 Q203 888 186 888 Q169 888 155 901.5 Q141 915 141 933 Q141 948 154 961 Q181 988 207.5 999.5 Q234 1011 257 1011 Q287 1011 312 999.5 Q337 988 358.5 974 Q380 960 397.5 948.5 Q415 937 428 937 Q434 937 441.5 943 Q449 949 458 955.5 Q467 962 477 968 Q487 974 497 974 Q515 974 528 960.5 Q541 947 541 930 Z " />
<glyph glyph-name="Odieresis" unicode="&#xd6;" horiz-adv-x="730" d="M656 356 Q656 283 640.5 215.5 Q625 148 590.5 96.5 Q556 45 500.5 14 Q445 -17 365 -17 Q284 -17 228.5 14 Q173 45 138.5 96.5 Q104 148 89 215.5 Q74 283 74 356 Q74 430 89 497.5 Q104 565 138.5 616.5 Q173 668 228.5 699 Q284 730 365 730 Q445 730 500.5 699 Q556 668 590.5 616.5 Q625 565 640.5 497.5 Q656 430 656 356 Z M570 356 Q570 494 520.5 569 Q471 644 365 644 Q258 644 209 569 Q160 494 160 356 Q160 218 209 143 Q258 68 365 68 Q471 68 520.5 143 Q570 218 570 356 Z M549 923 Q549 894 529 873 Q509 852 479 852 Q449 852 428 872 Q407 892 407 922 Q407 952 428 973 Q449 994 479 994 Q509 994 529 973.5 Q549 953 549 923 Z M323 923 Q323 894 302 873 Q281 852 251 852 Q221 852 200.5 872 Q180 892 180 922 Q180 952 200.5 973 Q221 994 251 994 Q281 994 302 973.5 Q323 953 323 923 Z " />
<glyph glyph-name="Udieresis" unicode="&#xdc;" horiz-adv-x="673" d="M587 233 Q587 182 567.5 136 Q548 90 514.5 56 Q481 22 435 2 Q389 -18 336 -18 Q285 -18 239 1.5 Q193 21 159 54.5 Q125 88 105 134 Q85 180 85 233 L85 670 Q85 691 98 701.5 Q111 712 128 712 Q145 712 158 701.5 Q171 691 171 670 L171 233 Q171 199 184 168.5 Q197 138 219.5 115.5 Q242 93 272 80 Q302 67 336 67 Q370 67 400.5 80 Q431 93 453.5 115.5 Q476 138 489 168.5 Q502 199 502 233 L502 669 Q502 691 514.5 701.5 Q527 712 544 712 Q561 712 574 701.5 Q587 691 587 670 L587 233 L587 233 Z M520 923 Q520 894 500 873 Q480 852 450 852 Q420 852 399 872 Q378 892 378 922 Q378 952 399 973 Q420 994 450 994 Q480 994 500 973.5 Q520 953 520 923 Z M294 923 Q294 894 273 873 Q252 852 222 852 Q192 852 171.5 872 Q151 892 151 922 Q151 952 171.5 973 Q192 994 222 994 Q252 994 273 973.5 Q294 953 294 923 Z " />
<glyph glyph-name="ccedilla" unicode="&#xe7;" horiz-adv-x="567" d="M434 -136 Q434 -160 425 -180.5 Q416 -201 400.5 -217 Q385 -233 364 -242 Q343 -251 319 -251 Q304 -251 287.5 -246 Q271 -241 257 -232.5 Q243 -224 234 -212.5 Q225 -201 225 -187 Q225 -170 238.5 -157 Q252 -144 269 -144 Q283 -144 294.5 -154.5 Q306 -165 319 -165 Q332 -165 340 -157 Q348 -149 348 -136 Q348 -119 337 -114 Q326 -109 312.5 -105.5 Q299 -102 288 -94.5 Q277 -87 277 -64 L277 -13 Q226 -6 187 19.5 Q148 45 121.5 82.5 Q95 120 81.5 167 Q68 214 68 266 Q68 322 84.5 373 Q101 424 133 463 Q165 502 212 525 Q259 548 319 548 Q375 548 420 528.5 Q465 509 498 472 Q510 459 510 443 Q510 426 496 413 Q482 400 465 400 Q449 400 434 414 Q413 437 385 450 Q357 463 319 463 Q282 463 251.5 449 Q221 435 199 409 Q177 383 165.5 347 Q154 311 154 266 Q154 221 165.5 184.5 Q177 148 199 122 Q221 96 251.5 82 Q282 68 319 68 Q357 68 385.5 81 Q414 94 434 117 Q441 125 449 128.5 Q457 132 465 132 Q482 132 496 119 Q510 106 510 88 Q510 73 498 59 Q445 0 362 -14 L362 -30 Q393 -43 413.5 -71 Q434 -99 434 -136 Z " />
<glyph glyph-name="iacute" unicode="&#xed;" horiz-adv-x="274" d="M179 42 Q179 21 166 10.5 Q153 0 137 0 Q120 0 106.5 11 Q93 22 93 42 L93 488 Q93 509 106.5 520 Q120 531 137 531 Q153 531 166 520 Q179 509 179 488 L179 42 L179 42 Z M244 766 Q244 741 224 727 L102 634 Q89 624 74 624 Q56 624 43.5 636.5 Q31 649 31 666 Q31 683 45 698 L153 808 Q167 823 188 823 Q211 823 227.5 806 Q244 789 244 766 Z " />
<glyph glyph-name="igrave" unicode="&#xec;" horiz-adv-x="274" d="M179 42 Q179 21 166 10.5 Q153 0 137 0 Q120 0 106.5 11 Q93 22 93 42 L93 488 Q93 509 106.5 520 Q120 531 137 531 Q153 531 166 520 Q179 509 179 488 L179 42 L179 42 Z M244 667 Q244 650 231.5 637 Q219 624 202 624 Q186 624 172 635 L50 727 Q40 734 35.5 745 Q31 756 31 767 Q31 790 48 806.5 Q65 823 87 823 Q96 823 105 819.5 Q114 816 122 808 L229 699 Q244 684 244 667 Z " />
<glyph glyph-name="icircumflex" unicode="&#xee;" horiz-adv-x="274" d="M179 42 Q179 21 166 10.5 Q153 0 137 0 Q120 0 106.5 11 Q93 22 93 42 L93 488 Q93 509 106.5 520 Q120 531 137 531 Q153 531 166 520 Q179 509 179 488 L179 42 L179 42 Z M315 667 Q315 650 303.5 637 Q292 624 272 624 Q267 624 261.5 625 Q256 626 250 629 L137 689 L24 629 Q14 624 1 624 Q-17 624 -29 637 Q-41 650 -41 667 Q-41 676 -35.5 686 Q-30 696 -19 703 L111 781 Q117 784 123.5 787 Q130 790 137 790 Q144 790 150.5 787 Q157 784 163 781 L293 703 Q305 696 310 686 Q315 676 315 667 Z " />
<glyph glyph-name="idieresis" unicode="&#xef;" horiz-adv-x="274" d="M179 42 Q179 21 166 10.5 Q153 0 137 0 Q120 0 106.5 11 Q93 22 93 42 L93 488 Q93 509 106.5 520 Q120 531 137 531 Q153 531 166 520 Q179 509 179 488 L179 42 L179 42 Z M321 695 Q321 666 301 645 Q281 624 251 624 Q221 624 200 644 Q179 664 179 694 Q179 724 200 745 Q221 766 251 766 Q281 766 301 745.5 Q321 725 321 695 Z M95 695 Q95 666 74 645 Q53 624 23 624 Q-7 624 -27.5 644 Q-48 664 -48 694 Q-48 724 -27.5 745 Q-7 766 23 766 Q53 766 74 745.5 Q95 725 95 695 Z " />
<glyph glyph-name="ntilde" unicode="&#xf1;" horiz-adv-x="629" d="M547 43 Q547 22 534 11 Q521 0 504 0 Q487 0 474.5 11 Q462 22 462 42 L462 320 Q462 349 450.5 375 Q439 401 419.5 420.5 Q400 440 374 451.5 Q348 463 319 463 Q290 463 264.5 451.5 Q239 440 219.5 420.5 Q200 401 188.5 375 Q177 349 177 320 L177 43 Q177 22 163.5 10.5 Q150 -1 133 -1 Q117 -1 104 10 Q91 21 91 42 L91 489 Q91 511 104 521 Q117 531 133 531 Q148 531 160 523 Q172 515 176 498 Q205 521 241 534.5 Q277 548 319 548 Q366 548 407 530 Q448 512 479.5 481 Q511 450 529 408.5 Q547 367 547 320 L547 43 L547 43 Z M514 702 Q514 687 499 673 Q471 644 447.5 633 Q424 622 403 622 Q378 622 355 633.5 Q332 645 311.5 658.5 Q291 672 271.5 683 Q252 694 233 694 Q222 694 210.5 689.5 Q199 685 188 673 Q176 660 159 660 Q142 660 128 673.5 Q114 687 114 705 Q114 720 127 733 Q154 760 180.5 771.5 Q207 783 230 783 Q260 783 285 771.5 Q310 760 331.5 746 Q353 732 370.5 720.5 Q388 709 401 709 Q407 709 414.5 715 Q422 721 431 727.5 Q440 734 450 740 Q460 746 470 746 Q488 746 501 732.5 Q514 719 514 702 Z " />
<glyph glyph-name="oacute" unicode="&#xf3;" horiz-adv-x="638" d="M570 266 Q570 209 553.5 158 Q537 107 505 68 Q473 29 426 6 Q379 -17 319 -17 Q259 -17 212 6 Q165 29 133 68 Q101 107 84.5 158 Q68 209 68 266 Q68 322 84.5 373 Q101 424 133 463 Q165 502 212 525 Q259 548 319 548 Q379 548 426 525 Q473 502 505 463 Q537 424 553.5 373 Q570 322 570 266 Z M484 266 Q484 311 472.5 347 Q461 383 439.5 409 Q418 435 387.5 449 Q357 463 319 463 Q282 463 251.5 449 Q221 435 199 409 Q177 383 165.5 347 Q154 311 154 266 Q154 221 165.5 184.5 Q177 148 199 122 Q221 96 251.5 82 Q282 68 319 68 Q357 68 387.5 82 Q418 96 439.5 122 Q461 148 472.5 184.5 Q484 221 484 266 Z M425 766 Q425 741 405 727 L283 634 Q270 624 255 624 Q237 624 224.5 636.5 Q212 649 212 666 Q212 683 226 698 L334 808 Q348 823 369 823 Q392 823 408.5 806 Q425 789 425 766 Z " />
<glyph glyph-name="ograve" unicode="&#xf2;" horiz-adv-x="638" d="M570 266 Q570 209 553.5 158 Q537 107 505 68 Q473 29 426 6 Q379 -17 319 -17 Q259 -17 212 6 Q165 29 133 68 Q101 107 84.5 158 Q68 209 68 266 Q68 322 84.5 373 Q101 424 133 463 Q165 502 212 525 Q259 548 319 548 Q379 548 426 525 Q473 502 505 463 Q537 424 553.5 373 Q570 322 570 266 Z M484 266 Q484 311 472.5 347 Q461 383 439.5 409 Q418 435 387.5 449 Q357 463 319 463 Q282 463 251.5 449 Q221 435 199 409 Q177 383 165.5 347 Q154 311 154 266 Q154 221 165.5 184.5 Q177 148 199 122 Q221 96 251.5 82 Q282 68 319 68 Q357 68 387.5 82 Q418 96 439.5 122 Q461 148 472.5 184.5 Q484 221 484 266 Z M425 667 Q425 650 412.5 637 Q400 624 383 624 Q367 624 353 635 L231 727 Q221 734 216.5 745 Q212 756 212 767 Q212 790 229 806.5 Q246 823 268 823 Q277 823 286 819.5 Q295 816 303 808 L410 699 Q425 684 425 667 Z " />
<glyph glyph-name="ocircumflex" unicode="&#xf4;" horiz-adv-x="638" d="M570 266 Q570 209 553.5 158 Q537 107 505 68 Q473 29 426 6 Q379 -17 319 -17 Q259 -17 212 6 Q165 29 133 68 Q101 107 84.5 158 Q68 209 68 266 Q68 322 84.5 373 Q101 424 133 463 Q165 502 212 525 Q259 548 319 548 Q379 548 426 525 Q473 502 505 463 Q537 424 553.5 373 Q570 322 570 266 Z M484 266 Q484 311 472.5 347 Q461 383 439.5 409 Q418 435 387.5 449 Q357 463 319 463 Q282 463 251.5 449 Q221 435 199 409 Q177 383 165.5 347 Q154 311 154 266 Q154 221 165.5 184.5 Q177 148 199 122 Q221 96 251.5 82 Q282 68 319 68 Q357 68 387.5 82 Q418 96 439.5 122 Q461 148 472.5 184.5 Q484 221 484 266 Z M497 667 Q497 650 485.5 637 Q474 624 454 624 Q449 624 443.5 625 Q438 626 432 629 L319 689 L206 629 Q196 624 183 624 Q165 624 153 637 Q141 650 141 667 Q141 676 146.5 686 Q152 696 163 703 L293 781 Q299 784 305.5 787 Q312 790 319 790 Q326 790 332.5 787 Q339 784 345 781 L475 703 Q487 696 492 686 Q497 676 497 667 Z " />
<glyph glyph-name="odieresis" unicode="&#xf6;" horiz-adv-x="638" d="M570 266 Q570 209 553.5 158 Q537 107 505 68 Q473 29 426 6 Q379 -17 319 -17 Q259 -17 212 6 Q165 29 133 68 Q101 107 84.5 158 Q68 209 68 266 Q68 322 84.5 373 Q101 424 133 463 Q165 502 212 525 Q259 548 319 548 Q379 548 426 525 Q473 502 505 463 Q537 424 553.5 373 Q570 322 570 266 Z M484 266 Q484 311 472.5 347 Q461 383 439.5 409 Q418 435 387.5 449 Q357 463 319 463 Q282 463 251.5 449 Q221 435 199 409 Q177 383 165.5 347 Q154 311 154 266 Q154 221 165.5 184.5 Q177 148 199 122 Q221 96 251.5 82 Q282 68 319 68 Q357 68 387.5 82 Q418 96 439.5 122 Q461 148 472.5 184.5 Q484 221 484 266 Z M503 695 Q503 666 483 645 Q463 624 433 624 Q403 624 382 644 Q361 664 361 694 Q361 724 382 745 Q403 766 433 766 Q463 766 483 745.5 Q503 725 503 695 Z M277 695 Q277 666 256 645 Q235 624 205 624 Q175 624 154.5 644 Q134 664 134 694 Q134 724 154.5 745 Q175 766 205 766 Q235 766 256 745.5 Q277 725 277 695 Z " />
<glyph glyph-name="otilde" unicode="&#xf5;" horiz-adv-x="638" d="M570 266 Q570 209 553.5 158 Q537 107 505 68 Q473 29 426 6 Q379 -17 319 -17 Q259 -17 212 6 Q165 29 133 68 Q101 107 84.5 158 Q68 209 68 266 Q68 322 84.5 373 Q101 424 133 463 Q165 502 212 525 Q259 548 319 548 Q379 548 426 525 Q473 502 505 463 Q537 424 553.5 373 Q570 322 570 266 Z M484 266 Q484 311 472.5 347 Q461 383 439.5 409 Q418 435 387.5 449 Q357 463 319 463 Q282 463 251.5 449 Q221 435 199 409 Q177 383 165.5 347 Q154 311 154 266 Q154 221 165.5 184.5 Q177 148 199 122 Q221 96 251.5 82 Q282 68 319 68 Q357 68 387.5 82 Q418 96 439.5 122 Q461 148 472.5 184.5 Q484 221 484 266 Z M518 702 Q518 687 503 673 Q475 644 451.5 633 Q428 622 407 622 Q382 622 359 633.5 Q336 645 315.5 658.5 Q295 672 275.5 683 Q256 694 237 694 Q226 694 214.5 689.5 Q203 685 192 673 Q180 660 163 660 Q146 660 132 673.5 Q118 687 118 705 Q118 720 131 733 Q158 760 184.5 771.5 Q211 783 234 783 Q264 783 289 771.5 Q314 760 335.5 746 Q357 732 374.5 720.5 Q392 709 405 709 Q411 709 418.5 715 Q426 721 435 727.5 Q444 734 454 740 Q464 746 474 746 Q492 746 505 732.5 Q518 719 518 702 Z " />
<glyph glyph-name="uacute" unicode="&#xfa;" horiz-adv-x="629" d="M538 41 Q538 20 525.5 9.5 Q513 -1 496 -1 Q482 -1 469.5 7 Q457 15 454 32 Q424 9 388 -4.5 Q352 -18 310 -18 Q264 -18 222.5 0 Q181 18 149.5 49 Q118 80 100 121.5 Q82 163 82 210 L82 487 Q82 508 95 519 Q108 530 124 530 Q141 530 154.5 519 Q168 508 168 488 L168 210 Q168 181 179.5 155 Q191 129 210.5 109.5 Q230 90 255.5 78.5 Q281 67 310 67 Q339 67 365 78.5 Q391 90 410.5 109.5 Q430 129 441.5 155 Q453 181 453 210 L453 487 Q453 510 465.5 520.5 Q478 531 495 531 Q512 531 525 520 Q538 509 538 488 L538 41 L538 41 Z M421 766 Q421 741 401 727 L279 634 Q266 624 251 624 Q233 624 220.5 636.5 Q208 649 208 666 Q208 683 222 698 L330 808 Q344 823 365 823 Q388 823 404.5 806 Q421 789 421 766 Z " />
<glyph glyph-name="ugrave" unicode="&#xf9;" horiz-adv-x="629" d="M538 41 Q538 20 525.5 9.5 Q513 -1 496 -1 Q482 -1 469.5 7 Q457 15 454 32 Q424 9 388 -4.5 Q352 -18 310 -18 Q264 -18 222.5 0 Q181 18 149.5 49 Q118 80 100 121.5 Q82 163 82 210 L82 487 Q82 508 95 519 Q108 530 124 530 Q141 530 154.5 519 Q168 508 168 488 L168 210 Q168 181 179.5 155 Q191 129 210.5 109.5 Q230 90 255.5 78.5 Q281 67 310 67 Q339 67 365 78.5 Q391 90 410.5 109.5 Q430 129 441.5 155 Q453 181 453 210 L453 487 Q453 510 465.5 520.5 Q478 531 495 531 Q512 531 525 520 Q538 509 538 488 L538 41 L538 41 Z M421 667 Q421 650 408.5 637 Q396 624 379 624 Q363 624 349 635 L227 727 Q217 734 212.5 745 Q208 756 208 767 Q208 790 225 806.5 Q242 823 264 823 Q273 823 282 819.5 Q291 816 299 808 L406 699 Q421 684 421 667 Z " />
<glyph glyph-name="ucircumflex" unicode="&#xfb;" horiz-adv-x="629" d="M538 41 Q538 20 525.5 9.5 Q513 -1 496 -1 Q482 -1 469.5 7 Q457 15 454 32 Q424 9 388 -4.5 Q352 -18 310 -18 Q264 -18 222.5 0 Q181 18 149.5 49 Q118 80 100 121.5 Q82 163 82 210 L82 487 Q82 508 95 519 Q108 530 124 530 Q141 530 154.5 519 Q168 508 168 488 L168 210 Q168 181 179.5 155 Q191 129 210.5 109.5 Q230 90 255.5 78.5 Q281 67 310 67 Q339 67 365 78.5 Q391 90 410.5 109.5 Q430 129 441.5 155 Q453 181 453 210 L453 487 Q453 510 465.5 520.5 Q478 531 495 531 Q512 531 525 520 Q538 509 538 488 L538 41 L538 41 Z M493 667 Q493 650 481.5 637 Q470 624 450 624 Q445 624 439.5 625 Q434 626 428 629 L315 689 L202 629 Q192 624 179 624 Q161 624 149 637 Q137 650 137 667 Q137 676 142.5 686 Q148 696 159 703 L289 781 Q295 784 301.5 787 Q308 790 315 790 Q322 790 328.5 787 Q335 784 341 781 L471 703 Q483 696 488 686 Q493 676 493 667 Z " />
<glyph glyph-name="udieresis" unicode="&#xfc;" horiz-adv-x="629" d="M538 41 Q538 20 525.5 9.5 Q513 -1 496 -1 Q482 -1 469.5 7 Q457 15 454 32 Q424 9 388 -4.5 Q352 -18 310 -18 Q264 -18 222.5 0 Q181 18 149.5 49 Q118 80 100 121.5 Q82 163 82 210 L82 487 Q82 508 95 519 Q108 530 124 530 Q141 530 154.5 519 Q168 508 168 488 L168 210 Q168 181 179.5 155 Q191 129 210.5 109.5 Q230 90 255.5 78.5 Q281 67 310 67 Q339 67 365 78.5 Q391 90 410.5 109.5 Q430 129 441.5 155 Q453 181 453 210 L453 487 Q453 510 465.5 520.5 Q478 531 495 531 Q512 531 525 520 Q538 509 538 488 L538 41 L538 41 Z M499 695 Q499 666 479 645 Q459 624 429 624 Q399 624 378 644 Q357 664 357 694 Q357 724 378 745 Q399 766 429 766 Q459 766 479 745.5 Q499 725 499 695 Z M273 695 Q273 666 252 645 Q231 624 201 624 Q171 624 150.5 644 Q130 664 130 694 Q130 724 150.5 745 Q171 766 201 766 Q231 766 252 745.5 Q273 725 273 695 Z " />
<glyph glyph-name="dagger" unicode="&#x2020;" horiz-adv-x="456" d="M398 669 Q398 653 387 640 Q376 627 356 627 L270 627 L270 314 Q270 292 257 281.5 Q244 271 227 271 Q210 271 197.5 281.5 Q185 292 185 314 L185 627 L99 627 Q78 627 67.5 640 Q57 653 57 669 Q57 686 67.5 699 Q78 712 99 712 L184 712 L184 812 Q184 833 196.5 844 Q209 855 226 855 Q243 855 256 844 Q269 833 269 813 L269 712 L355 712 Q376 712 387 699 Q398 686 398 669 Z " />
<glyph glyph-name="degree" unicode="&#xb0;" horiz-adv-x="451" d="M383 611 Q383 575 370.5 543 Q358 511 336.5 487 Q315 463 286.5 449 Q258 435 226 435 Q193 435 164.5 449 Q136 463 114.5 487 Q93 511 80.5 543 Q68 575 68 611 Q68 647 80.5 679 Q93 711 114.5 735 Q136 759 164.5 773 Q193 787 226 787 Q258 787 286.5 773 Q315 759 336.5 735 Q358 711 370.5 679 Q383 647 383 611 Z M298 611 Q298 633 291.5 649.5 Q285 666 274.5 677.5 Q264 689 251 695 Q238 701 226 701 Q214 701 201.5 695 Q189 689 178.5 677.5 Q168 666 161 649.5 Q154 633 154 611 Q154 589 161 572.5 Q168 556 178.5 544.5 Q189 533 201.5 527 Q214 521 226 521 Q238 521 251 527 Q264 533 274.5 544.5 Q285 556 291.5 572.5 Q298 589 298 611 Z " />
<glyph glyph-name="cent" unicode="&#xa2;" horiz-adv-x="575" d="M510 88 Q510 73 498 59 Q472 31 438 12 Q404 -7 363 -14 L363 -156 Q363 -177 349.5 -187.5 Q336 -198 319 -198 Q303 -198 290 -187.5 Q277 -177 277 -156 L277 -14 Q227 -6 188 20 Q149 46 122.5 83.5 Q96 121 82 168 Q68 215 68 266 Q68 317 82 363.5 Q96 410 122.5 447.5 Q149 485 187.5 511 Q226 537 276 545 L276 686 Q276 708 288.5 719 Q301 730 318 730 Q335 730 348 719 Q361 708 361 687 L361 545 Q382 542 408 532 Q434 522 456.5 508.5 Q479 495 494.5 478 Q510 461 510 443 Q510 426 496 413 Q482 400 465 400 Q449 400 434 414 Q413 437 385 450 Q357 463 319 463 Q282 463 251.5 449 Q221 435 199 409 Q177 383 165.5 347 Q154 311 154 266 Q154 221 165.5 184.5 Q177 148 199 122 Q221 96 251.5 82 Q282 68 319 68 Q357 68 385.5 81 Q414 94 434 117 Q441 125 449 128.5 Q457 132 465 132 Q482 132 496 119 Q510 106 510 88 Z " />
<glyph glyph-name="sterling" unicode="&#xa3;" horiz-adv-x="571" d="M544 99 Q544 78 536 60 Q528 42 514 28.5 Q500 15 482 7.5 Q464 0 443 0 L99 0 Q78 0 67.5 13 Q57 26 57 42 Q57 59 67.5 72 Q78 85 99 85 L113 85 Q144 85 156.5 102 Q169 119 169 140 L169 355 L119 355 Q97 355 86 367.5 Q75 380 75 397 Q75 414 86 427 Q97 440 117 440 L169 440 L169 593 Q169 621 179.5 646 Q190 671 208.5 689.5 Q227 708 251.5 719 Q276 730 304 730 Q334 730 359.5 718.5 Q385 707 403 688 Q421 669 431 644 Q441 619 441 593 Q441 572 427 560.5 Q413 549 397 549 Q381 549 368.5 560 Q356 571 356 593 Q356 600 353 608.5 Q350 617 344 625 Q338 633 328 638.5 Q318 644 304 644 Q281 644 267 628.5 Q253 613 253 593 L253 439 L385 439 Q407 439 418 426 Q429 413 429 396 Q429 379 418 366 Q407 353 386 353 L253 353 L253 132 Q253 123 249.5 110 Q246 97 242 85 L443 85 Q449 85 453.5 89 Q458 93 458 99 Q458 117 470.5 130 Q483 143 500 143 Q518 143 531 130 Q544 117 544 99 Z " />
<glyph glyph-name="section" unicode="&#xa7;" horiz-adv-x="515" d="M440 599 Q440 581 426.5 568 Q413 555 396 555 Q381 555 369 569 Q357 583 342 599.5 Q327 616 308 630 Q289 644 261 644 Q224 644 199 619 Q174 594 174 557 Q174 536 183.5 518.5 Q193 501 213 483 Q222 475 248 453 Q274 431 302.5 405 Q331 379 356.5 355 Q382 331 391 319 Q414 294 426.5 266.5 Q439 239 439 202 Q439 170 427.5 142 Q416 114 393 91 Q411 68 421.5 42.5 Q432 17 432 -15 Q432 -51 418.5 -82.5 Q405 -114 381.5 -137.5 Q358 -161 327 -174.5 Q296 -188 260 -188 Q224 -188 195.5 -175.5 Q167 -163 145.5 -146 Q124 -129 109.5 -110 Q95 -91 87 -79 Q80 -68 80 -56 Q80 -39 93.5 -26.5 Q107 -14 124 -14 Q139 -14 152 -28 Q165 -42 179.5 -58.5 Q194 -75 212.5 -89 Q231 -103 259 -103 Q296 -103 321.5 -77.5 Q347 -52 347 -15 Q347 7 337.5 23 Q328 39 308 59 Q269 97 243.5 119.5 Q218 142 199 158 Q180 174 164.5 188 Q149 202 130 223 Q107 249 94.5 275.5 Q82 302 82 340 Q82 372 93 399.5 Q104 427 127 450 L128 451 Q110 474 99.5 499.5 Q89 525 89 557 Q89 593 102.5 624.5 Q116 656 139.5 679.5 Q163 703 194 716.5 Q225 730 261 730 Q297 730 325.5 718 Q354 706 375 688.5 Q396 671 410.5 652.5 Q425 634 433 621 Q440 610 440 599 Z M353 202 Q353 237 321 270 Q316 276 299 292.5 Q282 309 261.5 328 Q241 347 222 363.5 Q203 380 194 385 L188 391 L187 390 Q176 379 172 366.5 Q168 354 168 340 Q168 320 175.5 304.5 Q183 289 199 272 Q205 267 222.5 250.5 Q240 234 260 215.5 Q280 197 299 180 Q318 163 327 157 L333 152 L334 153 Q345 164 349 176.5 Q353 189 353 202 Z " />
<glyph glyph-name="bullet" unicode="&#x2022;" horiz-adv-x="394" d="M320 368 Q320 342 310 319.5 Q300 297 282.5 280 Q265 263 242.5 253 Q220 243 194 243 Q169 243 146 253 Q123 263 106 280 Q89 297 78.5 319.5 Q68 342 68 368 Q68 394 78.5 417 Q89 440 106 457 Q123 474 146 484 Q169 494 194 494 Q220 494 242.5 484 Q265 474 282.5 457 Q300 440 310 417 Q320 394 320 368 Z " />
<glyph glyph-name="paragraph" unicode="&#xb6;" horiz-adv-x="690" d="M599 -166 Q599 -188 585.5 -199 Q572 -210 555 -210 Q539 -210 526 -199 Q513 -188 513 -168 L513 669 Q513 691 526 701.5 Q539 712 555 712 Q572 712 585.5 701.5 Q599 691 599 670 L599 -166 L599 -166 Z M456 -166 Q456 -188 443 -199 Q430 -210 413 -210 Q396 -210 383 -199 Q370 -188 370 -168 L370 308 L270 308 Q228 308 191 324 Q154 340 127 367.5 Q100 395 84 432 Q68 469 68 511 Q68 553 84 589.5 Q100 626 127.5 653 Q155 680 192 696 Q229 712 271 712 L414 712 Q431 712 443.5 699 Q456 686 456 669 L456 -166 L456 -166 Z M370 627 L270 627 Q246 627 225 618 Q204 609 188 593 Q172 577 163 555.5 Q154 534 154 510 Q154 486 163 464.5 Q172 443 188 427.5 Q204 412 225.5 402.5 Q247 393 271 393 L370 393 L370 627 Z " />
<glyph glyph-name="germandbls" unicode="&#xdf;" horiz-adv-x="578" d="M527 212 Q527 169 510.5 130 Q494 91 465 62.5 Q436 34 397.5 17 Q359 0 315 0 L288 0 Q270 0 257.5 12.5 Q245 25 245 42 Q245 58 251.5 67 Q258 76 269.5 80.5 Q281 85 296.5 86.5 Q312 88 329 88 Q353 88 373.5 98 Q394 108 409 125.5 Q424 143 432.5 165.5 Q441 188 441 212 Q441 239 431 262 Q421 285 404 302 Q387 319 364 329 Q341 339 315 339 L274 339 Q252 339 241.5 351.5 Q231 364 231 381 Q231 398 241.5 411 Q252 424 274 424 L299 424 Q320 424 338.5 432 Q357 440 370.5 454 Q384 468 392 486.5 Q400 505 400 526 Q400 547 392 565 Q384 583 370.5 597 Q357 611 338.5 619 Q320 627 299 627 L271 627 Q251 627 234 619.5 Q217 612 204 599.5 Q191 587 184 570 Q177 553 177 534 L177 43 Q177 22 163.5 11 Q150 0 133 0 Q117 0 104 11 Q91 22 91 42 L91 532 Q91 570 105 602.5 Q119 635 143.5 659.5 Q168 684 200.5 698 Q233 712 270 712 L299 712 Q337 712 371 697.5 Q405 683 430.5 657.5 Q456 632 471 598.5 Q486 565 486 527 Q486 486 470 451 Q454 416 426 391 Q472 364 499.5 317.5 Q527 271 527 212 Z " />
<glyph glyph-name="registered" unicode="&#xae;" horiz-adv-x="780" d="M723 333 Q723 264 696.5 203.5 Q670 143 625 97.5 Q580 52 519.5 26 Q459 0 390 0 Q321 0 260.5 26 Q200 52 154.5 97.5 Q109 143 83 203.5 Q57 264 57 333 Q57 402 83 462.5 Q109 523 154.5 568 Q200 613 260.5 639.5 Q321 666 390 666 Q459 666 519.5 639.5 Q580 613 625 568 Q670 523 696.5 462.5 Q723 402 723 333 Z M651 333 Q651 387 630.5 435 Q610 483 575 518.5 Q540 554 492 574.5 Q444 595 390 595 Q336 595 288 574.5 Q240 554 204.5 518.5 Q169 483 148.5 435 Q128 387 128 333 Q128 279 148.5 231 Q169 183 204.5 147.5 Q240 112 288 91.5 Q336 71 390 71 Q444 71 492 91.5 Q540 112 575 147.5 Q610 183 630.5 231 Q651 279 651 333 Z M523 189 Q523 175 512 165 Q501 155 487 155 Q480 155 472 158.5 Q464 162 459 170 L372 296 L342 296 L342 190 Q342 173 331.5 164.5 Q321 156 308 156 Q295 156 284.5 164 Q274 172 274 189 L274 465 Q274 483 286.5 495.5 Q299 508 316 508 L424 508 Q448 508 466.5 498 Q485 488 497 472.5 Q509 457 515.5 438 Q522 419 522 402 Q522 367 502 339.5 Q482 312 451 302 L515 210 Q523 199 523 189 Z M454 402 Q454 419 444 429 Q434 439 420 439 L342 439 L342 366 L421 366 Q434 366 444 375.5 Q454 385 454 402 Z " />
<glyph glyph-name="copyright" unicode="&#xa9;" horiz-adv-x="780" d="M723 333 Q723 264 696.5 203.5 Q670 143 625 97.5 Q580 52 519.5 26 Q459 0 390 0 Q321 0 260.5 26 Q200 52 154.5 97.5 Q109 143 83 203.5 Q57 264 57 333 Q57 402 83 462.5 Q109 523 154.5 568 Q200 613 260.5 639.5 Q321 666 390 666 Q459 666 519.5 639.5 Q580 613 625 568 Q670 523 696.5 462.5 Q723 402 723 333 Z M651 333 Q651 387 630.5 435 Q610 483 575 518.5 Q540 554 492 574.5 Q444 595 390 595 Q336 595 288 574.5 Q240 554 204.5 518.5 Q169 483 148.5 435 Q128 387 128 333 Q128 279 148.5 231 Q169 183 204.5 147.5 Q240 112 288 91.5 Q336 71 390 71 Q444 71 492 91.5 Q540 112 575 147.5 Q610 183 630.5 231 Q651 279 651 333 Z M507 222 Q507 213 500 203 Q483 177 455 162 Q427 147 390 147 Q350 147 323 163 Q296 179 279 205 Q262 231 254.5 264 Q247 297 247 332 Q247 367 254.5 400 Q262 433 279 458.5 Q296 484 323 500 Q350 516 390 516 Q427 516 453.5 502 Q480 488 499 462 Q507 451 507 441 Q507 427 496 417 Q485 407 471 407 Q461 407 453.5 413.5 Q446 420 438 427.5 Q430 435 419 441.5 Q408 448 390 448 Q355 448 335.5 421 Q316 394 316 332 Q316 270 335.5 242.5 Q355 215 390 215 Q409 215 420 221.5 Q431 228 439 236.5 Q447 245 454 251.5 Q461 258 471 258 Q485 258 496 247.5 Q507 237 507 222 Z " />
<glyph glyph-name="trademark" unicode="&#x2122;" horiz-adv-x="969" d="M879 285 Q879 264 866 253.5 Q853 243 836 243 Q819 243 806 253.5 Q793 264 793 285 L793 512 L702 348 Q688 321 662 321 Q640 321 624 348 L531 512 L531 285 Q531 264 518.5 253 Q506 242 489 242 Q472 242 459.5 253 Q447 264 447 284 L447 668 Q447 690 458.5 702 Q470 714 486 714 Q497 714 508 708.5 Q519 703 527 689 L662 449 L799 690 Q806 703 816.5 709 Q827 715 838 715 Q855 715 867 703 Q879 691 879 668 L879 285 L879 285 Z M413 669 Q413 653 402 640 Q391 627 369 627 L282 627 L282 285 Q282 264 269 253 Q256 242 239 242 Q223 242 209.5 253 Q196 264 196 284 L196 627 L107 627 Q86 627 75.5 640 Q65 653 65 669 Q65 686 75.5 699 Q86 712 107 712 L369 712 Q391 712 402 699 Q413 686 413 669 Z " />
<glyph glyph-name="acute" unicode="&#xb4;" horiz-adv-x="616" d="M414 766 Q414 741 394 727 L272 634 Q259 624 244 624 Q226 624 213.5 636.5 Q201 649 201 666 Q201 683 215 698 L323 808 Q337 823 358 823 Q381 823 397.5 806 Q414 789 414 766 Z " />
<glyph glyph-name="dieresis" unicode="&#xa8;" horiz-adv-x="616" d="M492 695 Q492 666 472 645 Q452 624 422 624 Q392 624 371 644 Q350 664 350 694 Q350 724 371 745 Q392 766 422 766 Q452 766 472 745.5 Q492 725 492 695 Z M266 695 Q266 666 245 645 Q224 624 194 624 Q164 624 143.5 644 Q123 664 123 694 Q123 724 143.5 745 Q164 766 194 766 Q224 766 245 745.5 Q266 725 266 695 Z " />
<glyph glyph-name="notequal" unicode="&#x2260;" horiz-adv-x="507" d="M440 169 Q440 152 429 139.5 Q418 127 397 127 L262 127 L220 16 Q215 2 204 -5.5 Q193 -13 181 -13 Q164 -13 150 -1 Q136 11 136 30 Q136 38 139 47 L170 125 L111 125 Q90 125 79 138.5 Q68 152 68 169 Q68 185 79 198 Q90 211 111 211 L203 211 L230 283 L111 283 Q90 283 79 297 Q68 311 68 325 Q68 342 79 355 Q90 368 111 368 L264 368 L310 489 Q315 503 326.5 510.5 Q338 518 349 518 Q366 518 380 506 Q394 494 394 475 Q394 467 391 458 L356 368 L397 368 Q418 368 429 355 Q440 342 440 325 Q440 308 429 295.5 Q418 283 397 283 L323 283 L295 212 L397 212 Q418 212 429 199 Q440 186 440 169 Z " />
<glyph glyph-name="AE" unicode="&#xc6;" horiz-adv-x="816" d="M782 43 Q782 27 771 13.5 Q760 0 739 0 L455 0 Q438 0 425 12.5 Q412 25 412 42 L412 156 L187 156 L114 23 Q107 11 97.5 5.5 Q88 0 78 0 Q61 0 47 12 Q33 24 33 42 Q33 53 39 63 L378 690 Q387 705 397 708.5 Q407 712 414 712 L739 712 Q759 712 770.5 699.5 Q782 687 782 669 Q782 655 771 641 Q760 627 739 627 L497 627 L497 425 L628 425 Q648 425 659 412 Q670 399 670 382 Q670 365 659 352 Q648 339 628 339 L497 339 L497 85 L739 85 Q759 85 770.5 72.5 Q782 60 782 43 Z M412 572 L233 242 L412 242 L412 572 Z " />
<glyph glyph-name="Oslash" unicode="&#xd8;" horiz-adv-x="730" d="M656 356 Q656 283 640.5 215.5 Q625 148 590.5 96.5 Q556 45 500.5 14 Q445 -17 365 -17 Q321 -17 287 -8.5 Q253 0 223 17 L210 -7 Q203 -19 193.5 -24.5 Q184 -30 173 -30 Q157 -30 143.5 -17.5 Q130 -5 130 13 Q130 24 136 34 L156 73 Q112 126 93 199.5 Q74 273 74 356 Q74 430 89 497.5 Q104 565 138.5 616.5 Q173 668 228.5 699 Q284 730 365 730 Q407 730 441.5 721 Q476 712 505 695 L519 719 Q526 731 535.5 736.5 Q545 742 555 742 Q572 742 585.5 730 Q599 718 599 700 Q599 690 593 678 L572 641 Q617 587 636.5 513 Q656 439 656 356 Z M570 356 Q570 483 524 556 L266 92 Q307 68 365 68 Q471 68 520.5 143 Q570 218 570 356 Z M463 620 Q421 644 365 644 Q258 644 209 569 Q160 494 160 356 Q160 294 170.5 244 Q181 194 204 157 L463 620 L463 620 Z " />
<glyph glyph-name="infinity" unicode="&#x221e;" horiz-adv-x="657" d="M605 311 Q605 283 594.5 257.5 Q584 232 565 213 Q546 194 520.5 182.5 Q495 171 466 171 Q433 171 409 183 Q385 195 364 215 L326 252 L293 218 Q273 197 247.5 185.5 Q222 174 189 174 Q160 174 134.5 185 Q109 196 90.5 214.5 Q72 233 61 258 Q50 283 50 311 Q50 340 61 365 Q72 390 90.5 409 Q109 428 134.5 438.5 Q160 449 189 449 Q222 449 247.5 437.5 Q273 426 293 405 L326 370 L364 407 Q385 427 409 440 Q433 453 466 453 Q495 453 520.5 441.5 Q546 430 565 410.5 Q584 391 594.5 365.5 Q605 340 605 311 Z M521 311 Q521 335 504.5 351.5 Q488 368 466 368 Q453 368 444.5 364.5 Q436 361 423 348 L386 311 L423 275 Q436 262 444.5 258.5 Q453 255 466 255 Q488 255 504.5 271.5 Q521 288 521 311 Z M233 345 Q219 359 210.5 362 Q202 365 189 365 Q166 365 150.5 349.5 Q135 334 135 311 Q135 288 150.5 273 Q166 258 189 258 Q202 258 210.5 261.5 Q219 265 233 278 L267 311 L233 345 Z " />
<glyph glyph-name="plusminus" unicode="&#xb1;" horiz-adv-x="507" d="M439 363 Q439 346 428 333 Q417 320 397 320 L296 320 L296 220 Q296 200 283.5 188.5 Q271 177 254 177 Q238 177 224.5 188 Q211 199 211 220 L211 320 L111 320 Q90 320 79 333 Q68 346 68 363 Q68 379 79 392.5 Q90 406 111 406 L211 406 L211 505 Q211 527 223.5 537.5 Q236 548 253 548 Q270 548 283 538 Q296 528 296 506 L296 406 L397 406 Q417 406 428 392.5 Q439 379 439 363 Z M439 42 Q439 26 428 13 Q417 0 397 0 L111 0 Q90 0 79 13 Q68 26 68 42 Q68 59 79 72 Q90 85 111 85 L397 85 Q417 85 428 72 Q439 59 439 42 Z " />
<glyph glyph-name="lessequal" unicode="&#x2264;" horiz-adv-x="370" d="M332 185 Q332 168 318 154.5 Q304 141 287 141 Q271 141 258 154 L80 333 Q78 337 75 341 Q70 349 70 360 Q70 367 72 372 Q74 377 76 382 Q79 387 81 391 L258 567 Q272 580 287 580 Q304 580 317.5 567 Q331 554 331 537 Q331 520 318 507 L178 360 L318 214 Q332 200 332 185 Z M331 42 Q331 26 320 13 Q309 0 287 0 L111 0 Q90 0 79 13 Q68 26 68 42 Q68 59 79 72 Q90 85 111 85 L287 85 Q309 85 320 72 Q331 59 331 42 Z " />
<glyph glyph-name="greaterequal" unicode="&#x2265;" horiz-adv-x="370" d="M335 359 Q335 348 330 340 Q327 336 325 332 L147 153 Q134 140 119 140 Q101 140 87.5 154 Q74 168 74 185 Q74 200 87 213 L227 359 L87 506 Q74 519 74 536 Q74 554 87 567 Q100 580 117 580 Q134 580 147 567 L324 390 Q327 386 330 381 Q335 371 335 359 Z M336 42 Q336 26 325 13 Q314 0 294 0 L117 0 Q96 0 85.5 13 Q75 26 75 42 Q75 59 85.5 72 Q96 85 117 85 L294 85 Q314 85 325 72 Q336 59 336 42 Z " />
<glyph glyph-name="yen" unicode="&#xa5;" horiz-adv-x="594" d="M544 670 Q544 659 538 649 L417 425 L478 425 Q499 425 510 412 Q521 399 521 382 Q521 365 510 352.5 Q499 340 479 340 L372 340 L340 280 L477 280 Q498 280 509 267 Q520 254 520 237 Q520 220 509 207.5 Q498 195 477 195 L340 195 L340 43 Q340 22 326.5 11 Q313 0 296 0 Q280 0 267 10.5 Q254 21 254 42 L254 195 L117 195 Q96 195 85 207.5 Q74 220 74 237 Q74 254 85 267 Q96 280 116 280 L254 280 L222 339 L117 339 Q96 339 85 351.5 Q74 364 74 381 Q74 398 85 411 Q96 424 116 424 L177 424 L56 650 Q50 660 50 671 Q50 689 64 701.5 Q78 714 95 714 Q105 714 114.5 708.5 Q124 703 131 690 L298 382 L463 690 Q470 702 479.5 707 Q489 712 499 712 Q516 712 530 700 Q544 688 544 670 Z " />
<glyph glyph-name="mu" unicode="&#xb5;" horiz-adv-x="641" d="M618 43 Q618 25 605.5 12.5 Q593 0 575 0 Q545 0 521.5 15 Q498 30 483 54 Q475 44 460 32 Q445 20 424 9 Q403 -2 376.5 -9.5 Q350 -17 319 -17 Q277 -17 241 -3 Q205 11 177 36 L177 -166 Q177 -188 163.5 -199 Q150 -210 133 -210 Q117 -210 104 -199 Q91 -188 91 -168 L91 487 Q91 508 104 519 Q117 530 133 530 Q150 530 163.5 519 Q177 508 177 488 L177 211 Q177 182 188.5 156 Q200 130 219.5 110.5 Q239 91 264.5 79.5 Q290 68 319 68 Q348 68 374 79.5 Q400 91 419.5 110.5 Q439 130 450.5 156 Q462 182 462 211 L462 487 Q462 510 474.5 520.5 Q487 531 504 531 Q521 531 534 520 Q547 509 547 488 L547 127 Q547 124 547.5 117.5 Q548 111 551 103.5 Q554 96 559.5 90.5 Q565 85 575 85 Q593 85 605.5 72.5 Q618 60 618 43 Z " />
<glyph glyph-name="partialdiff" unicode="&#x2202;" horiz-adv-x="640" d="M570 266 Q570 209 553.5 157.5 Q537 106 505 67.5 Q473 29 426 6 Q379 -17 319 -17 Q259 -17 212 6 Q165 29 133 67.5 Q101 106 84.5 157.5 Q68 209 68 266 Q68 323 84.5 374 Q101 425 133 463.5 Q165 502 212 525 Q259 548 319 548 Q405 548 466 502 Q458 535 446.5 565 Q435 595 418 621.5 Q401 648 377.5 670 Q354 692 323 707 Q310 713 304.5 722 Q299 731 299 742 Q299 759 311 773.5 Q323 788 342 788 Q347 788 351.5 787 Q356 786 361 783 Q413 757 448.5 719.5 Q484 682 507 637.5 Q530 593 543 544 Q556 495 562 446.5 Q568 398 569 351.5 Q570 305 570 266 Z M484 266 Q484 311 472.5 347 Q461 383 439.5 409 Q418 435 387.5 449 Q357 463 319 463 Q282 463 251.5 449 Q221 435 199 409 Q177 383 165.5 347 Q154 311 154 266 Q154 221 165.5 184.5 Q177 148 199 122 Q221 96 251.5 82 Q282 68 319 68 Q357 68 387.5 82 Q418 96 439.5 122 Q461 148 472.5 184.5 Q484 221 484 266 Z " />
<glyph glyph-name="e" unicode="e" horiz-adv-x="589" d="M527 420 Q527 405 514 392 L223 101 Q265 68 319 68 Q337 68 355 72 Q373 76 389.5 83.5 Q406 91 420 101.5 Q434 112 442 125 Q456 146 478 146 Q495 146 508.5 134 Q522 122 522 104 Q522 94 518 84.5 Q514 75 502 62 Q468 25 421 4 Q374 -17 323 -17 L319 -17 Q259 -17 212 6 Q165 29 133 68 Q101 107 84.5 158 Q68 209 68 266 Q68 322 84.5 373 Q101 424 133 463 Q165 502 212 525 Q259 548 319 548 Q380 548 431.5 523.5 Q483 499 516 448 Q520 443 523.5 435.5 Q527 428 527 420 Z M425 423 Q412 437 384.5 450 Q357 463 319 463 Q282 463 251.5 449 Q221 435 199.5 409 Q178 383 166 346.5 Q154 310 154 266 Q154 211 172 172 L425 423 L425 423 Z " />
<glyph glyph-name="product" unicode="&#x220f;" horiz-adv-x="627" d="M578 669 Q578 653 567 640 Q556 627 535 627 L463 627 L463 114 Q463 103 470.5 94 Q478 85 491 85 Q510 85 521 72 Q532 59 532 43 Q532 27 520 11 Q508 -5 488 -3 Q467 -2 447.5 7 Q428 16 412 31.5 Q396 47 386.5 68 Q377 89 377 114 L377 627 L250 627 L250 42 Q250 21 236.5 10 Q223 -1 206 -1 Q190 -1 177 10 Q164 21 164 42 L164 627 L91 627 Q70 627 59.5 640 Q49 653 49 669 Q49 686 59.5 699 Q70 712 91 712 L535 712 Q556 712 567 699 Q578 686 578 669 Z " />
<glyph glyph-name="pi" unicode="&#x3c0;" horiz-adv-x="627" d="M578 488 Q578 471 567 458.5 Q556 446 535 446 L463 446 L463 114 Q463 102 470.5 93 Q478 84 491 84 Q512 84 522 71 Q532 58 532 41 Q532 21 518 9 Q504 -3 483 -3 Q465 -3 446 6.5 Q427 16 412 31.5 Q397 47 387 68.5 Q377 90 377 114 L377 446 L250 446 L250 42 Q250 21 236.5 10 Q223 -1 206 -1 Q190 -1 177 10 Q164 21 164 41 L164 446 L91 446 Q70 446 59.5 458.5 Q49 471 49 488 Q49 505 59.5 518 Q70 531 91 531 L535 531 Q556 531 567 518 Q578 505 578 488 Z " />
<glyph glyph-name="integral" unicode="&#x222b;" horiz-adv-x="308" d="M285 670 Q285 652 272.5 639.5 Q260 627 243 627 L226 627 Q215 627 207 618.5 Q199 610 199 599 L199 -96 Q199 -119 190.5 -140 Q182 -161 167 -176.5 Q152 -192 131.5 -201 Q111 -210 87 -210 L68 -210 Q50 -210 37.5 -197.5 Q25 -185 25 -168 Q25 -150 37.5 -137 Q50 -124 68 -124 L85 -124 Q96 -124 105 -116.5 Q114 -109 114 -96 L114 599 Q114 623 122.5 643.5 Q131 664 146.5 679 Q162 694 182.5 703 Q203 712 227 712 L243 712 Q260 712 272.5 699.5 Q285 687 285 670 Z " />
<glyph glyph-name="ordfeminine" unicode="&#xaa;" horiz-adv-x="474" d="M405 393 Q405 380 396 369 Q387 358 370 358 Q361 358 346.5 361 Q332 364 320 375 Q297 361 269.5 354 Q242 347 215 347 Q191 347 165 353 Q139 359 117.5 371.5 Q96 384 82.5 405 Q69 426 69 456 Q69 486 82.5 506.5 Q96 527 117.5 540 Q139 553 165 558.5 Q191 564 215 564 Q232 564 251.5 561.5 Q271 559 291 551 L291 614 Q291 627 283.5 635.5 Q276 644 264.5 649.5 Q253 655 240 657 Q227 659 215 659 Q206 659 195 656.5 Q184 654 174 651.5 Q164 649 155.5 646.5 Q147 644 141 644 Q127 644 117 654.5 Q107 665 107 679 Q107 695 119.5 705 Q132 715 149.5 720.5 Q167 726 185.5 728 Q204 730 215 730 Q237 730 262.5 725 Q288 720 310 707 Q332 694 347 671.5 Q362 649 362 614 L362 440 Q362 438 363 435 Q365 429 370 429 Q387 429 396 417.5 Q405 406 405 393 Z M291 456 Q291 466 284 473.5 Q277 481 265.5 485.5 Q254 490 240.5 492 Q227 494 215 494 Q207 494 194 492.5 Q181 491 169 486.5 Q157 482 148.5 475 Q140 468 140 456 Q140 444 148.5 437 Q157 430 169 425.5 Q181 421 194 419.5 Q207 418 215 418 Q224 418 237 419.5 Q250 421 262 425.5 Q274 430 282.5 437 Q291 444 291 456 Z " />
<glyph glyph-name="ordmasculine" unicode="&#xba;" horiz-adv-x="470" d="M401 539 Q401 502 390 467.5 Q379 433 358 407 Q337 381 306.5 365.5 Q276 350 236 350 Q196 350 165 365.5 Q134 381 112.5 407 Q91 433 80 467.5 Q69 502 69 539 Q69 577 80 611.5 Q91 646 112.5 672.5 Q134 699 165 714.5 Q196 730 236 730 Q276 730 306.5 714.5 Q337 699 358 672.5 Q379 646 390 611.5 Q401 577 401 539 Z M332 539 Q332 597 305 628.5 Q278 660 236 660 Q194 660 166.5 628.5 Q139 597 139 539 Q139 483 166.5 451.5 Q194 420 236 420 Q278 420 305 451.5 Q332 483 332 539 Z " />
<glyph glyph-name="Omega" unicode="&#x3a9;" horiz-adv-x="730" d="M642 356 Q642 315 633.5 275 Q625 235 607 199.5 Q589 164 562 135.5 Q535 107 499 89 L499 85 L575 85 Q596 85 607 72 Q618 59 618 42 Q618 26 607 13 Q596 0 575 0 L437 0 Q420 0 406.5 13 Q393 26 393 42 L393 105 Q393 117 396.5 124 Q400 131 406.5 135 Q413 139 421 142 Q429 145 438 148 Q469 159 491.5 179.5 Q514 200 528 227.5 Q542 255 549 287.5 Q556 320 556 356 Q556 426 545.5 480 Q535 534 512 570.5 Q489 607 453 625.5 Q417 644 365 644 Q262 644 217.5 570 Q173 496 173 356 Q173 320 180 286.5 Q187 253 202 224.5 Q217 196 242 175.5 Q267 155 303 146 Q316 142 326 131.5 Q336 121 336 104 L336 42 Q336 25 323 12.5 Q310 0 293 0 L155 0 Q134 0 123.5 13 Q113 26 113 42 Q113 59 123.5 72 Q134 85 155 85 L230 85 L230 87 Q230 89 229 90 Q153 128 120.5 198.5 Q88 269 88 356 Q88 428 100.5 495 Q113 562 144.5 614.5 Q176 667 229.5 698.5 Q283 730 365 730 Q447 730 500.5 698.5 Q554 667 585.5 614.5 Q617 562 629.5 495 Q642 428 642 356 Z " />
<glyph glyph-name="oslash" unicode="&#xf8;" horiz-adv-x="638" d="M570 266 Q570 209 553.5 158 Q537 107 505 68 Q473 29 426 6 Q379 -17 319 -17 Q231 -17 172 31 L144 -1 Q131 -16 112 -16 Q95 -16 81 -3.5 Q67 9 67 26 Q67 42 79 55 L114 96 Q91 131 79.5 174.5 Q68 218 68 266 Q68 322 84.5 373 Q101 424 133 463 Q165 502 212 525 Q259 548 319 548 Q363 548 398.5 536 Q434 524 463 503 L489 534 Q502 548 520 548 Q537 548 551 535.5 Q565 523 565 505 Q565 490 554 478 L522 440 Q545 403 557.5 359 Q570 315 570 266 Z M407 437 Q370 463 319 463 Q282 463 251.5 449 Q221 435 199 409 Q177 383 165.5 347 Q154 311 154 266 Q154 209 176 166 L407 437 L407 437 Z M484 266 Q484 328 462 369 L228 97 Q268 68 319 68 Q357 68 387.5 82 Q418 96 439.5 122 Q461 148 472.5 184.5 Q484 221 484 266 Z " />
<glyph glyph-name="questiondown" unicode="&#xbf;" horiz-adv-x="531" d="M55 214 Q55 252 68 287 Q81 322 104 350 Q127 378 158.5 397 Q190 416 226 423 L226 487 Q226 509 239 519 Q252 529 269 529 Q286 529 299 519 Q312 509 312 487 L312 386 Q312 365 299 353.5 Q286 342 268 342 Q242 342 219 332 Q196 322 178.5 304.5 Q161 287 151 264 Q141 241 141 215 Q141 188 151 164.5 Q161 141 178.5 123.5 Q196 106 219 96 Q242 86 268 86 Q288 86 306 93.5 Q324 101 339 112.5 Q354 124 365 137.5 Q376 151 383 163 Q389 174 398.5 179 Q408 184 418 184 Q435 184 449 171.5 Q463 159 463 141 Q463 132 450.5 109 Q438 86 413 61.5 Q388 37 351.5 18.5 Q315 0 268 0 Q224 0 185 16.5 Q146 33 117 62 Q88 91 71.5 130 Q55 169 55 214 Z M195 658 Q195 688 215.5 709 Q236 730 266 730 Q296 730 317 709.5 Q338 689 338 659 Q338 629 317 608 Q296 587 266 587 Q236 587 215.5 607.5 Q195 628 195 658 Z " />
<glyph glyph-name="exclamdown" unicode="&#xa1;" horiz-adv-x="290" d="M104 472 Q104 493 117.5 504 Q131 515 147 515 Q164 515 177.5 504 Q191 493 191 472 L191 27 Q191 6 177.5 -5 Q164 -16 147 -16 Q131 -16 117.5 -5 Q104 6 104 27 L104 472 L104 472 Z M73 657 Q73 687 94 708 Q115 729 145 729 Q175 729 196 708 Q217 687 217 657 Q217 627 196 606 Q175 585 145 585 Q115 585 94 606 Q73 627 73 657 Z " />
<glyph glyph-name="logicalnot" unicode="&#xac;" horiz-adv-x="616" d="M524 41 Q524 20 511 9 Q498 -2 481 -2 Q464 -2 451.5 9 Q439 20 439 40 L439 283 L112 283 Q90 283 79 295.5 Q68 308 68 325 Q68 342 79 355 Q90 368 111 368 L481 368 Q499 368 511.5 355.5 Q524 343 524 326 L524 41 L524 41 Z " />
<glyph glyph-name="radical" unicode="&#x221a;" horiz-adv-x="594" d="M516 508 Q516 497 508 486 L279 120 Q273 110 265.5 107 Q258 104 249 104 Q239 104 231.5 105.5 Q224 107 217 116 L79 294 Q68 308 68 321 Q68 339 83 351.5 Q98 364 116 364 Q132 364 146 347 L243 222 L435 530 Q449 551 471 551 Q488 551 502 538.5 Q516 526 516 508 Z " />
<glyph glyph-name="florin" unicode="&#x192;" horiz-adv-x="348" d="M303 488 Q303 471 292 458.5 Q281 446 260 446 L214 446 L214 15 Q214 -9 205 -30 Q196 -51 180.5 -66.5 Q165 -82 144.5 -90.5 Q124 -99 100 -99 Q79 -99 68 -86 Q57 -73 57 -56 Q57 -39 68 -26.5 Q79 -14 99 -14 Q112 -14 120.5 -5.5 Q129 3 129 14 L129 446 L88 446 Q66 446 56 458.5 Q46 471 46 488 Q46 505 56 518 Q66 531 88 531 L129 531 L129 599 Q129 623 138 643.5 Q147 664 162.5 679.5 Q178 695 198.5 703.5 Q219 712 243 712 Q264 712 275 699 Q286 686 286 669 Q286 653 275 640 Q264 627 244 627 Q231 627 222.5 619 Q214 611 214 600 L214 531 L260 531 Q281 531 292 518 Q303 505 303 488 Z " />
<glyph glyph-name="approxequal" unicode="&#x2248;" horiz-adv-x="508" d="M453 365 Q453 348 439 334 Q413 308 388 296 Q363 284 342 284 Q316 284 293 295.5 Q270 307 249.5 320.5 Q229 334 210 345.5 Q191 357 172 357 Q163 357 153.5 351.5 Q144 346 135 340 Q126 334 116.5 328.5 Q107 323 98 323 Q81 323 67.5 336 Q54 349 54 367 Q54 383 66 396 Q94 423 120 434 Q146 445 170 445 Q199 445 224 433.5 Q249 422 270 407.5 Q291 393 308 381.5 Q325 370 339 370 Q345 370 353.5 376 Q362 382 371 389 Q380 396 390 402 Q400 408 409 408 Q426 408 439.5 395 Q453 382 453 365 Z M453 193 Q453 176 439 162 Q413 136 388 124 Q363 112 342 112 Q316 112 293 123.5 Q270 135 249.5 148.5 Q229 162 210 173.5 Q191 185 172 185 Q162 185 152.5 179.5 Q143 174 134 167 Q125 160 116 154.5 Q107 149 98 149 Q81 149 67.5 162.5 Q54 176 54 194 Q54 210 66 222 Q94 251 120 261.5 Q146 272 170 272 Q199 272 224 260.5 Q249 249 270 235 Q291 221 308 209.5 Q325 198 339 198 Q345 198 353 204 Q361 210 370.5 216.5 Q380 223 390 229 Q400 235 409 235 Q426 235 439.5 222.5 Q453 210 453 193 Z " />
<glyph glyph-name="Delta" unicode="&#x2206;" horiz-adv-x="604" d="M551 112 Q551 90 535.5 81 Q520 72 500 72 L104 72 Q88 72 71 80 Q54 88 54 111 Q54 128 62 141 L261 510 Q268 523 278 531 Q288 539 302 539 Q316 539 326 531 Q336 523 343 510 L542 141 Q546 133 548.5 126 Q551 119 551 112 Z M302 406 L168 157 L437 157 L302 406 Z " />
<glyph glyph-name="guillemotleft" unicode="&#xab;" horiz-adv-x="684" d="M596 88 Q596 71 582.5 57.5 Q569 44 552 44 Q535 44 522 57 L344 235 Q331 248 331 266 Q331 283 344 296 L521 473 Q529 481 537 484 Q545 487 553 487 Q570 487 583 473.5 Q596 460 596 443 Q596 427 583 414 L434 266 L583 117 Q596 104 596 88 Z M332 88 Q332 71 318 57.5 Q304 44 287 44 Q271 44 258 57 L79 235 Q66 251 66 266 Q66 283 79 296 L257 473 Q271 487 287 487 Q304 487 317.5 473.5 Q331 460 331 443 Q331 428 317 414 L170 266 L318 117 Q332 103 332 88 Z " />
<glyph glyph-name="guillemotright" unicode="&#xbb;" horiz-adv-x="684" d="M596 266 Q596 248 583 235 L405 58 Q391 44 375 44 Q358 44 345 57.5 Q332 71 332 88 Q332 105 344 117 L492 266 L344 414 Q332 426 332 443 Q332 461 345 474.5 Q358 488 375 488 Q392 488 406 474 L583 296 Q596 283 596 266 Z M331 266 Q331 248 318 235 L140 58 Q126 44 109 44 Q92 44 79 57.5 Q66 71 66 88 Q66 103 80 117 L227 266 L80 414 Q67 427 67 443 Q67 460 80.5 474 Q94 488 111 488 Q126 488 140 474 L318 296 Q331 283 331 266 Z " />
<glyph glyph-name="ellipsis" unicode="&#x2026;" horiz-adv-x="739" d="M658 71 Q658 41 637.5 20 Q617 -1 587 -1 Q557 -1 536 20 Q515 41 515 71 Q515 101 536 121 Q557 141 587 141 Q617 141 637.5 121 Q658 101 658 71 Z M439 71 Q439 41 418 20 Q397 -1 367 -1 Q337 -1 316.5 20 Q296 41 296 71 Q296 101 316.5 121 Q337 141 367 141 Q397 141 418 121 Q439 101 439 71 Z M220 71 Q220 41 199 20 Q178 -1 148 -1 Q118 -1 97 20 Q76 41 76 71 Q76 101 97 121 Q118 141 148 141 Q178 141 199 121 Q220 101 220 71 Z " />
<glyph glyph-name="Agrave" unicode="&#xc0;" horiz-adv-x="671" d="M638 42 Q638 23 624.5 11.5 Q611 0 594 0 Q583 0 572.5 6 Q562 12 556 26 L503 156 L170 156 L116 26 Q110 12 100 6 Q90 0 79 0 Q62 0 48 11.5 Q34 23 34 42 Q34 52 38 59 L295 684 Q304 704 315 709.5 Q326 715 336 715 Q343 715 356 709.5 Q369 704 377 684 L635 59 Q638 52 638 42 Z M336 560 L205 242 L467 242 L336 560 Z M442 895 Q442 878 429.5 865 Q417 852 400 852 Q384 852 370 863 L248 955 Q238 962 233.5 973 Q229 984 229 995 Q229 1018 246 1034.5 Q263 1051 285 1051 Q294 1051 303 1047.5 Q312 1044 320 1036 L427 927 Q442 912 442 895 Z " />
<glyph glyph-name="Atilde" unicode="&#xc3;" horiz-adv-x="671" d="M638 42 Q638 23 624.5 11.5 Q611 0 594 0 Q583 0 572.5 6 Q562 12 556 26 L503 156 L170 156 L116 26 Q110 12 100 6 Q90 0 79 0 Q62 0 48 11.5 Q34 23 34 42 Q34 52 38 59 L295 684 Q304 704 315 709.5 Q326 715 336 715 Q343 715 356 709.5 Q369 704 377 684 L635 59 Q638 52 638 42 Z M336 560 L205 242 L467 242 L336 560 Z M535 930 Q535 915 520 901 Q492 872 468.5 861 Q445 850 424 850 Q399 850 376 861.5 Q353 873 332.5 886.5 Q312 900 292.5 911 Q273 922 254 922 Q243 922 231.5 917.5 Q220 913 209 901 Q197 888 180 888 Q163 888 149 901.5 Q135 915 135 933 Q135 948 148 961 Q175 988 201.5 999.5 Q228 1011 251 1011 Q281 1011 306 999.5 Q331 988 352.5 974 Q374 960 391.5 948.5 Q409 937 422 937 Q428 937 435.5 943 Q443 949 452 955.5 Q461 962 471 968 Q481 974 491 974 Q509 974 522 960.5 Q535 947 535 930 Z " />
<glyph glyph-name="Otilde" unicode="&#xd5;" horiz-adv-x="730" d="M656 356 Q656 283 640.5 215.5 Q625 148 590.5 96.5 Q556 45 500.5 14 Q445 -17 365 -17 Q284 -17 228.5 14 Q173 45 138.5 96.5 Q104 148 89 215.5 Q74 283 74 356 Q74 430 89 497.5 Q104 565 138.5 616.5 Q173 668 228.5 699 Q284 730 365 730 Q445 730 500.5 699 Q556 668 590.5 616.5 Q625 565 640.5 497.5 Q656 430 656 356 Z M570 356 Q570 494 520.5 569 Q471 644 365 644 Q258 644 209 569 Q160 494 160 356 Q160 218 209 143 Q258 68 365 68 Q471 68 520.5 143 Q570 218 570 356 Z M564 930 Q564 915 549 901 Q521 872 497.5 861 Q474 850 453 850 Q428 850 405 861.5 Q382 873 361.5 886.5 Q341 900 321.5 911 Q302 922 283 922 Q272 922 260.5 917.5 Q249 913 238 901 Q226 888 209 888 Q192 888 178 901.5 Q164 915 164 933 Q164 948 177 961 Q204 988 230.5 999.5 Q257 1011 280 1011 Q310 1011 335 999.5 Q360 988 381.5 974 Q403 960 420.5 948.5 Q438 937 451 937 Q457 937 464.5 943 Q472 949 481 955.5 Q490 962 500 968 Q510 974 520 974 Q538 974 551 960.5 Q564 947 564 930 Z " />
<glyph glyph-name="OE" unicode="&#x152;" horiz-adv-x="934" d="M873 43 Q873 25 860.5 12.5 Q848 0 830 0 L512 0 Q504 0 497.5 4 Q491 8 486.5 12.5 Q482 17 479.5 21 Q477 25 477 25 Q476 25 467 21 Q458 17 442.5 12.5 Q427 8 406 4 Q385 0 360 0 Q277 0 222 31 Q167 62 134 112.5 Q101 163 87.5 226.5 Q74 290 74 356 Q74 423 87.5 487 Q101 551 134.5 601 Q168 651 223.5 681.5 Q279 712 363 712 Q424 712 477 684 Q479 692 484 698 Q489 703 496 707.5 Q503 712 515 712 L830 712 Q850 712 861.5 699.5 Q873 687 873 670 Q873 654 862 640.5 Q851 627 830 627 L559 627 L559 425 L719 425 Q739 425 750.5 412 Q762 399 762 382 Q762 365 750.5 352 Q739 339 719 339 L559 339 L559 85 L830 85 Q848 85 860.5 72.5 Q873 60 873 43 Z M473 587 Q444 609 415 618 Q386 627 365 627 Q257 627 208.5 559 Q160 491 160 356 Q160 221 208 153 Q256 85 365 85 Q386 85 414 93.5 Q442 102 473 122 L473 587 Z " />
<glyph glyph-name="endash" unicode="&#x2013;" horiz-adv-x="622" d="M553 325 Q553 308 542 295.5 Q531 283 511 283 L112 283 Q90 283 79 295.5 Q68 308 68 325 Q68 342 79 355 Q90 368 111 368 L510 368 Q531 368 542 355 Q553 342 553 325 Z " />
<glyph glyph-name="emdash" unicode="&#x2014;" horiz-adv-x="821" d="M752 325 Q752 308 741.5 295.5 Q731 283 710 283 L112 283 Q90 283 79 295.5 Q68 308 68 325 Q68 342 79 355 Q90 368 111 368 L709 368 Q731 368 741.5 355 Q752 342 752 325 Z " />
<glyph glyph-name="quotedblleft" unicode="&#x201c;" horiz-adv-x="456" d="M410 685 Q410 662 388 650 Q368 639 356.5 618.5 Q345 598 345 580 L345 503 Q345 481 332 471 Q319 461 302 461 Q285 461 272 471 Q259 481 259 503 L259 580 Q259 591 262.5 609 Q266 627 275.5 647.5 Q285 668 301.5 688.5 Q318 709 345 724 Q350 726 356 728 Q362 730 367 730 Q385 730 397.5 716 Q410 702 410 685 Z M219 684 Q219 662 197 650 Q177 639 165.5 618.5 Q154 598 154 580 L154 503 Q154 481 141 471 Q128 461 111 461 Q94 461 81 471 Q68 481 68 503 L68 580 Q68 591 71.5 609 Q75 627 84.5 647.5 Q94 668 111 688.5 Q128 709 154 724 Q166 730 176 730 Q195 730 207 715.5 Q219 701 219 684 Z " />
<glyph glyph-name="quotedblright" unicode="&#x201d;" horiz-adv-x="456" d="M388 611 Q388 599 384.5 581 Q381 563 371.5 542.5 Q362 522 345 502 Q328 482 301 466 Q289 461 280 461 Q263 461 250 475 Q237 489 237 506 Q237 528 259 542 Q279 553 290.5 573 Q302 593 302 611 L302 687 Q302 709 315 720 Q328 731 344 731 Q361 731 374.5 720 Q388 709 388 687 L388 611 L388 611 Z M196 611 Q196 599 192.5 581 Q189 563 179.5 543 Q170 523 153.5 503 Q137 483 111 466 Q101 461 89 461 Q71 461 58.5 475 Q46 489 46 506 Q46 528 67 542 Q87 553 99 573 Q111 593 111 611 L111 687 Q111 709 123.5 720 Q136 731 153 731 Q170 731 183 720 Q196 709 196 687 L196 611 L196 611 Z " />
<glyph glyph-name="quoteleft" unicode="&#x2018;" horiz-adv-x="264" d="M219 684 Q219 662 197 650 Q177 639 165.5 618.5 Q154 598 154 580 L154 503 Q154 481 141 471 Q128 461 111 461 Q94 461 81 471 Q68 481 68 503 L68 580 Q68 591 71.5 609 Q75 627 84.5 647.5 Q94 668 111 688.5 Q128 709 154 724 Q166 730 176 730 Q195 730 207 715.5 Q219 701 219 684 Z " />
<glyph glyph-name="quoteright" unicode="&#x2019;" horiz-adv-x="264" d="M196 611 Q196 599 192.5 581 Q189 563 179.5 543 Q170 523 153.5 503 Q137 483 111 466 Q101 461 89 461 Q71 461 58.5 475 Q46 489 46 506 Q46 528 67 542 Q87 553 99 573 Q111 593 111 611 L111 687 Q111 709 123.5 720 Q136 731 153 731 Q170 731 183 720 Q196 709 196 687 L196 611 L196 611 Z " />
<glyph glyph-name="divide" unicode="&#xf7;" horiz-adv-x="535" d="M340 458 Q340 428 319 407 Q298 386 268 386 Q238 386 217.5 407 Q197 428 197 458 Q197 488 217.5 509 Q238 530 268 530 Q298 530 319 509 Q340 488 340 458 Z M467 283 Q467 266 456.5 253.5 Q446 241 424 241 L111 241 Q89 241 78.5 253.5 Q68 266 68 283 Q68 300 78.5 313 Q89 326 111 326 L424 326 Q446 326 456.5 313 Q467 300 467 283 Z M340 108 Q340 78 319 57 Q298 36 268 36 Q238 36 217.5 57 Q197 78 197 108 Q197 138 217.5 159 Q238 180 268 180 Q298 180 319 159 Q340 138 340 108 Z " />
<glyph glyph-name="lozenge" unicode="&#x25ca;" horiz-adv-x="593" d="M519 306 Q519 288 506 275 L327 96 Q314 83 296 83 Q280 83 267 96 L88 275 Q74 289 74 304 Q74 322 88 336 L267 515 Q280 528 295 528 Q313 528 327 514 L506 336 Q519 324 519 306 Z M296 424 L178 306 L296 187 L415 306 L296 424 Z " />
<glyph glyph-name="ydieresis" unicode="&#xff;" horiz-adv-x="571" d="M529 490 Q529 480 524 471 L254 -143 Q239 -178 209 -194 Q179 -210 144 -210 L112 -210 Q90 -210 80 -196.5 Q70 -183 70 -166 Q70 -150 80 -137 Q90 -124 112 -124 L143 -124 Q153 -124 162 -121.5 Q171 -119 176 -108 L242 40 L47 471 Q42 480 42 490 Q42 509 56.5 520.5 Q71 532 88 532 Q112 532 124 506 L287 144 L446 506 Q452 520 462 525.5 Q472 531 483 531 Q500 531 514.5 519.5 Q529 508 529 490 Z M470 695 Q470 666 450 645 Q430 624 400 624 Q370 624 349 644 Q328 664 328 694 Q328 724 349 745 Q370 766 400 766 Q430 766 450 745.5 Q470 725 470 695 Z M244 695 Q244 666 223 645 Q202 624 172 624 Q142 624 121.5 644 Q101 664 101 694 Q101 724 121.5 745 Q142 766 172 766 Q202 766 223 745.5 Q244 725 244 695 Z " />
<glyph glyph-name="Ydieresis" unicode="&#x178;" horiz-adv-x="594" d="M544 670 Q544 659 538 649 L340 280 L340 43 Q340 22 326.5 11 Q313 0 296 0 Q280 0 267 10.5 Q254 21 254 42 L254 280 L56 650 Q50 660 50 671 Q50 689 64 701.5 Q78 714 95 714 Q105 714 114.5 708.5 Q124 703 131 690 L296 382 L463 690 Q470 702 479.5 707 Q489 712 499 712 Q516 712 530 700 Q544 688 544 670 Z M482 923 Q482 894 462 873 Q442 852 412 852 Q382 852 361 872 Q340 892 340 922 Q340 952 361 973 Q382 994 412 994 Q442 994 462 973.5 Q482 953 482 923 Z M256 923 Q256 894 235 873 Q214 852 184 852 Q154 852 133.5 872 Q113 892 113 922 Q113 952 133.5 973 Q154 994 184 994 Q214 994 235 973.5 Q256 953 256 923 Z " />
<glyph glyph-name="fraction" unicode="&#x2044;" horiz-adv-x="431" d="M350 690 Q350 686 349.5 683 Q349 680 348 676 L164 15 Q159 -2 148 -9.5 Q137 -17 124 -17 Q108 -17 94 -6 Q80 5 80 25 Q80 28 82 38 L266 699 Q271 716 281.5 723.5 Q292 731 306 731 Q322 731 336 720 Q350 709 350 690 Z " />
<glyph glyph-name="Euro" unicode="&#x20ac;" horiz-adv-x="671" d="M611 117 Q611 106 602 92 Q567 41 511.5 12 Q456 -17 378 -17 Q315 -17 267.5 2.5 Q220 22 186 56 Q152 90 131 136 Q110 182 99 236 L42 236 Q22 236 11 249 Q0 262 0 278 Q0 295 11 308 Q22 321 42 321 L89 321 Q88 326 88 330 L88 383 Q88 387 89 392 L42 392 Q22 392 11 405 Q0 418 0 434 Q0 451 11 464.5 Q22 478 42 478 L100 478 Q111 531 132 577 Q153 623 186.5 657 Q220 691 267.5 710.5 Q315 730 378 730 Q455 730 510 701.5 Q565 673 602 621 Q611 609 611 596 Q611 579 596.5 566.5 Q582 554 565 554 Q545 554 531 572 Q508 606 472.5 625 Q437 644 378 644 Q300 644 252.5 601 Q205 558 187 479 L483 479 Q505 479 516 465.5 Q527 452 527 435 Q527 419 516 406 Q505 393 483 393 L174 393 Q173 389 173 384 L173 339 Q173 328 174 323 L426 323 Q448 323 459 309.5 Q470 296 470 279 Q470 263 459 250 Q448 237 426 237 L187 237 Q205 156 251.5 112 Q298 68 378 68 Q437 68 473 88 Q509 108 532 141 Q547 160 565 160 Q582 160 596.5 147.5 Q611 135 611 117 Z " />
<glyph glyph-name="guilsinglleft" unicode="&#x2039;" horiz-adv-x="402" d="M334 88 Q334 71 320.5 57.5 Q307 44 290 44 Q273 44 260 57 L81 236 Q67 250 67 267 Q67 282 81 296 L259 474 Q272 487 290 487 Q308 487 321 473.5 Q334 460 334 443 Q334 435 330 428.5 Q326 422 319 414 L172 266 L320 117 Q334 103 334 88 Z " />
<glyph glyph-name="guilsinglright" unicode="&#x203a;" horiz-adv-x="402" d="M334 267 Q334 248 321 236 L143 57 Q127 43 113 43 Q96 43 82 57 Q68 71 68 88 Q68 103 82 117 L230 266 L82 414 Q70 426 70 443 Q70 460 83 474 Q96 488 113 488 Q127 488 143 474 L320 296 Q334 282 334 267 Z " />
<glyph glyph-name="fi" unicode="&#xfb01;" horiz-adv-x="581" d="M486 43 Q486 22 472 11 Q458 0 443 0 Q427 0 413.5 11 Q400 22 400 42 L400 446 L214 446 L214 43 Q214 22 201 11.5 Q188 1 171 1 Q154 1 141.5 11.5 Q129 22 129 43 L129 446 L88 446 Q66 446 56 458.5 Q46 471 46 488 Q46 505 56 518 Q66 531 88 531 L129 531 L129 599 Q129 623 138 643.5 Q147 664 162.5 679.5 Q178 695 198.5 703.5 Q219 712 243 712 Q264 712 275 699 Q286 686 286 669 Q286 653 275 640 Q264 627 244 627 Q231 627 222.5 619 Q214 611 214 600 L214 531 L442 531 Q460 531 473 520 Q486 509 486 489 L486 43 L486 43 Z " />
<glyph glyph-name="fl" unicode="&#xfb02;" horiz-adv-x="593" d="M557 40 Q557 23 546.5 10.5 Q536 -2 514 -2 Q493 -2 475 6 Q457 14 443.5 28 Q430 42 422 60.5 Q414 79 414 100 L414 669 Q414 691 426.5 701.5 Q439 712 456 712 Q473 712 486 701.5 Q499 691 499 670 L499 100 Q499 91 505 87 Q511 83 514 83 Q536 83 546.5 70 Q557 57 557 40 Z M303 488 Q303 471 292 458.5 Q281 446 260 446 L214 446 L214 43 Q214 22 201 11.5 Q188 1 171 1 Q154 1 141.5 11.5 Q129 22 129 43 L129 446 L88 446 Q66 446 56 458.5 Q46 471 46 488 Q46 505 56 518 Q66 531 88 531 L129 531 L129 599 Q129 623 138 643.5 Q147 664 162.5 679.5 Q178 695 198.5 703.5 Q219 712 243 712 Q264 712 275 699 Q286 686 286 669 Q286 653 275 640 Q264 627 244 627 Q231 627 222.5 619 Q214 611 214 600 L214 531 L260 531 Q281 531 292 518 Q303 505 303 488 Z " />
<glyph glyph-name="daggerdbl" unicode="&#x2021;" horiz-adv-x="456" d="M416 669 Q416 653 405 640 Q394 627 374 627 L285 627 L285 440 Q285 420 272.5 409 Q260 398 243 398 Q225 398 212 409 Q199 420 199 440 L199 627 L112 627 Q90 627 79 640 Q68 653 68 669 Q68 686 79 699 Q90 712 111 712 L199 712 L199 812 Q199 833 212 844 Q225 855 242 855 Q259 855 272 844 Q285 833 285 813 L285 712 L373 712 Q394 712 405 699 Q416 686 416 669 Z M416 296 Q416 280 405 267 Q394 254 374 254 L285 254 L285 154 Q285 132 272 122 Q259 112 242 112 Q225 112 212 122 Q199 132 199 154 L199 254 L112 254 Q90 254 79 267 Q68 280 68 296 Q68 313 79 326.5 Q90 340 111 340 L373 340 Q394 340 405 326.5 Q416 313 416 296 Z " />
<glyph glyph-name="periodcentered" unicode="&#xb7;" horiz-adv-x="277" d="M209 361 Q209 331 188 310.5 Q167 290 137 290 Q107 290 86 310 Q65 330 65 360 Q65 390 86 411 Q107 432 137 432 Q167 432 188 411.5 Q209 391 209 361 Z " />
<glyph glyph-name="quotesinglbase" unicode="&#x201a;" horiz-adv-x="264" d="M196 26 Q196 16 192.5 -2.5 Q189 -21 179.5 -41.5 Q170 -62 153.5 -82 Q137 -102 111 -117 Q100 -124 88 -124 Q70 -124 57 -110 Q44 -96 44 -79 Q44 -56 67 -43 Q87 -32 99 -12 Q111 8 111 26 L111 103 Q111 124 123.5 135 Q136 146 153 146 Q170 146 183 135.5 Q196 125 196 104 L196 26 L196 26 Z " />
<glyph glyph-name="quotedblbase" unicode="&#x201e;" horiz-adv-x="456" d="M196 26 Q196 16 192.5 -2.5 Q189 -21 179.5 -41.5 Q170 -62 153.5 -82 Q137 -102 111 -117 Q100 -124 88 -124 Q70 -124 57 -110 Q44 -96 44 -79 Q44 -56 67 -43 Q87 -32 99 -12 Q111 8 111 26 L111 103 Q111 124 123.5 135 Q136 146 153 146 Q170 146 183 135.5 Q196 125 196 104 L196 26 L196 26 Z M388 25 Q388 13 384.5 -5 Q381 -23 371.5 -43.5 Q362 -64 345 -84 Q328 -104 301 -120 Q289 -125 280 -125 Q263 -125 250 -111 Q237 -97 237 -80 Q237 -58 259 -44 Q279 -33 290.5 -13 Q302 7 302 25 L302 101 Q302 123 315 134 Q328 145 344 145 Q361 145 374.5 134 Q388 123 388 101 L388 25 L388 25 Z " />
<glyph glyph-name="perthousand" unicode="&#x2030;" horiz-adv-x="1393" d="M1333 177 Q1333 140 1320.5 108 Q1308 76 1286.5 52 Q1265 28 1236.5 14 Q1208 0 1175 0 Q1143 0 1114.5 14 Q1086 28 1064.5 52 Q1043 76 1030.5 108 Q1018 140 1018 176 Q1018 213 1030.5 245 Q1043 277 1064.5 301 Q1086 325 1114.5 338.5 Q1143 352 1175 352 Q1208 352 1236.5 338.5 Q1265 325 1286.5 301 Q1308 277 1320.5 245 Q1333 213 1333 177 Z M943 176 Q943 140 930.5 108 Q918 76 896.5 52 Q875 28 846.5 14 Q818 0 785 0 Q753 0 724.5 14 Q696 28 674.5 52 Q653 76 640.5 108 Q628 140 628 176 Q628 212 640.5 244 Q653 276 674.5 299.5 Q696 323 724.5 337 Q753 351 785 351 Q818 351 846.5 337 Q875 323 896.5 299.5 Q918 276 930.5 244 Q943 212 943 176 Z M645 690 Q645 686 644.5 683 Q644 680 643 676 L459 14 Q455 -3 444 -10.5 Q433 -18 420 -18 Q403 -18 389 -7 Q375 4 375 24 Q375 26 375 29.5 Q375 33 376 36 L561 699 Q566 715 577 722.5 Q588 730 601 730 Q617 730 631 719.5 Q645 709 645 690 Z M383 537 Q383 501 370.5 469 Q358 437 336.5 413 Q315 389 286.5 375 Q258 361 226 361 Q193 361 164.5 375 Q136 389 114.5 413 Q93 437 80.5 469 Q68 501 68 537 Q68 573 80.5 605 Q93 637 114.5 661 Q136 685 164.5 698.5 Q193 712 226 712 Q258 712 286.5 698.5 Q315 685 336.5 661 Q358 637 370.5 605 Q383 573 383 537 Z M1247 176 Q1247 198 1240.5 215 Q1234 232 1223.5 243.5 Q1213 255 1200 261 Q1187 267 1175 267 Q1163 267 1150.5 261 Q1138 255 1127.5 243.5 Q1117 232 1110.5 215.5 Q1104 199 1104 177 Q1104 155 1110.5 138 Q1117 121 1127.5 109 Q1138 97 1150.5 91 Q1163 85 1175 85 Q1187 85 1200 91 Q1213 97 1223.5 108.5 Q1234 120 1240.5 137 Q1247 154 1247 176 Z M857 176 Q857 198 850.5 214.5 Q844 231 833.5 242.5 Q823 254 810 260 Q797 266 785 266 Q773 266 760.5 260 Q748 254 737.5 242.5 Q727 231 720.5 214.5 Q714 198 714 176 Q714 154 720.5 137 Q727 120 737.5 108.5 Q748 97 760.5 91 Q773 85 785 85 Q797 85 810 91 Q823 97 833.5 108.5 Q844 120 850.5 137 Q857 154 857 176 Z M298 537 Q298 559 291.5 575.5 Q285 592 274.5 603.5 Q264 615 251 621 Q238 627 226 627 Q214 627 201.5 621 Q189 615 178.5 603.5 Q168 592 161 575.5 Q154 559 154 537 Q154 515 161 498.5 Q168 482 178.5 470.5 Q189 459 201.5 453 Q214 447 226 447 Q238 447 251 453 Q264 459 274.5 470.5 Q285 482 291.5 498.5 Q298 515 298 537 Z " />
<glyph glyph-name="Acircumflex" unicode="&#xc2;" horiz-adv-x="671" d="M638 42 Q638 23 624.5 11.5 Q611 0 594 0 Q583 0 572.5 6 Q562 12 556 26 L503 156 L170 156 L116 26 Q110 12 100 6 Q90 0 79 0 Q62 0 48 11.5 Q34 23 34 42 Q34 52 38 59 L295 684 Q304 704 315 709.5 Q326 715 336 715 Q343 715 356 709.5 Q369 704 377 684 L635 59 Q638 52 638 42 Z M336 560 L205 242 L467 242 L336 560 Z M513 895 Q513 878 501.5 865 Q490 852 470 852 Q465 852 459.5 853 Q454 854 448 857 L335 917 L222 857 Q212 852 199 852 Q181 852 169 865 Q157 878 157 895 Q157 904 162.5 914 Q168 924 179 931 L309 1009 Q315 1012 321.5 1015 Q328 1018 335 1018 Q342 1018 348.5 1015 Q355 1012 361 1009 L491 931 Q503 924 508 914 Q513 904 513 895 Z " />
<glyph glyph-name="Ecircumflex" unicode="&#xca;" horiz-adv-x="661" d="M593 42 Q593 25 582 12.5 Q571 0 551 0 L135 0 Q117 0 104 12.5 Q91 25 91 42 L91 669 Q91 687 104 699.5 Q117 712 135 712 L551 712 Q571 712 582 699.5 Q593 687 593 670 Q593 654 582 640.5 Q571 627 551 627 L177 627 L177 425 L439 425 Q458 425 470 412 Q482 399 482 382 Q482 365 470.5 352 Q459 339 439 339 L177 339 L177 85 L551 85 Q571 85 582 72 Q593 59 593 42 Z M509 895 Q509 878 497.5 865 Q486 852 466 852 Q461 852 455.5 853 Q450 854 444 857 L331 917 L218 857 Q208 852 195 852 Q177 852 165 865 Q153 878 153 895 Q153 904 158.5 914 Q164 924 175 931 L305 1009 Q311 1012 317.5 1015 Q324 1018 331 1018 Q338 1018 344.5 1015 Q351 1012 357 1009 L487 931 Q499 924 504 914 Q509 904 509 895 Z " />
<glyph glyph-name="Aacute" unicode="&#xc1;" horiz-adv-x="671" d="M638 42 Q638 23 624.5 11.5 Q611 0 594 0 Q583 0 572.5 6 Q562 12 556 26 L503 156 L170 156 L116 26 Q110 12 100 6 Q90 0 79 0 Q62 0 48 11.5 Q34 23 34 42 Q34 52 38 59 L295 684 Q304 704 315 709.5 Q326 715 336 715 Q343 715 356 709.5 Q369 704 377 684 L635 59 Q638 52 638 42 Z M336 560 L205 242 L467 242 L336 560 Z M442 994 Q442 969 422 955 L300 862 Q287 852 272 852 Q254 852 241.5 864.5 Q229 877 229 894 Q229 911 243 926 L351 1036 Q365 1051 386 1051 Q409 1051 425.5 1034 Q442 1017 442 994 Z " />
<glyph glyph-name="Edieresis" unicode="&#xcb;" horiz-adv-x="661" d="M593 42 Q593 25 582 12.5 Q571 0 551 0 L135 0 Q117 0 104 12.5 Q91 25 91 42 L91 669 Q91 687 104 699.5 Q117 712 135 712 L551 712 Q571 712 582 699.5 Q593 687 593 670 Q593 654 582 640.5 Q571 627 551 627 L177 627 L177 425 L439 425 Q458 425 470 412 Q482 399 482 382 Q482 365 470.5 352 Q459 339 439 339 L177 339 L177 85 L551 85 Q571 85 582 72 Q593 59 593 42 Z M515 923 Q515 894 495 873 Q475 852 445 852 Q415 852 394 872 Q373 892 373 922 Q373 952 394 973 Q415 994 445 994 Q475 994 495 973.5 Q515 953 515 923 Z M289 923 Q289 894 268 873 Q247 852 217 852 Q187 852 166.5 872 Q146 892 146 922 Q146 952 166.5 973 Q187 994 217 994 Q247 994 268 973.5 Q289 953 289 923 Z " />
<glyph glyph-name="Egrave" unicode="&#xc8;" horiz-adv-x="661" d="M593 42 Q593 25 582 12.5 Q571 0 551 0 L135 0 Q117 0 104 12.5 Q91 25 91 42 L91 669 Q91 687 104 699.5 Q117 712 135 712 L551 712 Q571 712 582 699.5 Q593 687 593 670 Q593 654 582 640.5 Q571 627 551 627 L177 627 L177 425 L439 425 Q458 425 470 412 Q482 399 482 382 Q482 365 470.5 352 Q459 339 439 339 L177 339 L177 85 L551 85 Q571 85 582 72 Q593 59 593 42 Z M437 895 Q437 878 424.5 865 Q412 852 395 852 Q379 852 365 863 L243 955 Q233 962 228.5 973 Q224 984 224 995 Q224 1018 241 1034.5 Q258 1051 280 1051 Q289 1051 298 1047.5 Q307 1044 315 1036 L422 927 Q437 912 437 895 Z " />
<glyph glyph-name="Iacute" unicode="&#xcd;" horiz-adv-x="314" d="M258 42 Q258 26 247 13 Q236 0 214 0 L99 0 Q79 0 68 13 Q57 26 57 42 Q57 59 68 72 Q79 85 99 85 L114 85 L114 627 L99 627 Q79 627 68 640 Q57 653 57 669 Q57 686 68 699 Q79 712 99 712 L214 712 Q236 712 247 699 Q258 686 258 669 Q258 653 247 640 Q236 627 214 627 L199 627 L199 85 L214 85 Q236 85 247 72 Q258 59 258 42 Z M264 994 Q264 969 244 955 L122 862 Q109 852 94 852 Q76 852 63.5 864.5 Q51 877 51 894 Q51 911 65 926 L173 1036 Q187 1051 208 1051 Q231 1051 247.5 1034 Q264 1017 264 994 Z " />
<glyph glyph-name="Icircumflex" unicode="&#xce;" horiz-adv-x="314" d="M258 42 Q258 26 247 13 Q236 0 214 0 L99 0 Q79 0 68 13 Q57 26 57 42 Q57 59 68 72 Q79 85 99 85 L114 85 L114 627 L99 627 Q79 627 68 640 Q57 653 57 669 Q57 686 68 699 Q79 712 99 712 L214 712 Q236 712 247 699 Q258 686 258 669 Q258 653 247 640 Q236 627 214 627 L199 627 L199 85 L214 85 Q236 85 247 72 Q258 59 258 42 Z M336 895 Q336 878 324.5 865 Q313 852 293 852 Q288 852 282.5 853 Q277 854 271 857 L158 917 L45 857 Q35 852 22 852 Q4 852 -8 865 Q-20 878 -20 895 Q-20 904 -14.5 914 Q-9 924 2 931 L132 1009 Q138 1012 144.5 1015 Q151 1018 158 1018 Q165 1018 171.5 1015 Q178 1012 184 1009 L314 931 Q326 924 331 914 Q336 904 336 895 Z " />
<glyph glyph-name="Idieresis" unicode="&#xcf;" horiz-adv-x="314" d="M258 42 Q258 26 247 13 Q236 0 214 0 L99 0 Q79 0 68 13 Q57 26 57 42 Q57 59 68 72 Q79 85 99 85 L114 85 L114 627 L99 627 Q79 627 68 640 Q57 653 57 669 Q57 686 68 699 Q79 712 99 712 L214 712 Q236 712 247 699 Q258 686 258 669 Q258 653 247 640 Q236 627 214 627 L199 627 L199 85 L214 85 Q236 85 247 72 Q258 59 258 42 Z M342 923 Q342 894 322 873 Q302 852 272 852 Q242 852 221 872 Q200 892 200 922 Q200 952 221 973 Q242 994 272 994 Q302 994 322 973.5 Q342 953 342 923 Z M116 923 Q116 894 95 873 Q74 852 44 852 Q14 852 -6.5 872 Q-27 892 -27 922 Q-27 952 -6.5 973 Q14 994 44 994 Q74 994 95 973.5 Q116 953 116 923 Z " />
<glyph glyph-name="Igrave" unicode="&#xcc;" horiz-adv-x="314" d="M258 42 Q258 26 247 13 Q236 0 214 0 L99 0 Q79 0 68 13 Q57 26 57 42 Q57 59 68 72 Q79 85 99 85 L114 85 L114 627 L99 627 Q79 627 68 640 Q57 653 57 669 Q57 686 68 699 Q79 712 99 712 L214 712 Q236 712 247 699 Q258 686 258 669 Q258 653 247 640 Q236 627 214 627 L199 627 L199 85 L214 85 Q236 85 247 72 Q258 59 258 42 Z M264 895 Q264 878 251.5 865 Q239 852 222 852 Q206 852 192 863 L70 955 Q60 962 55.5 973 Q51 984 51 995 Q51 1018 68 1034.5 Q85 1051 107 1051 Q116 1051 125 1047.5 Q134 1044 142 1036 L249 927 Q264 912 264 895 Z " />
<glyph glyph-name="Oacute" unicode="&#xd3;" horiz-adv-x="730" d="M656 356 Q656 283 640.5 215.5 Q625 148 590.5 96.5 Q556 45 500.5 14 Q445 -17 365 -17 Q284 -17 228.5 14 Q173 45 138.5 96.5 Q104 148 89 215.5 Q74 283 74 356 Q74 430 89 497.5 Q104 565 138.5 616.5 Q173 668 228.5 699 Q284 730 365 730 Q445 730 500.5 699 Q556 668 590.5 616.5 Q625 565 640.5 497.5 Q656 430 656 356 Z M570 356 Q570 494 520.5 569 Q471 644 365 644 Q258 644 209 569 Q160 494 160 356 Q160 218 209 143 Q258 68 365 68 Q471 68 520.5 143 Q570 218 570 356 Z M471 994 Q471 969 451 955 L329 862 Q316 852 301 852 Q283 852 270.5 864.5 Q258 877 258 894 Q258 911 272 926 L380 1036 Q394 1051 415 1051 Q438 1051 454.5 1034 Q471 1017 471 994 Z " />
<glyph glyph-name="Ocircumflex" unicode="&#xd4;" horiz-adv-x="730" d="M656 356 Q656 283 640.5 215.5 Q625 148 590.5 96.5 Q556 45 500.5 14 Q445 -17 365 -17 Q284 -17 228.5 14 Q173 45 138.5 96.5 Q104 148 89 215.5 Q74 283 74 356 Q74 430 89 497.5 Q104 565 138.5 616.5 Q173 668 228.5 699 Q284 730 365 730 Q445 730 500.5 699 Q556 668 590.5 616.5 Q625 565 640.5 497.5 Q656 430 656 356 Z M570 356 Q570 494 520.5 569 Q471 644 365 644 Q258 644 209 569 Q160 494 160 356 Q160 218 209 143 Q258 68 365 68 Q471 68 520.5 143 Q570 218 570 356 Z M543 895 Q543 878 531.5 865 Q520 852 500 852 Q495 852 489.5 853 Q484 854 478 857 L365 917 L252 857 Q242 852 229 852 Q211 852 199 865 Q187 878 187 895 Q187 904 192.5 914 Q198 924 209 931 L339 1009 Q345 1012 351.5 1015 Q358 1018 365 1018 Q372 1018 378.5 1015 Q385 1012 391 1009 L521 931 Q533 924 538 914 Q543 904 543 895 Z " />
<glyph glyph-name="a" unicode="a" horiz-adv-x="570" d="M542 43 Q542 24 531 12 Q520 0 499 0 Q479 0 457.5 10 Q436 20 423 32 Q389 6 345.5 -5.5 Q302 -17 260 -17 Q224 -17 186 -9 Q148 -1 117 18 Q86 37 66 67 Q46 97 46 140 Q46 184 66 214 Q86 244 117 263 Q148 282 186 290 Q224 298 260 298 Q290 298 324 292.5 Q358 287 389 270 L389 391 Q389 413 375 427 Q361 441 340.5 449 Q320 457 298 460 Q276 463 260 463 Q249 463 237 462 Q225 461 213 458 Q195 455 179 448 Q163 441 149 441 Q133 441 121 455 Q109 469 109 486 Q109 504 126 516 Q143 528 166.5 535 Q190 542 216 545 Q242 548 260 548 Q296 548 334 540 Q372 532 403 513 Q434 494 454 464.5 Q474 435 474 391 L474 114 Q474 103 481 95 Q488 87 502 85 Q523 84 532.5 71.5 Q542 59 542 43 Z M389 140 Q389 160 377.5 173.5 Q366 187 347 195.5 Q328 204 305.5 208 Q283 212 260 212 Q244 212 222 209 Q200 206 180 198 Q160 190 145.5 176 Q131 162 131 140 Q131 118 145.5 104 Q160 90 180 82 Q200 74 222 71 Q244 68 260 68 Q276 68 298 71 Q320 74 340.5 82 Q361 90 375 104 Q389 118 389 140 Z " />
<glyph glyph-name="Ograve" unicode="&#xd2;" horiz-adv-x="730" d="M656 356 Q656 283 640.5 215.5 Q625 148 590.5 96.5 Q556 45 500.5 14 Q445 -17 365 -17 Q284 -17 228.5 14 Q173 45 138.5 96.5 Q104 148 89 215.5 Q74 283 74 356 Q74 430 89 497.5 Q104 565 138.5 616.5 Q173 668 228.5 699 Q284 730 365 730 Q445 730 500.5 699 Q556 668 590.5 616.5 Q625 565 640.5 497.5 Q656 430 656 356 Z M570 356 Q570 494 520.5 569 Q471 644 365 644 Q258 644 209 569 Q160 494 160 356 Q160 218 209 143 Q258 68 365 68 Q471 68 520.5 143 Q570 218 570 356 Z M471 895 Q471 878 458.5 865 Q446 852 429 852 Q413 852 399 863 L277 955 Q267 962 262.5 973 Q258 984 258 995 Q258 1018 275 1034.5 Q292 1051 314 1051 Q323 1051 332 1047.5 Q341 1044 349 1036 L456 927 Q471 912 471 895 Z " />
<glyph glyph-name="Uacute" unicode="&#xda;" horiz-adv-x="673" d="M587 233 Q587 182 567.5 136 Q548 90 514.5 56 Q481 22 435 2 Q389 -18 336 -18 Q285 -18 239 1.5 Q193 21 159 54.5 Q125 88 105 134 Q85 180 85 233 L85 670 Q85 691 98 701.5 Q111 712 128 712 Q145 712 158 701.5 Q171 691 171 670 L171 233 Q171 199 184 168.5 Q197 138 219.5 115.5 Q242 93 272 80 Q302 67 336 67 Q370 67 400.5 80 Q431 93 453.5 115.5 Q476 138 489 168.5 Q502 199 502 233 L502 669 Q502 691 514.5 701.5 Q527 712 544 712 Q561 712 574 701.5 Q587 691 587 670 L587 233 L587 233 Z M442 994 Q442 969 422 955 L300 862 Q287 852 272 852 Q254 852 241.5 864.5 Q229 877 229 894 Q229 911 243 926 L351 1036 Q365 1051 386 1051 Q409 1051 425.5 1034 Q442 1017 442 994 Z " />
<glyph glyph-name="Ucircumflex" unicode="&#xdb;" horiz-adv-x="673" d="M587 233 Q587 182 567.5 136 Q548 90 514.5 56 Q481 22 435 2 Q389 -18 336 -18 Q285 -18 239 1.5 Q193 21 159 54.5 Q125 88 105 134 Q85 180 85 233 L85 670 Q85 691 98 701.5 Q111 712 128 712 Q145 712 158 701.5 Q171 691 171 670 L171 233 Q171 199 184 168.5 Q197 138 219.5 115.5 Q242 93 272 80 Q302 67 336 67 Q370 67 400.5 80 Q431 93 453.5 115.5 Q476 138 489 168.5 Q502 199 502 233 L502 669 Q502 691 514.5 701.5 Q527 712 544 712 Q561 712 574 701.5 Q587 691 587 670 L587 233 L587 233 Z M514 895 Q514 878 502.5 865 Q491 852 471 852 Q466 852 460.5 853 Q455 854 449 857 L336 917 L223 857 Q213 852 200 852 Q182 852 170 865 Q158 878 158 895 Q158 904 163.5 914 Q169 924 180 931 L310 1009 Q316 1012 322.5 1015 Q329 1018 336 1018 Q343 1018 349.5 1015 Q356 1012 362 1009 L492 931 Q504 924 509 914 Q514 904 514 895 Z " />
<glyph glyph-name="Ugrave" unicode="&#xd9;" horiz-adv-x="673" d="M587 233 Q587 182 567.5 136 Q548 90 514.5 56 Q481 22 435 2 Q389 -18 336 -18 Q285 -18 239 1.5 Q193 21 159 54.5 Q125 88 105 134 Q85 180 85 233 L85 670 Q85 691 98 701.5 Q111 712 128 712 Q145 712 158 701.5 Q171 691 171 670 L171 233 Q171 199 184 168.5 Q197 138 219.5 115.5 Q242 93 272 80 Q302 67 336 67 Q370 67 400.5 80 Q431 93 453.5 115.5 Q476 138 489 168.5 Q502 199 502 233 L502 669 Q502 691 514.5 701.5 Q527 712 544 712 Q561 712 574 701.5 Q587 691 587 670 L587 233 L587 233 Z M442 895 Q442 878 429.5 865 Q417 852 400 852 Q384 852 370 863 L248 955 Q238 962 233.5 973 Q229 984 229 995 Q229 1018 246 1034.5 Q263 1051 285 1051 Q294 1051 303 1047.5 Q312 1044 320 1036 L427 927 Q442 912 442 895 Z " />
<glyph glyph-name="dotlessi" unicode="&#x131;" horiz-adv-x="274" d="M179 42 Q179 21 166 10.5 Q153 0 137 0 Q120 0 106.5 11 Q93 22 93 42 L93 488 Q93 509 106.5 520 Q120 531 137 531 Q153 531 166 520 Q179 509 179 488 L179 42 L179 42 Z " />
<glyph glyph-name="circumflex" unicode="&#x2c6;" horiz-adv-x="616" d="M486 667 Q486 650 474.5 637 Q463 624 443 624 Q438 624 432.5 625 Q427 626 421 629 L308 689 L195 629 Q185 624 172 624 Q154 624 142 637 Q130 650 130 667 Q130 676 135.5 686 Q141 696 152 703 L282 781 Q288 784 294.5 787 Q301 790 308 790 Q315 790 321.5 787 Q328 784 334 781 L464 703 Q476 696 481 686 Q486 676 486 667 Z " />
<glyph glyph-name="tilde" unicode="&#x2dc;" horiz-adv-x="616" d="M507 702 Q507 687 492 673 Q464 644 440.5 633 Q417 622 396 622 Q371 622 348 633.5 Q325 645 304.5 658.5 Q284 672 264.5 683 Q245 694 226 694 Q215 694 203.5 689.5 Q192 685 181 673 Q169 660 152 660 Q135 660 121 673.5 Q107 687 107 705 Q107 720 120 733 Q147 760 173.5 771.5 Q200 783 223 783 Q253 783 278 771.5 Q303 760 324.5 746 Q346 732 363.5 720.5 Q381 709 394 709 Q400 709 407.5 715 Q415 721 424 727.5 Q433 734 443 740 Q453 746 463 746 Q481 746 494 732.5 Q507 719 507 702 Z " />
<glyph glyph-name="macron" unicode="&#xaf;" horiz-adv-x="616" d="M479 665 Q479 648 468 635 Q457 622 437 622 L180 622 Q159 622 148 635 Q137 648 137 665 Q137 682 148 695 Q159 708 179 708 L435 708 Q457 708 468 695 Q479 682 479 665 Z " />
<glyph glyph-name="breve" unicode="&#x2d8;" horiz-adv-x="616" d="M437 752 Q437 726 426.5 703 Q416 680 398.5 662.5 Q381 645 357.5 634.5 Q334 624 308 624 Q282 624 258.5 634.5 Q235 645 217.5 662.5 Q200 680 189.5 703 Q179 726 179 752 Q179 774 191.5 785 Q204 796 221 796 Q238 796 251 785 Q264 774 264 752 Q264 734 277 721.5 Q290 709 308 709 Q326 709 338.5 721.5 Q351 734 351 752 Q351 774 364 785 Q377 796 393 796 Q410 796 423.5 785 Q437 774 437 752 Z " />
<glyph glyph-name="dotaccent" unicode="&#x2d9;" horiz-adv-x="616" d="M380 624 Q380 594 359 573 Q338 552 308 552 Q278 552 257 573 Q236 594 236 624 Q236 653 257 674 Q278 695 308 695 Q338 695 359 674 Q380 653 380 624 Z " />
<glyph glyph-name="ring" unicode="&#x2da;" horiz-adv-x="616" d="M437 624 Q437 598 426.5 574.5 Q416 551 398.5 533.5 Q381 516 357.5 505.5 Q334 495 308 495 Q282 495 258.5 505.5 Q235 516 217.5 533.5 Q200 551 189.5 574.5 Q179 598 179 624 Q179 650 189.5 673 Q200 696 217.5 713.5 Q235 731 258.5 741.5 Q282 752 308 752 Q334 752 357.5 741.5 Q381 731 398.5 713.5 Q416 696 426.5 673 Q437 650 437 624 Z M366 624 Q366 648 349 665 Q332 682 308 682 Q284 682 267 665 Q250 648 250 624 Q250 600 267 582.5 Q284 565 308 565 Q332 565 349 582.5 Q366 600 366 624 Z " />
<glyph glyph-name="cedilla" unicode="&#xb8;" horiz-adv-x="616" d="M447 -136 Q447 -160 438 -180.5 Q429 -201 413.5 -217 Q398 -233 377 -242 Q356 -251 332 -251 Q317 -251 300.5 -246 Q284 -241 270 -232.5 Q256 -224 247 -212.5 Q238 -201 238 -187 Q238 -170 251.5 -157 Q265 -144 282 -144 Q296 -144 307.5 -154.5 Q319 -165 332 -165 Q345 -165 353 -157 Q361 -149 361 -136 Q361 -119 350 -114 Q339 -109 325.5 -105.5 Q312 -102 301 -94.5 Q290 -87 290 -64 L290 11 Q290 33 302.5 44 Q315 55 332 55 Q349 55 362 44 Q375 33 375 11 L375 -30 Q406 -43 426.5 -71 Q447 -99 447 -136 Z " />
<glyph glyph-name="hungarumlaut" unicode="&#x2dd;" horiz-adv-x="616" d="M479 823 Q479 811 474 803 L404 650 Q398 636 387.5 630 Q377 624 366 624 Q349 624 336 635.5 Q323 647 323 666 Q323 670 325 678 L368 840 Q373 859 388.5 869 Q404 879 422 879 Q445 879 462 862.5 Q479 846 479 823 Z M293 824 Q293 811 288 803 L218 650 Q212 636 201.5 629 Q191 622 180 622 Q163 622 150 635 Q137 648 137 668 Q137 670 137 673.5 Q137 677 138 679 L182 840 Q187 859 202.5 869 Q218 879 236 879 Q259 879 276 863 Q293 847 293 824 Z " />
<glyph glyph-name="ogonek" unicode="&#x2db;" horiz-adv-x="616" d="M429 -172 Q429 -189 414 -202 Q379 -235 334 -235 L333 -235 Q309 -235 288.5 -226.5 Q268 -218 252.5 -202.5 Q237 -187 228 -166 Q219 -145 219 -121 Q219 -99 226 -79 Q233 -59 250 -42 L334 42 Q348 56 364 56 Q381 56 394.5 42 Q408 28 408 11 Q408 -5 394 -18 L310 -103 Q304 -109 304 -121 Q304 -134 312 -141.5 Q320 -149 333 -149 Q340 -149 346 -146 Q352 -143 358 -139 Q364 -135 370.5 -132 Q377 -129 384 -129 Q402 -129 415.5 -142 Q429 -155 429 -172 Z " />
<glyph glyph-name="caron" unicode="&#x2c7;" horiz-adv-x="616" d="M471 743 Q471 734 466 724.5 Q461 715 450 708 L334 633 Q322 624 308 624 Q300 624 294 626.5 Q288 629 282 633 L165 708 Q154 715 149.5 724 Q145 733 145 743 Q145 760 157 774.5 Q169 789 186 789 Q199 789 210 781 L308 720 L406 781 Q417 789 429 789 Q447 789 459 774.5 Q471 760 471 743 Z " />
<glyph glyph-name="summation" unicode="&#xf8ff;" horiz-adv-x="588" d="M539 364 Q539 323 513 296.5 Q487 270 446 270 L374 270 Q391 247 391 216 Q391 175 365 149 Q339 123 298 123 L49 123 L49 371 Q49 412 75 438.5 Q101 465 142 465 Q172 465 197 448 L197 519 Q197 560 223 586.5 Q249 613 290 613 Q331 613 357 586.5 Q383 560 383 519 L383 457 L446 457 Q487 457 513 430.5 Q539 404 539 364 Z M522 364 Q522 398 501 419 Q480 440 446 440 L367 440 L367 519 Q367 553 345.5 574.5 Q324 596 290 596 Q256 596 235 574.5 Q214 553 214 519 L214 287 L446 287 Q480 287 501 308.5 Q522 330 522 364 Z " />
<glyph glyph-name="apple" unicode="&#x2211;" horiz-adv-x="588" d="M539 364 Q539 323 513 296.5 Q487 270 446 270 L374 270 Q391 247 391 216 Q391 175 365 149 Q339 123 298 123 L49 123 L49 371 Q49 412 75 438.5 Q101 465 142 465 Q172 465 197 448 L197 519 Q197 560 223 586.5 Q249 613 290 613 Q331 613 357 586.5 Q383 560 383 519 L383 457 L446 457 Q487 457 513 430.5 Q539 404 539 364 Z M522 364 Q522 398 501 419 Q480 440 446 440 L367 440 L367 519 Q367 553 345.5 574.5 Q324 596 290 596 Q256 596 235 574.5 Q214 553 214 519 L214 287 L446 287 Q480 287 501 308.5 Q522 330 522 364 Z " />
<glyph glyph-name="uni00A0" unicode="&#xa0;" horiz-adv-x="285" d="" />
<glyph glyph-name="aacute" unicode="&#xe1;" horiz-adv-x="570" d="M542 43 Q542 24 531 12 Q520 0 499 0 Q479 0 457.5 10 Q436 20 423 32 Q389 6 345.5 -5.5 Q302 -17 260 -17 Q224 -17 186 -9 Q148 -1 117 18 Q86 37 66 67 Q46 97 46 140 Q46 184 66 214 Q86 244 117 263 Q148 282 186 290 Q224 298 260 298 Q290 298 324 292.5 Q358 287 389 270 L389 391 Q389 413 375 427 Q361 441 340.5 449 Q320 457 298 460 Q276 463 260 463 Q249 463 237 462 Q225 461 213 458 Q195 455 179 448 Q163 441 149 441 Q133 441 121 455 Q109 469 109 486 Q109 504 126 516 Q143 528 166.5 535 Q190 542 216 545 Q242 548 260 548 Q296 548 334 540 Q372 532 403 513 Q434 494 454 464.5 Q474 435 474 391 L474 114 Q474 103 481 95 Q488 87 502 85 Q523 84 532.5 71.5 Q542 59 542 43 Z M389 140 Q389 160 377.5 173.5 Q366 187 347 195.5 Q328 204 305.5 208 Q283 212 260 212 Q244 212 222 209 Q200 206 180 198 Q160 190 145.5 176 Q131 162 131 140 Q131 118 145.5 104 Q160 90 180 82 Q200 74 222 71 Q244 68 260 68 Q276 68 298 71 Q320 74 340.5 82 Q361 90 375 104 Q389 118 389 140 Z M392 766 Q392 741 372 727 L250 634 Q237 624 222 624 Q204 624 191.5 636.5 Q179 649 179 666 Q179 683 193 698 L301 808 Q315 823 336 823 Q359 823 375.5 806 Q392 789 392 766 Z " />
<glyph glyph-name="agrave" unicode="&#xe0;" horiz-adv-x="570" d="M542 43 Q542 24 531 12 Q520 0 499 0 Q479 0 457.5 10 Q436 20 423 32 Q389 6 345.5 -5.5 Q302 -17 260 -17 Q224 -17 186 -9 Q148 -1 117 18 Q86 37 66 67 Q46 97 46 140 Q46 184 66 214 Q86 244 117 263 Q148 282 186 290 Q224 298 260 298 Q290 298 324 292.5 Q358 287 389 270 L389 391 Q389 413 375 427 Q361 441 340.5 449 Q320 457 298 460 Q276 463 260 463 Q249 463 237 462 Q225 461 213 458 Q195 455 179 448 Q163 441 149 441 Q133 441 121 455 Q109 469 109 486 Q109 504 126 516 Q143 528 166.5 535 Q190 542 216 545 Q242 548 260 548 Q296 548 334 540 Q372 532 403 513 Q434 494 454 464.5 Q474 435 474 391 L474 114 Q474 103 481 95 Q488 87 502 85 Q523 84 532.5 71.5 Q542 59 542 43 Z M389 140 Q389 160 377.5 173.5 Q366 187 347 195.5 Q328 204 305.5 208 Q283 212 260 212 Q244 212 222 209 Q200 206 180 198 Q160 190 145.5 176 Q131 162 131 140 Q131 118 145.5 104 Q160 90 180 82 Q200 74 222 71 Q244 68 260 68 Q276 68 298 71 Q320 74 340.5 82 Q361 90 375 104 Q389 118 389 140 Z M392 667 Q392 650 379.5 637 Q367 624 350 624 Q334 624 320 635 L198 727 Q188 734 183.5 745 Q179 756 179 767 Q179 790 196 806.5 Q213 823 235 823 Q244 823 253 819.5 Q262 816 270 808 L377 699 Q392 684 392 667 Z " />
<glyph glyph-name="acircumflex" unicode="&#xe2;" horiz-adv-x="570" d="M542 43 Q542 24 531 12 Q520 0 499 0 Q479 0 457.5 10 Q436 20 423 32 Q389 6 345.5 -5.5 Q302 -17 260 -17 Q224 -17 186 -9 Q148 -1 117 18 Q86 37 66 67 Q46 97 46 140 Q46 184 66 214 Q86 244 117 263 Q148 282 186 290 Q224 298 260 298 Q290 298 324 292.5 Q358 287 389 270 L389 391 Q389 413 375 427 Q361 441 340.5 449 Q320 457 298 460 Q276 463 260 463 Q249 463 237 462 Q225 461 213 458 Q195 455 179 448 Q163 441 149 441 Q133 441 121 455 Q109 469 109 486 Q109 504 126 516 Q143 528 166.5 535 Q190 542 216 545 Q242 548 260 548 Q296 548 334 540 Q372 532 403 513 Q434 494 454 464.5 Q474 435 474 391 L474 114 Q474 103 481 95 Q488 87 502 85 Q523 84 532.5 71.5 Q542 59 542 43 Z M389 140 Q389 160 377.5 173.5 Q366 187 347 195.5 Q328 204 305.5 208 Q283 212 260 212 Q244 212 222 209 Q200 206 180 198 Q160 190 145.5 176 Q131 162 131 140 Q131 118 145.5 104 Q160 90 180 82 Q200 74 222 71 Q244 68 260 68 Q276 68 298 71 Q320 74 340.5 82 Q361 90 375 104 Q389 118 389 140 Z M463 667 Q463 650 451.5 637 Q440 624 420 624 Q415 624 409.5 625 Q404 626 398 629 L285 689 L172 629 Q162 624 149 624 Q131 624 119 637 Q107 650 107 667 Q107 676 112.5 686 Q118 696 129 703 L259 781 Q265 784 271.5 787 Q278 790 285 790 Q292 790 298.5 787 Q305 784 311 781 L441 703 Q453 696 458 686 Q463 676 463 667 Z " />
<glyph glyph-name="adieresis" unicode="&#xe4;" horiz-adv-x="570" d="M542 43 Q542 24 531 12 Q520 0 499 0 Q479 0 457.5 10 Q436 20 423 32 Q389 6 345.5 -5.5 Q302 -17 260 -17 Q224 -17 186 -9 Q148 -1 117 18 Q86 37 66 67 Q46 97 46 140 Q46 184 66 214 Q86 244 117 263 Q148 282 186 290 Q224 298 260 298 Q290 298 324 292.5 Q358 287 389 270 L389 391 Q389 413 375 427 Q361 441 340.5 449 Q320 457 298 460 Q276 463 260 463 Q249 463 237 462 Q225 461 213 458 Q195 455 179 448 Q163 441 149 441 Q133 441 121 455 Q109 469 109 486 Q109 504 126 516 Q143 528 166.5 535 Q190 542 216 545 Q242 548 260 548 Q296 548 334 540 Q372 532 403 513 Q434 494 454 464.5 Q474 435 474 391 L474 114 Q474 103 481 95 Q488 87 502 85 Q523 84 532.5 71.5 Q542 59 542 43 Z M389 140 Q389 160 377.5 173.5 Q366 187 347 195.5 Q328 204 305.5 208 Q283 212 260 212 Q244 212 222 209 Q200 206 180 198 Q160 190 145.5 176 Q131 162 131 140 Q131 118 145.5 104 Q160 90 180 82 Q200 74 222 71 Q244 68 260 68 Q276 68 298 71 Q320 74 340.5 82 Q361 90 375 104 Q389 118 389 140 Z M470 695 Q470 666 450 645 Q430 624 400 624 Q370 624 349 644 Q328 664 328 694 Q328 724 349 745 Q370 766 400 766 Q430 766 450 745.5 Q470 725 470 695 Z M244 695 Q244 666 223 645 Q202 624 172 624 Q142 624 121.5 644 Q101 664 101 694 Q101 724 121.5 745 Q142 766 172 766 Q202 766 223 745.5 Q244 725 244 695 Z " />
<glyph glyph-name="atilde" unicode="&#xe3;" horiz-adv-x="570" d="M542 43 Q542 24 531 12 Q520 0 499 0 Q479 0 457.5 10 Q436 20 423 32 Q389 6 345.5 -5.5 Q302 -17 260 -17 Q224 -17 186 -9 Q148 -1 117 18 Q86 37 66 67 Q46 97 46 140 Q46 184 66 214 Q86 244 117 263 Q148 282 186 290 Q224 298 260 298 Q290 298 324 292.5 Q358 287 389 270 L389 391 Q389 413 375 427 Q361 441 340.5 449 Q320 457 298 460 Q276 463 260 463 Q249 463 237 462 Q225 461 213 458 Q195 455 179 448 Q163 441 149 441 Q133 441 121 455 Q109 469 109 486 Q109 504 126 516 Q143 528 166.5 535 Q190 542 216 545 Q242 548 260 548 Q296 548 334 540 Q372 532 403 513 Q434 494 454 464.5 Q474 435 474 391 L474 114 Q474 103 481 95 Q488 87 502 85 Q523 84 532.5 71.5 Q542 59 542 43 Z M389 140 Q389 160 377.5 173.5 Q366 187 347 195.5 Q328 204 305.5 208 Q283 212 260 212 Q244 212 222 209 Q200 206 180 198 Q160 190 145.5 176 Q131 162 131 140 Q131 118 145.5 104 Q160 90 180 82 Q200 74 222 71 Q244 68 260 68 Q276 68 298 71 Q320 74 340.5 82 Q361 90 375 104 Q389 118 389 140 Z M485 702 Q485 687 470 673 Q442 644 418.5 633 Q395 622 374 622 Q349 622 326 633.5 Q303 645 282.5 658.5 Q262 672 242.5 683 Q223 694 204 694 Q193 694 181.5 689.5 Q170 685 159 673 Q147 660 130 660 Q113 660 99 673.5 Q85 687 85 705 Q85 720 98 733 Q125 760 151.5 771.5 Q178 783 201 783 Q231 783 256 771.5 Q281 760 302.5 746 Q324 732 341.5 720.5 Q359 709 372 709 Q378 709 385.5 715 Q393 721 402 727.5 Q411 734 421 740 Q431 746 441 746 Q459 746 472 732.5 Q485 719 485 702 Z " />
<glyph glyph-name="aring" unicode="&#xe5;" horiz-adv-x="570" d="M414 608 Q414 584 405 562.5 Q396 541 381 524 Q421 506 447.5 474 Q474 442 474 391 L474 114 Q474 103 481 95 Q488 87 502 85 Q523 84 532.5 71.5 Q542 59 542 43 Q542 24 531 12 Q520 0 499 0 Q479 0 457.5 10 Q436 20 423 32 Q389 6 345.5 -5.5 Q302 -17 260 -17 Q224 -17 186 -9 Q148 -1 117 18 Q86 37 66 67 Q46 97 46 140 Q46 184 66 214 Q86 244 117 263 Q148 282 186 290 Q224 298 260 298 Q290 298 324 292.5 Q358 287 389 270 L389 391 Q389 413 375 427 Q361 441 340.5 449 Q320 457 298 460 Q276 463 260 463 Q249 463 237 462 Q225 461 213 458 Q195 455 179 448 Q163 441 149 441 Q133 441 121 455 Q109 469 109 486 Q109 506 129 518.5 Q149 531 177 538 Q156 570 156 608 Q156 634 166.5 657 Q177 680 194.5 697.5 Q212 715 235.5 725.5 Q259 736 285 736 Q311 736 334.5 725.5 Q358 715 375.5 697.5 Q393 680 403.5 657 Q414 634 414 608 Z M389 140 Q389 160 377.5 173.5 Q366 187 347 195.5 Q328 204 305.5 208 Q283 212 260 212 Q244 212 222 209 Q200 206 180 198 Q160 190 145.5 176 Q131 162 131 140 Q131 118 145.5 104 Q160 90 180 82 Q200 74 222 71 Q244 68 260 68 Q276 68 298 71 Q320 74 340.5 82 Q361 90 375 104 Q389 118 389 140 Z M343 608 Q343 632 326 649 Q309 666 285 666 Q261 666 244 649 Q227 632 227 608 Q227 584 244 566.5 Q261 549 285 549 Q309 549 326 566.5 Q343 584 343 608 Z " />
<glyph glyph-name="eacute" unicode="&#xe9;" horiz-adv-x="589" d="M527 420 Q527 405 514 392 L223 101 Q265 68 319 68 Q337 68 355 72 Q373 76 389.5 83.5 Q406 91 420 101.5 Q434 112 442 125 Q456 146 478 146 Q495 146 508.5 134 Q522 122 522 104 Q522 94 518 84.5 Q514 75 502 62 Q468 25 421 4 Q374 -17 323 -17 L319 -17 Q259 -17 212 6 Q165 29 133 68 Q101 107 84.5 158 Q68 209 68 266 Q68 322 84.5 373 Q101 424 133 463 Q165 502 212 525 Q259 548 319 548 Q380 548 431.5 523.5 Q483 499 516 448 Q520 443 523.5 435.5 Q527 428 527 420 Z M425 423 Q412 437 384.5 450 Q357 463 319 463 Q282 463 251.5 449 Q221 435 199.5 409 Q178 383 166 346.5 Q154 310 154 266 Q154 211 172 172 L425 423 L425 423 Z M401 766 Q401 741 381 727 L259 634 Q246 624 231 624 Q213 624 200.5 636.5 Q188 649 188 666 Q188 683 202 698 L310 808 Q324 823 345 823 Q368 823 384.5 806 Q401 789 401 766 Z " />
<glyph glyph-name="egrave" unicode="&#xe8;" horiz-adv-x="589" d="M527 420 Q527 405 514 392 L223 101 Q265 68 319 68 Q337 68 355 72 Q373 76 389.5 83.5 Q406 91 420 101.5 Q434 112 442 125 Q456 146 478 146 Q495 146 508.5 134 Q522 122 522 104 Q522 94 518 84.5 Q514 75 502 62 Q468 25 421 4 Q374 -17 323 -17 L319 -17 Q259 -17 212 6 Q165 29 133 68 Q101 107 84.5 158 Q68 209 68 266 Q68 322 84.5 373 Q101 424 133 463 Q165 502 212 525 Q259 548 319 548 Q380 548 431.5 523.5 Q483 499 516 448 Q520 443 523.5 435.5 Q527 428 527 420 Z M425 423 Q412 437 384.5 450 Q357 463 319 463 Q282 463 251.5 449 Q221 435 199.5 409 Q178 383 166 346.5 Q154 310 154 266 Q154 211 172 172 L425 423 L425 423 Z M401 667 Q401 650 388.5 637 Q376 624 359 624 Q343 624 329 635 L207 727 Q197 734 192.5 745 Q188 756 188 767 Q188 790 205 806.5 Q222 823 244 823 Q253 823 262 819.5 Q271 816 279 808 L386 699 Q401 684 401 667 Z " />
<glyph glyph-name="ecircumflex" unicode="&#xea;" horiz-adv-x="589" d="M527 420 Q527 405 514 392 L223 101 Q265 68 319 68 Q337 68 355 72 Q373 76 389.5 83.5 Q406 91 420 101.5 Q434 112 442 125 Q456 146 478 146 Q495 146 508.5 134 Q522 122 522 104 Q522 94 518 84.5 Q514 75 502 62 Q468 25 421 4 Q374 -17 323 -17 L319 -17 Q259 -17 212 6 Q165 29 133 68 Q101 107 84.5 158 Q68 209 68 266 Q68 322 84.5 373 Q101 424 133 463 Q165 502 212 525 Q259 548 319 548 Q380 548 431.5 523.5 Q483 499 516 448 Q520 443 523.5 435.5 Q527 428 527 420 Z M425 423 Q412 437 384.5 450 Q357 463 319 463 Q282 463 251.5 449 Q221 435 199.5 409 Q178 383 166 346.5 Q154 310 154 266 Q154 211 172 172 L425 423 L425 423 Z M473 667 Q473 650 461.5 637 Q450 624 430 624 Q425 624 419.5 625 Q414 626 408 629 L295 689 L182 629 Q172 624 159 624 Q141 624 129 637 Q117 650 117 667 Q117 676 122.5 686 Q128 696 139 703 L269 781 Q275 784 281.5 787 Q288 790 295 790 Q302 790 308.5 787 Q315 784 321 781 L451 703 Q463 696 468 686 Q473 676 473 667 Z " />
<glyph glyph-name="edieresis" unicode="&#xeb;" horiz-adv-x="589" d="M527 420 Q527 405 514 392 L223 101 Q265 68 319 68 Q337 68 355 72 Q373 76 389.5 83.5 Q406 91 420 101.5 Q434 112 442 125 Q456 146 478 146 Q495 146 508.5 134 Q522 122 522 104 Q522 94 518 84.5 Q514 75 502 62 Q468 25 421 4 Q374 -17 323 -17 L319 -17 Q259 -17 212 6 Q165 29 133 68 Q101 107 84.5 158 Q68 209 68 266 Q68 322 84.5 373 Q101 424 133 463 Q165 502 212 525 Q259 548 319 548 Q380 548 431.5 523.5 Q483 499 516 448 Q520 443 523.5 435.5 Q527 428 527 420 Z M425 423 Q412 437 384.5 450 Q357 463 319 463 Q282 463 251.5 449 Q221 435 199.5 409 Q178 383 166 346.5 Q154 310 154 266 Q154 211 172 172 L425 423 L425 423 Z M479 695 Q479 666 459 645 Q439 624 409 624 Q379 624 358 644 Q337 664 337 694 Q337 724 358 745 Q379 766 409 766 Q439 766 459 745.5 Q479 725 479 695 Z M253 695 Q253 666 232 645 Q211 624 181 624 Q151 624 130.5 644 Q110 664 110 694 Q110 724 130.5 745 Q151 766 181 766 Q211 766 232 745.5 Q253 725 253 695 Z " />
<glyph glyph-name="eth" unicode="&#xf0;" horiz-adv-x="651" d="M641 641 Q641 624 630 611.5 Q619 599 597 599 L526 599 Q542 557 551 513 Q560 469 564 425.5 Q568 382 569 341.5 Q570 301 570 266 Q570 209 553.5 157.5 Q537 106 505 67.5 Q473 29 426 6 Q379 -17 319 -17 Q259 -17 212 6 Q165 29 133 67.5 Q101 106 84.5 157.5 Q68 209 68 266 Q68 323 84.5 374 Q101 425 133 463.5 Q165 502 212 525 Q259 548 319 548 Q405 548 466 502 Q460 528 452 552 Q444 576 431 599 L301 599 Q279 599 269 611.5 Q259 624 259 641 Q259 658 269 671 Q279 684 301 684 L359 684 Q350 691 339.5 696.5 Q329 702 320 708.5 Q311 715 305 723 Q299 731 299 742 Q299 759 311 773.5 Q323 788 342 788 Q347 788 351.5 787 Q356 786 361 783 Q399 763 427.5 738.5 Q456 714 479 684 L597 684 Q619 684 630 671 Q641 658 641 641 Z M484 266 Q484 311 472.5 347 Q461 383 439.5 409 Q418 435 387.5 449 Q357 463 319 463 Q282 463 251.5 449 Q221 435 199 409 Q177 383 165.5 347 Q154 311 154 266 Q154 221 165.5 184.5 Q177 148 199 122 Q221 96 251.5 82 Q282 68 319 68 Q357 68 387.5 82 Q418 96 439.5 122 Q461 148 472.5 184.5 Q484 221 484 266 Z " />
<glyph glyph-name="Eth" unicode="&#xd0;" horiz-adv-x="690" d="M616 357 Q616 287 602 222.5 Q588 158 556 108.5 Q524 59 471.5 29.5 Q419 0 342 0 L135 0 Q118 0 104.5 13 Q91 26 91 42 L91 339 L43 339 Q22 339 11.5 351.5 Q1 364 1 381 Q1 398 11.5 411 Q22 424 43 424 L91 424 L91 669 Q91 686 104.5 699 Q118 712 135 712 L342 712 Q419 712 471.5 682.5 Q524 653 556 604 Q588 555 602 490.5 Q616 426 616 357 Z M530 357 Q530 488 484.5 557.5 Q439 627 342 627 L177 627 L177 425 L340 425 Q361 425 372 412 Q383 399 383 382 Q383 365 372 352.5 Q361 340 340 340 L177 340 L177 85 L342 85 Q439 85 484.5 154 Q530 223 530 357 Z " />
</font>
</svg>
